<?xml version="1.0" encoding="utf-8"?>
<!-- Generator: Adobe Illustrator 25.0.1, SVG Export Plug-In . SVG Version: 6.00 Build 0)  -->
<svg version="1.1" id="Capa_1" xmlns="http://www.w3.org/2000/svg" xmlns:xlink="http://www.w3.org/1999/xlink" x="0px" y="0px"
	 viewBox="0 0 71 9" style="enable-background:new 0 0 71 9;" xml:space="preserve">
<style type="text/css">
	.st0{fill:none;stroke:#FFFFFF;stroke-width:3;stroke-linecap:square;}
	.st1{fill:#FCF9ED;}
	.st2{fill:#902F1E;}
	.st3{fill:#3B3C61;}
	.st4{fill:#DDA764;}
	.st5{fill:#63808D;}
	.st6{clip-path:url(#SVGID_2_);}
	.st7{clip-path:url(#SVGID_4_);}
	.st8{clip-path:url(#SVGID_6_);}
	.st9{clip-path:url(#SVGID_8_);}
	.st10{fill:#FFFFFF;}
	.st11{clip-path:url(#SVGID_10_);}
	.st12{clip-path:url(#SVGID_12_);}
	.st13{clip-path:url(#SVGID_14_);}
	.st14{clip-path:url(#SVGID_16_);}
</style>
<desc>Created with Sketch.</desc>
<g id="Page-1">
	<path id="Line-Copy" class="st0" d="M-7.4,22.6c0,0,2.1,3,4.2,3s4.2-3,4.2-3s2.1-3,4.2-3s4.1,3,4.1,3s2.1,3,4.2,3s4.2-3,4.2-3
		s2.1-3,4.2-3s4.1,3,4.1,3s2.1,3,4.2,3c2.1,0,4.2-3,4.2-3s2.1-3,4.2-3c2,0,4.1,3,4.1,3s2.1,3,4.2,3c2.1,0,4.2-3,4.2-3s2.1-3,4.2-3
		c2,0,4.1,3,4.1,3"/>
</g>
<g>
	<rect x="17.2" y="1.7" class="st1" width="5.6" height="5.6"/>
	<g>
		<g>
			<g>
				<g>
					<g>
						<g>
							<path class="st2" d="M20.6,3.5c0,0.3-0.2,0.6-0.2,0.6s-0.2-0.3-0.2-0.6c0-0.3,0.2-0.6,0.2-0.6S20.6,3.2,20.6,3.5z"/>
						</g>
						<g>
							<path class="st2" d="M21,3.9c-0.3,0-0.6,0.2-0.6,0.2s0.3,0.2,0.6,0.2c0.3,0,0.6-0.2,0.6-0.2S21.3,3.9,21,3.9z"/>
						</g>
					</g>
					<g>
						<g>
							<path class="st2" d="M19.3,5.5c0-0.3,0.2-0.6,0.2-0.6s0.2,0.3,0.2,0.6c0,0.3-0.2,0.6-0.2,0.6S19.3,5.9,19.3,5.5z"/>
						</g>
						<g>
							<path class="st2" d="M18.9,5.1c0.3,0,0.6-0.2,0.6-0.2s-0.3-0.2-0.6-0.2c-0.3,0-0.6,0.2-0.6,0.2S18.6,5.1,18.9,5.1z"/>
						</g>
					</g>
				</g>
				<g>
					<g>
						<path class="st2" d="M21,5.1c-0.3,0-0.6-0.2-0.6-0.2s0.3-0.2,0.6-0.2c0.3,0,0.6,0.2,0.6,0.2S21.3,5.1,21,5.1z"/>
					</g>
					<g>
						<path class="st2" d="M20.6,5.5c0-0.3-0.2-0.6-0.2-0.6s-0.2,0.3-0.2,0.6c0,0.3,0.2,0.6,0.2,0.6S20.6,5.9,20.6,5.5z"/>
					</g>
				</g>
				<g>
					<g>
						<path class="st2" d="M18.9,3.9c0.3,0,0.6,0.2,0.6,0.2s-0.3,0.2-0.6,0.2c-0.3,0-0.6-0.2-0.6-0.2S18.6,3.9,18.9,3.9z"/>
					</g>
					<g>
						<path class="st2" d="M19.3,3.5c0,0.3,0.2,0.6,0.2,0.6s0.2-0.3,0.2-0.6c0-0.3-0.2-0.6-0.2-0.6S19.3,3.2,19.3,3.5z"/>
					</g>
				</g>
			</g>
			<path class="st3" d="M20.2,4.7c-0.1,0.1-0.3,0.1-0.5,0c-0.1-0.1-0.1-0.3,0-0.5c0.1-0.1,0.3-0.1,0.5,0C20.3,4.4,20.3,4.6,20.2,4.7
				z"/>
			<g>
				<g>
					<g>
						<path class="st4" d="M21.8,3.1c0,0-0.1-0.1-0.1-0.1c0,0,0.1-0.1,0.1-0.1C22.1,2.7,22,2.5,22,2.5s-0.3-0.1-0.5,0.2
							c0,0-0.1,0.1-0.1,0.1c0,0-0.1-0.1-0.1-0.1c-0.2-0.2-0.5-0.2-0.5-0.2S20.7,2.7,21,3C21,3,21,3,21.1,3.1c0,0-0.1,0.1-0.1,0.1
							c-0.2,0.2-0.2,0.5-0.2,0.5s0.3,0.1,0.5-0.2c0,0,0.1-0.1,0.1-0.1c0,0,0.1,0.1,0.1,0.1C21.7,3.7,22,3.6,22,3.6
							S22.1,3.4,21.8,3.1z M21.3,3.2c-0.1-0.1-0.1-0.2,0-0.2c0.1-0.1,0.2-0.1,0.2,0c0.1,0.1,0.1,0.2,0,0.2
							C21.5,3.2,21.3,3.2,21.3,3.2z"/>
					</g>
				</g>
				<g>
					<g>
						<path class="st4" d="M18.9,6c0,0-0.1-0.1-0.1-0.1c0,0,0.1-0.1,0.1-0.1c0.2-0.2,0.2-0.5,0.2-0.5s-0.3-0.1-0.5,0.2
							c0,0-0.1,0.1-0.1,0.1c0,0-0.1-0.1-0.1-0.1c-0.2-0.2-0.5-0.2-0.5-0.2s-0.1,0.3,0.2,0.5c0,0,0.1,0.1,0.1,0.1
							c0,0-0.1,0.1-0.1,0.1c-0.2,0.2-0.2,0.5-0.2,0.5s0.3,0.1,0.5-0.2c0,0,0.1-0.1,0.1-0.1c0,0,0.1,0.1,0.1,0.1
							c0.2,0.2,0.5,0.2,0.5,0.2S19.2,6.3,18.9,6z M18.4,6.1c-0.1-0.1-0.1-0.2,0-0.2c0.1-0.1,0.2-0.1,0.2,0c0.1,0.1,0.1,0.2,0,0.2
							C18.6,6.1,18.5,6.1,18.4,6.1z"/>
					</g>
				</g>
			</g>
			<g>
				<g>
					<g>
						<path class="st4" d="M21.3,6.4c0,0,0.1-0.1,0.1-0.1c0,0,0.1,0.1,0.1,0.1C21.7,6.6,22,6.5,22,6.5s0.1-0.3-0.2-0.5
							c0,0-0.1-0.1-0.1-0.1c0,0,0.1-0.1,0.1-0.1C22.1,5.6,22,5.4,22,5.4s-0.3-0.1-0.5,0.2c0,0-0.1,0.1-0.1,0.1c0,0-0.1-0.1-0.1-0.1
							c-0.2-0.2-0.5-0.2-0.5-0.2S20.7,5.6,21,5.9c0,0,0.1,0.1,0.1,0.1C21,6,21,6,21,6c-0.2,0.2-0.2,0.5-0.2,0.5S21.1,6.6,21.3,6.4z
							 M21.3,5.8c0.1-0.1,0.2-0.1,0.2,0c0.1,0.1,0.1,0.2,0,0.2c-0.1,0.1-0.2,0.1-0.2,0C21.2,6,21.2,5.9,21.3,5.8z"/>
					</g>
				</g>
				<g>
					<g>
						<path class="st4" d="M18.4,3.5c0,0,0.1-0.1,0.1-0.1c0,0,0.1,0.1,0.1,0.1c0.2,0.2,0.5,0.2,0.5,0.2s0.1-0.3-0.2-0.5
							c0,0-0.1-0.1-0.1-0.1c0,0,0.1-0.1,0.1-0.1c0.2-0.2,0.2-0.5,0.2-0.5s-0.3-0.1-0.5,0.2c0,0-0.1,0.1-0.1,0.1c0,0-0.1-0.1-0.1-0.1
							c-0.2-0.2-0.5-0.2-0.5-0.2S17.8,2.7,18.1,3c0,0,0.1,0.1,0.1,0.1c0,0-0.1,0.1-0.1,0.1c-0.2,0.2-0.2,0.5-0.2,0.5
							S18.2,3.7,18.4,3.5z M18.4,2.9c0.1-0.1,0.2-0.1,0.2,0c0.1,0.1,0.1,0.2,0,0.2c-0.1,0.1-0.2,0.1-0.2,0C18.3,3.1,18.3,3,18.4,2.9
							z"/>
					</g>
				</g>
			</g>
		</g>
	</g>
	<g>
		<path class="st3" d="M22.6,7.1h-5.3V1.9h5.3V7.1z M17.5,6.9h4.9V2.1h-4.9V6.9z"/>
	</g>
</g>
<g>
	<g>
		<rect x="29.4" y="1.7" class="st1" width="5.6" height="5.6"/>
	</g>
	<g>
		<path class="st2" d="M33.3,4.8c0.1,0,0.2,0,0.3,0c0.5,0,0.9-0.4,0.9-0.4S34,4.1,33.5,4.1c-0.1,0-0.2,0-0.3,0
			c0.3-0.2,0.4-0.5,0.4-0.5s-0.4-0.1-0.7,0.1c0,0,0,0,0,0c0,0,0,0,0,0C33.1,3.4,33.1,3,33.1,3s-0.3,0.1-0.5,0.4c0-0.1,0-0.2,0-0.3
			c0-0.5-0.4-0.9-0.4-0.9s-0.4,0.4-0.4,0.9c0,0.1,0,0.2,0,0.3C31.6,3.1,31.3,3,31.3,3s-0.1,0.4,0.1,0.7c0,0,0,0,0,0c0,0,0,0,0,0
			c-0.3-0.2-0.7-0.1-0.7-0.1s0.1,0.3,0.4,0.5c-0.1,0-0.2,0-0.3,0c-0.5,0-0.9,0.4-0.9,0.4s0.4,0.4,0.9,0.4c0.1,0,0.2,0,0.3,0
			c-0.3,0.2-0.4,0.5-0.4,0.5s0.4,0.1,0.7-0.1c0,0,0,0,0,0c0,0,0,0,0,0C31.2,5.6,31.3,6,31.3,6s0.3-0.1,0.5-0.4c0,0.1,0,0.2,0,0.3
			c0,0.5,0.4,0.9,0.4,0.9s0.4-0.4,0.4-0.9c0-0.1,0-0.2,0-0.3C32.7,5.9,33.1,6,33.1,6s0.1-0.4-0.1-0.7c0,0,0,0,0,0c0,0,0,0,0,0
			c0.3,0.2,0.7,0.1,0.7,0.1S33.5,5,33.3,4.8z M32.2,4.9c0,0-0.1,0.1-0.2,0.3c0-0.2,0-0.4,0-0.4s-0.1,0-0.2,0.1
			c0.1-0.1,0.1-0.2,0.1-0.2s-0.2,0-0.4,0c0.2-0.1,0.2-0.2,0.2-0.2s-0.1-0.1-0.2-0.2c0.2,0,0.4,0,0.4,0s0-0.1-0.1-0.2
			C31.9,4.2,32,4.2,32,4.2s0-0.2,0-0.4c0.1,0.2,0.2,0.3,0.2,0.3s0.1-0.1,0.2-0.3c0,0.2,0,0.4,0,0.4s0.1,0,0.2-0.1
			c-0.1,0.1-0.1,0.2-0.1,0.2s0.2,0,0.4,0c-0.2,0.1-0.2,0.2-0.2,0.2s0.1,0.1,0.2,0.2c-0.2,0-0.4,0-0.4,0s0,0.1,0.1,0.2
			c-0.1-0.1-0.2-0.1-0.2-0.1s0,0.2,0,0.4C32.3,5,32.2,4.9,32.2,4.9z"/>
		<g>
			<path class="st4" d="M31.1,2.1c-0.1,0.1-0.2,0.2-0.3,0.3c0-0.1-0.1-0.2-0.2-0.2c-0.1,0-0.1,0.1-0.2,0.2c-0.1-0.1-0.3-0.1-0.4,0
				c-0.1,0.1-0.1,0.3,0,0.4c-0.1,0-0.2,0.1-0.2,0.2c0,0.1,0.1,0.2,0.2,0.2c-0.1,0.1-0.2,0.2-0.3,0.3c-0.1,0.1,0,0.2,0.1,0.1
				c0.2-0.1,0.3-0.2,0.5-0.3c0.2,0,0.4,0,0.6,0c0-0.2,0-0.4,0-0.6c0-0.2,0.1-0.4,0.3-0.5C31.3,2.1,31.2,2.1,31.1,2.1z"/>
			<path class="st4" d="M33.2,6.9c0.1-0.1,0.2-0.2,0.3-0.3c0,0.1,0.1,0.2,0.2,0.2c0.1,0,0.1-0.1,0.2-0.2c0.1,0.1,0.3,0.1,0.4,0
				c0.1-0.1,0.1-0.3,0-0.4c0.1,0,0.2-0.1,0.2-0.2c0-0.1-0.1-0.2-0.2-0.2c0.1-0.1,0.2-0.2,0.3-0.3c0.1-0.1,0-0.2-0.1-0.1
				c-0.2,0.1-0.3,0.2-0.5,0.3c-0.2,0-0.4,0-0.6,0c0,0.2,0,0.4,0,0.6c0,0.2-0.1,0.4-0.3,0.5C33.1,6.9,33.2,6.9,33.2,6.9z"/>
		</g>
		<g>
			<path class="st3" d="M34.5,3.4c-0.1-0.1-0.2-0.2-0.3-0.3c0.1,0,0.2-0.1,0.2-0.2c0-0.1-0.1-0.1-0.2-0.2c0.1-0.1,0.1-0.3,0-0.4
				c-0.1-0.1-0.3-0.1-0.4,0c0-0.1-0.1-0.2-0.2-0.2c-0.1,0-0.2,0.1-0.2,0.2c-0.1-0.1-0.2-0.2-0.3-0.3c-0.1-0.1-0.2,0-0.1,0.1
				c0.1,0.2,0.2,0.3,0.3,0.5c0,0.2,0,0.4,0,0.6c0.2,0,0.4,0,0.6,0c0.2,0,0.4,0.1,0.5,0.3C34.5,3.6,34.6,3.5,34.5,3.4z"/>
			<path class="st3" d="M29.8,5.6c0.1,0.1,0.2,0.2,0.3,0.3c-0.1,0-0.2,0.1-0.2,0.2c0,0.1,0.1,0.1,0.2,0.2c-0.1,0.1-0.1,0.3,0,0.4
				c0.1,0.1,0.3,0.1,0.4,0c0,0.1,0.1,0.2,0.2,0.2c0.1,0,0.2-0.1,0.2-0.2c0.1,0.1,0.2,0.2,0.3,0.3c0.1,0.1,0.2,0,0.1-0.1
				C31.1,6.6,31,6.5,31,6.3c0-0.2,0-0.4,0-0.6c-0.2,0-0.4,0-0.6,0c-0.2,0-0.4-0.1-0.5-0.3C29.8,5.4,29.7,5.5,29.8,5.6z"/>
		</g>
	</g>
</g>
<g>
	<rect x="35.5" y="1.7" class="st1" width="5.6" height="5.6"/>
	<g>
		<path class="st5" d="M35.5,4.7v0.4l2.2,2.2h0.4L35.5,4.7z M38.9,7.3l2.2-2.2V4.7l-2.6,2.6H38.9z M38.9,1.7h-0.4l2.6,2.6V3.9
			L38.9,1.7z M37.7,1.7l-2.2,2.2v0.4l2.6-2.6H37.7z"/>
	</g>
	<g>
		<path class="st4" d="M40.7,6.9h-4.8V2.1h4.8V6.9z M36.2,6.6h4.2V2.4h-4.2V6.6z"/>
	</g>
	<g>
		<defs>
			<rect id="SVGID_1_" x="35.5" y="1.7" width="5.6" height="5.6"/>
		</defs>
		<clipPath id="SVGID_2_">
			<use xlink:href="#SVGID_1_"  style="overflow:visible;"/>
		</clipPath>
		<g class="st6">
			<g>
				<g>
					<path class="st3" d="M35.7,1.7c0,1-0.1,1.9-0.2,1.9c-0.1,0-0.2-0.8-0.2-1.9c0-1,0.1-1.9,0.2-1.9C35.6-0.2,35.7,0.7,35.7,1.7z"
						/>
					<path class="st3" d="M35.5,1.9c-1,0-1.9-0.1-1.9-0.2c0-0.1,0.8-0.2,1.9-0.2c1,0,1.9,0.1,1.9,0.2C37.4,1.8,36.5,1.9,35.5,1.9z"
						/>
				</g>
				<g>
					<path class="st3" d="M35.6,1.8c-0.7,0.7-1.4,1.2-1.5,1.2c-0.1-0.1,0.4-0.7,1.2-1.5c0.7-0.7,1.4-1.2,1.5-1.2
						C36.9,0.5,36.4,1.1,35.6,1.8z"/>
					<path class="st3" d="M35.3,1.8c-0.7-0.7-1.2-1.4-1.2-1.5c0.1-0.1,0.7,0.4,1.5,1.2c0.7,0.7,1.2,1.4,1.2,1.5
						C36.7,3.1,36.1,2.6,35.3,1.8z"/>
				</g>
			</g>
			<g>
				<g>
					<path class="st3" d="M41.3,1.7c0,1-0.1,1.9-0.2,1.9c-0.1,0-0.2-0.8-0.2-1.9c0-1,0.1-1.9,0.2-1.9C41.2-0.2,41.3,0.7,41.3,1.7z"
						/>
					<path class="st3" d="M41.1,1.9c-1,0-1.9-0.1-1.9-0.2c0-0.1,0.8-0.2,1.9-0.2c1,0,1.9,0.1,1.9,0.2C43,1.8,42.1,1.9,41.1,1.9z"/>
				</g>
				<g>
					<path class="st3" d="M41.2,1.8c-0.7,0.7-1.4,1.2-1.5,1.2c-0.1-0.1,0.4-0.7,1.2-1.5c0.7-0.7,1.4-1.2,1.5-1.2
						C42.5,0.5,42,1.1,41.2,1.8z"/>
					<path class="st3" d="M40.9,1.8c-0.7-0.7-1.2-1.4-1.2-1.5c0.1-0.1,0.7,0.4,1.5,1.2C42,2.3,42.5,2.9,42.4,3
						C42.3,3.1,41.7,2.6,40.9,1.8z"/>
				</g>
			</g>
		</g>
		<g class="st6">
			<g>
				<g>
					<path class="st3" d="M35.7,7.3c0,1-0.1,1.9-0.2,1.9c-0.1,0-0.2-0.8-0.2-1.9c0-1,0.1-1.9,0.2-1.9C35.6,5.4,35.7,6.3,35.7,7.3z"
						/>
					<path class="st3" d="M35.5,7.5c-1,0-1.9-0.1-1.9-0.2c0-0.1,0.8-0.2,1.9-0.2c1,0,1.9,0.1,1.9,0.2C37.4,7.4,36.5,7.5,35.5,7.5z"
						/>
				</g>
				<g>
					<path class="st3" d="M35.6,7.4c-0.7,0.7-1.4,1.2-1.5,1.2c-0.1-0.1,0.4-0.7,1.2-1.5c0.7-0.7,1.4-1.2,1.5-1.2
						C36.9,6.1,36.4,6.7,35.6,7.4z"/>
					<path class="st3" d="M35.3,7.4c-0.7-0.7-1.2-1.4-1.2-1.5c0.1-0.1,0.7,0.4,1.5,1.2c0.7,0.7,1.2,1.4,1.2,1.5
						C36.7,8.7,36.1,8.2,35.3,7.4z"/>
				</g>
			</g>
			<g>
				<g>
					<path class="st3" d="M41.3,7.3c0,1-0.1,1.9-0.2,1.9c-0.1,0-0.2-0.8-0.2-1.9c0-1,0.1-1.9,0.2-1.9C41.2,5.4,41.3,6.3,41.3,7.3z"
						/>
					<path class="st3" d="M41.1,7.5c-1,0-1.9-0.1-1.9-0.2c0-0.1,0.8-0.2,1.9-0.2c1,0,1.9,0.1,1.9,0.2C43,7.4,42.1,7.5,41.1,7.5z"/>
				</g>
				<g>
					<path class="st3" d="M41.2,7.4c-0.7,0.7-1.4,1.2-1.5,1.2c-0.1-0.1,0.4-0.7,1.2-1.5c0.7-0.7,1.4-1.2,1.5-1.2
						C42.5,6.1,42,6.7,41.2,7.4z"/>
					<path class="st3" d="M40.9,7.4c-0.7-0.7-1.2-1.4-1.2-1.5c0.1-0.1,0.7,0.4,1.5,1.2c0.7,0.7,1.2,1.4,1.2,1.5
						C42.3,8.7,41.7,8.2,40.9,7.4z"/>
				</g>
			</g>
		</g>
	</g>
	<g>
		<path class="st3" d="M39.6,4.5c0-0.1-0.3-0.1-0.6-0.1c-0.1,0-0.3,0-0.4,0c0.1,0,0.2-0.1,0.3-0.2c0.3-0.2,0.5-0.4,0.5-0.4
			c0-0.1-0.3,0-0.6,0.2c-0.1,0.1-0.2,0.1-0.3,0.2c0.1-0.1,0.1-0.2,0.2-0.3C38.9,3.6,39,3.4,39,3.3c-0.1,0-0.2,0.2-0.4,0.5
			c-0.1,0.1-0.1,0.2-0.2,0.3c0-0.1,0-0.2,0-0.4c0-0.3-0.1-0.6-0.1-0.6c-0.1,0-0.1,0.3-0.1,0.6c0,0.1,0,0.3,0,0.4
			c0-0.1-0.1-0.2-0.2-0.3c-0.2-0.3-0.4-0.5-0.4-0.5c-0.1,0,0,0.3,0.2,0.6C37.9,4,37.9,4.1,38,4.2c-0.1-0.1-0.2-0.1-0.3-0.2
			c-0.3-0.2-0.6-0.3-0.6-0.2c0,0.1,0.2,0.2,0.5,0.4c0.1,0.1,0.2,0.1,0.3,0.2c-0.1,0-0.2,0-0.4,0c-0.3,0-0.6,0.1-0.6,0.1
			c0,0.1,0.3,0.1,0.6,0.1c0.1,0,0.3,0,0.4,0c-0.1,0-0.2,0.1-0.3,0.2c-0.3,0.2-0.5,0.4-0.5,0.4c0,0.1,0.3,0,0.6-0.2
			c0.1-0.1,0.2-0.1,0.3-0.2C37.9,4.9,37.9,5,37.8,5c-0.2,0.3-0.3,0.6-0.2,0.6c0.1,0,0.2-0.2,0.4-0.5c0.1-0.1,0.1-0.2,0.2-0.3
			c0,0.1,0,0.2,0,0.4c0,0.3,0.1,0.6,0.1,0.6c0.1,0,0.1-0.3,0.1-0.6c0-0.1,0-0.3,0-0.4c0,0.1,0.1,0.2,0.2,0.3
			c0.2,0.3,0.4,0.5,0.4,0.5c0.1,0,0-0.3-0.2-0.6c-0.1-0.1-0.1-0.2-0.2-0.3c0.1,0.1,0.2,0.1,0.3,0.2c0.3,0.2,0.6,0.3,0.6,0.2
			c0-0.1-0.2-0.2-0.5-0.4c-0.1-0.1-0.2-0.1-0.3-0.2c0.1,0,0.2,0,0.4,0C39.3,4.6,39.6,4.6,39.6,4.5z M38.3,4.7
			c-0.1,0-0.3-0.1-0.3-0.3c0-0.1,0.1-0.3,0.3-0.3c0.1,0,0.3,0.1,0.3,0.3C38.5,4.6,38.4,4.7,38.3,4.7z"/>
		<path class="st2" d="M38.3,4.3c-0.1,0-0.2,0.1-0.2,0.2c0,0.1,0.1,0.2,0.2,0.2c0.1,0,0.2-0.1,0.2-0.2C38.4,4.4,38.4,4.3,38.3,4.3z"
			/>
		<path class="st2" d="M38.3,2.9c-0.9,0-1.6,0.7-1.6,1.6c0,0.9,0.7,1.6,1.6,1.6c0.9,0,1.6-0.7,1.6-1.6C39.9,3.6,39.2,2.9,38.3,2.9z
			 M38.3,5.9c-0.8,0-1.4-0.6-1.4-1.4c0-0.8,0.6-1.4,1.4-1.4c0.8,0,1.4,0.6,1.4,1.4C39.7,5.3,39.1,5.9,38.3,5.9z"/>
	</g>
</g>
<g>
	<rect x="41.6" y="1.7" class="st1" width="5.6" height="5.6"/>
	<g>
		<defs>
			<rect id="SVGID_3_" x="41.6" y="1.7" width="5.6" height="5.6"/>
		</defs>
		<clipPath id="SVGID_4_">
			<use xlink:href="#SVGID_3_"  style="overflow:visible;"/>
		</clipPath>
		<g class="st7">
			<g>
				
					<rect x="44.1" y="4.1" transform="matrix(0.7071 -0.7071 0.7071 0.7071 9.8289 32.7423)" class="st5" width="0.7" height="0.7"/>
				<g>
					
						<rect x="44.1" y="6.9" transform="matrix(0.7073 -0.7069 0.7069 0.7073 7.8423 33.5519)" class="st4" width="0.7" height="0.7"/>
				</g>
				<rect x="46.9" y="6.9" transform="matrix(0.7072 -0.707 0.707 0.7072 8.667 35.5382)" class="st5" width="0.7" height="0.7"/>
				
					<rect x="46.9" y="1.3" transform="matrix(0.7073 -0.7069 0.7069 0.7073 12.6223 33.8955)" class="st5" width="0.7" height="0.7"/>
				<g>
					
						<rect x="46.9" y="4.1" transform="matrix(0.707 -0.7072 0.7072 0.707 10.6545 34.7287)" class="st4" width="0.7" height="0.7"/>
				</g>
				<g>
					
						<rect x="41.3" y="4.1" transform="matrix(0.7069 -0.7073 0.7073 0.7069 9.0176 30.7736)" class="st4" width="0.7" height="0.7"/>
				</g>
				
					<rect x="41.3" y="1.3" transform="matrix(0.7074 -0.7068 0.7068 0.7074 10.978 29.9317)" class="st5" width="0.7" height="0.7"/>
				
					<rect x="41.3" y="6.9" transform="matrix(0.7073 -0.7069 0.7069 0.7073 7.0231 31.5732)" class="st5" width="0.7" height="0.7"/>
				<g>
					
						<rect x="44.1" y="1.3" transform="matrix(0.7074 -0.7068 0.7068 0.7074 11.797 31.9103)" class="st4" width="0.7" height="0.7"/>
				</g>
			</g>
		</g>
	</g>
	<g>
		<g>
			<g>
				<g>
					<g>
						<path class="st2" d="M44,3.1c0,0-0.2-0.1-0.5-0.1c-0.1,0-0.2,0-0.3,0c0.1,0,0.2-0.1,0.3-0.1c0.2-0.1,0.4-0.3,0.3-0.3
							c0,0-0.2,0-0.4,0.2c-0.1,0-0.1,0.1-0.2,0.1c0-0.1,0.1-0.1,0.1-0.2c0.1-0.2,0.2-0.4,0.2-0.4c0,0-0.2,0.1-0.3,0.4
							c-0.1,0.1-0.1,0.2-0.1,0.2c0-0.1,0-0.2,0-0.3c0-0.3,0-0.5-0.1-0.5S43,2.3,43,2.6c0,0.1,0,0.2,0,0.3c0-0.1-0.1-0.2-0.1-0.3
							c-0.1-0.2-0.3-0.4-0.3-0.3c0,0,0,0.2,0.2,0.4c0,0.1,0.1,0.1,0.1,0.2c-0.1,0-0.1-0.1-0.2-0.1c-0.2-0.1-0.4-0.2-0.4-0.2
							c0,0,0.1,0.2,0.4,0.3C42.6,3,42.7,3,42.8,3c-0.1,0-0.2,0-0.3,0c-0.3,0-0.5,0-0.5,0.1c0,0,0.2,0.1,0.5,0.1c0.1,0,0.2,0,0.3,0
							c-0.1,0-0.2,0.1-0.3,0.1c-0.2,0.1-0.4,0.3-0.3,0.3c0,0,0.2,0,0.4-0.2c0.1,0,0.1-0.1,0.2-0.1c0,0.1-0.1,0.1-0.1,0.2
							c-0.1,0.2-0.2,0.4-0.2,0.4c0,0,0.2-0.1,0.3-0.4c0-0.1,0.1-0.2,0.1-0.2c0,0.1,0,0.2,0,0.3c0,0.3,0,0.5,0.1,0.5s0.1-0.2,0.1-0.5
							c0-0.1,0-0.2,0-0.3c0,0.1,0.1,0.2,0.1,0.3c0.1,0.2,0.3,0.4,0.3,0.3c0,0,0-0.2-0.2-0.4c0-0.1-0.1-0.1-0.1-0.2
							c0.1,0,0.1,0.1,0.2,0.1c0.2,0.1,0.4,0.2,0.4,0.2c0,0-0.1-0.2-0.4-0.3c-0.1,0-0.2-0.1-0.2-0.1c0.1,0,0.2,0,0.3,0
							C43.8,3.2,44,3.2,44,3.1z M43,3.3c-0.1,0-0.2-0.1-0.2-0.2c0-0.1,0.1-0.2,0.2-0.2c0.1,0,0.2,0.1,0.2,0.2
							C43.2,3.2,43.1,3.3,43,3.3z"/>
					</g>
				</g>
				<path class="st3" d="M43,3C43,3,42.9,3,42.9,3.1c0,0.1,0.1,0.1,0.1,0.1s0.1-0.1,0.1-0.1C43.2,3,43.1,3,43,3z"/>
				<path class="st3" d="M43,1.9c-0.7,0-1.2,0.5-1.2,1.2c0,0.7,0.5,1.2,1.2,1.2c0.7,0,1.2-0.5,1.2-1.2C44.2,2.4,43.7,1.9,43,1.9z
					 M43,4.1c-0.6,0-1-0.5-1-1c0-0.6,0.5-1,1-1s1,0.5,1,1C44.1,3.7,43.6,4.1,43,4.1z"/>
			</g>
			<g>
				<g>
					<g>
						<path class="st2" d="M46.8,3.1c0,0-0.2-0.1-0.5-0.1c-0.1,0-0.2,0-0.3,0c0.1,0,0.2-0.1,0.3-0.1c0.2-0.1,0.4-0.3,0.3-0.3
							c0,0-0.2,0-0.4,0.2c-0.1,0-0.1,0.1-0.2,0.1c0-0.1,0.1-0.1,0.1-0.2c0.1-0.2,0.2-0.4,0.2-0.4c0,0-0.2,0.1-0.3,0.4
							c0,0.1-0.1,0.2-0.1,0.2c0-0.1,0-0.2,0-0.3c0-0.3,0-0.5-0.1-0.5s-0.1,0.2-0.1,0.5c0,0.1,0,0.2,0,0.3c0-0.1-0.1-0.2-0.1-0.3
							c-0.1-0.2-0.3-0.4-0.3-0.3c0,0,0,0.2,0.2,0.4c0,0.1,0.1,0.1,0.1,0.2c-0.1,0-0.1-0.1-0.2-0.1C45.2,2.6,45,2.6,45,2.6
							c0,0,0.1,0.2,0.4,0.3C45.4,3,45.5,3,45.6,3c-0.1,0-0.2,0-0.3,0c-0.3,0-0.5,0-0.5,0.1c0,0,0.2,0.1,0.5,0.1c0.1,0,0.2,0,0.3,0
							c-0.1,0-0.2,0.1-0.3,0.1C45.1,3.4,45,3.6,45,3.6c0,0,0.2,0,0.4-0.2c0.1,0,0.1-0.1,0.2-0.1c0,0.1-0.1,0.1-0.1,0.2
							c-0.1,0.2-0.2,0.4-0.2,0.4c0,0,0.2-0.1,0.3-0.4c0-0.1,0.1-0.2,0.1-0.2c0,0.1,0,0.2,0,0.3c0,0.3,0,0.5,0.1,0.5s0.1-0.2,0.1-0.5
							c0-0.1,0-0.2,0-0.3c0,0.1,0.1,0.2,0.1,0.3c0.1,0.2,0.3,0.4,0.3,0.3c0,0,0-0.2-0.2-0.4c0-0.1-0.1-0.1-0.1-0.2
							c0.1,0,0.1,0.1,0.2,0.1c0.2,0.1,0.4,0.2,0.4,0.2c0,0-0.1-0.2-0.4-0.3c-0.1,0-0.2-0.1-0.2-0.1c0.1,0,0.2,0,0.3,0
							C46.6,3.2,46.8,3.2,46.8,3.1z M45.8,3.3c-0.1,0-0.2-0.1-0.2-0.2c0-0.1,0.1-0.2,0.2-0.2S46,3,46,3.1C46,3.2,45.9,3.3,45.8,3.3z
							"/>
					</g>
				</g>
				<path class="st3" d="M45.8,3c-0.1,0-0.1,0.1-0.1,0.1c0,0.1,0.1,0.1,0.1,0.1c0.1,0,0.1-0.1,0.1-0.1C46,3,45.9,3,45.8,3z"/>
				<path class="st3" d="M45.8,1.9c-0.7,0-1.2,0.5-1.2,1.2c0,0.7,0.5,1.2,1.2,1.2c0.7,0,1.2-0.5,1.2-1.2C47,2.4,46.5,1.9,45.8,1.9z
					 M45.8,4.1c-0.6,0-1-0.5-1-1c0-0.6,0.5-1,1-1s1,0.5,1,1C46.9,3.7,46.4,4.1,45.8,4.1z"/>
			</g>
			<g>
				<g>
					<g>
						<path class="st2" d="M46.8,5.9c0,0-0.2-0.1-0.5-0.1c-0.1,0-0.2,0-0.3,0c0.1,0,0.2-0.1,0.3-0.1c0.2-0.1,0.4-0.3,0.3-0.3
							c0,0-0.2,0-0.4,0.2c-0.1,0-0.1,0.1-0.2,0.1c0-0.1,0.1-0.1,0.1-0.2c0.1-0.2,0.2-0.4,0.2-0.4c0,0-0.2,0.1-0.3,0.4
							c0,0.1-0.1,0.2-0.1,0.2c0-0.1,0-0.2,0-0.3c0-0.3,0-0.5-0.1-0.5s-0.1,0.2-0.1,0.5c0,0.1,0,0.2,0,0.3c0-0.1-0.1-0.2-0.1-0.3
							c-0.1-0.2-0.3-0.4-0.3-0.3c0,0,0,0.2,0.2,0.4c0,0.1,0.1,0.1,0.1,0.2c-0.1,0-0.1-0.1-0.2-0.1C45.2,5.4,45,5.4,45,5.4
							c0,0,0.1,0.2,0.4,0.3c0.1,0,0.2,0.1,0.2,0.1c-0.1,0-0.2,0-0.3,0c-0.3,0-0.5,0-0.5,0.1c0,0,0.2,0.1,0.5,0.1c0.1,0,0.2,0,0.3,0
							c-0.1,0-0.2,0.1-0.3,0.1C45.1,6.2,45,6.4,45,6.4c0,0,0.2,0,0.4-0.2c0.1,0,0.1-0.1,0.2-0.1c0,0.1-0.1,0.1-0.1,0.2
							c-0.1,0.2-0.2,0.4-0.2,0.4c0,0,0.2-0.1,0.3-0.4c0-0.1,0.1-0.2,0.1-0.2c0,0.1,0,0.2,0,0.3c0,0.3,0,0.5,0.1,0.5s0.1-0.2,0.1-0.5
							c0-0.1,0-0.2,0-0.3c0,0.1,0.1,0.2,0.1,0.3c0.1,0.2,0.3,0.4,0.3,0.3c0,0,0-0.2-0.2-0.4c0-0.1-0.1-0.1-0.1-0.2
							c0.1,0,0.1,0.1,0.2,0.1c0.2,0.1,0.4,0.2,0.4,0.2c0,0-0.1-0.2-0.4-0.3C46.3,6,46.2,6,46.1,6c0.1,0,0.2,0,0.3,0
							C46.6,6,46.8,6,46.8,5.9z M45.8,6.1c-0.1,0-0.2-0.1-0.2-0.2c0-0.1,0.1-0.2,0.2-0.2S46,5.8,46,5.9C46,6,45.9,6.1,45.8,6.1z"/>
					</g>
				</g>
				<path class="st3" d="M45.8,5.8c-0.1,0-0.1,0.1-0.1,0.1C45.7,6,45.8,6,45.8,6C45.9,6,46,6,46,5.9C46,5.8,45.9,5.8,45.8,5.8z"/>
				<path class="st3" d="M45.8,4.7c-0.7,0-1.2,0.5-1.2,1.2c0,0.7,0.5,1.2,1.2,1.2c0.7,0,1.2-0.5,1.2-1.2C47,5.2,46.5,4.7,45.8,4.7z
					 M45.8,6.9c-0.6,0-1-0.5-1-1c0-0.6,0.5-1,1-1s1,0.5,1,1C46.9,6.5,46.4,6.9,45.8,6.9z"/>
			</g>
			<g>
				<g>
					<g>
						<path class="st2" d="M44,5.9c0,0-0.2-0.1-0.5-0.1c-0.1,0-0.2,0-0.3,0c0.1,0,0.2-0.1,0.3-0.1c0.2-0.1,0.4-0.3,0.3-0.3
							c0,0-0.2,0-0.4,0.2c-0.1,0-0.1,0.1-0.2,0.1c0-0.1,0.1-0.1,0.1-0.2c0.1-0.2,0.2-0.4,0.2-0.4c0,0-0.2,0.1-0.3,0.4
							c-0.1,0.1-0.1,0.2-0.1,0.2c0-0.1,0-0.2,0-0.3c0-0.3,0-0.5-0.1-0.5S43,5.1,43,5.4c0,0.1,0,0.2,0,0.3c0-0.1-0.1-0.2-0.1-0.3
							c-0.1-0.2-0.3-0.4-0.3-0.3c0,0,0,0.2,0.2,0.4c0,0.1,0.1,0.1,0.1,0.2c-0.1,0-0.1-0.1-0.2-0.1c-0.2-0.1-0.4-0.2-0.4-0.2
							c0,0,0.1,0.2,0.4,0.3c0.1,0,0.2,0.1,0.2,0.1c-0.1,0-0.2,0-0.3,0c-0.3,0-0.5,0-0.5,0.1c0,0,0.2,0.1,0.5,0.1c0.1,0,0.2,0,0.3,0
							c-0.1,0-0.2,0.1-0.3,0.1c-0.2,0.1-0.4,0.3-0.3,0.3c0,0,0.2,0,0.4-0.2c0.1,0,0.1-0.1,0.2-0.1c0,0.1-0.1,0.1-0.1,0.2
							c-0.1,0.2-0.2,0.4-0.2,0.4c0,0,0.2-0.1,0.3-0.4c0-0.1,0.1-0.2,0.1-0.2c0,0.1,0,0.2,0,0.3c0,0.3,0,0.5,0.1,0.5s0.1-0.2,0.1-0.5
							c0-0.1,0-0.2,0-0.3c0,0.1,0.1,0.2,0.1,0.3c0.1,0.2,0.3,0.4,0.3,0.3c0,0,0-0.2-0.2-0.4c0-0.1-0.1-0.1-0.1-0.2
							c0.1,0,0.1,0.1,0.2,0.1c0.2,0.1,0.4,0.2,0.4,0.2c0,0-0.1-0.2-0.4-0.3C43.5,6,43.4,6,43.3,6c0.1,0,0.2,0,0.3,0
							C43.8,6,44,6,44,5.9z M43,6.1c-0.1,0-0.2-0.1-0.2-0.2c0-0.1,0.1-0.2,0.2-0.2c0.1,0,0.2,0.1,0.2,0.2C43.2,6,43.1,6.1,43,6.1z"
							/>
					</g>
				</g>
				<path class="st3" d="M43,5.8c-0.1,0-0.1,0.1-0.1,0.1C42.9,6,43,6,43,6s0.1-0.1,0.1-0.1C43.2,5.8,43.1,5.8,43,5.8z"/>
				<path class="st3" d="M43,4.7c-0.7,0-1.2,0.5-1.2,1.2c0,0.7,0.5,1.2,1.2,1.2c0.7,0,1.2-0.5,1.2-1.2C44.2,5.2,43.7,4.7,43,4.7z
					 M43,6.9c-0.6,0-1-0.5-1-1c0-0.6,0.5-1,1-1s1,0.5,1,1C44.1,6.5,43.6,6.9,43,6.9z"/>
			</g>
		</g>
	</g>
</g>
<g>
	<rect x="23.3" y="1.7" class="st1" width="5.6" height="5.6"/>
	<g>
		<path class="st5" d="M28.1,4.5c0-0.4-0.3-0.7-0.7-0.9c0.1-0.3,0.2-0.5,0.1-0.5C27.4,3,27.2,3,27,3.2c-0.2-0.4-0.5-0.7-0.9-0.7
			s-0.7,0.3-0.9,0.7C24.9,3,24.7,3,24.6,3.1c-0.1,0.1,0,0.3,0.1,0.5C24.3,3.8,24,4.1,24,4.5c0,0.4,0.3,0.7,0.7,0.9
			c-0.1,0.3-0.2,0.5-0.1,0.5c0.1,0.1,0.3,0,0.5-0.1c0.2,0.4,0.5,0.7,0.9,0.7s0.7-0.3,0.9-0.7C27.2,6,27.4,6,27.5,6
			c0.1-0.1,0-0.3-0.1-0.5C27.8,5.2,28.1,4.9,28.1,4.5z M27.2,5.3c0.1,0.2,0.2,0.4,0.1,0.5c-0.1,0.1-0.2,0-0.5-0.1
			c-0.2,0.4-0.5,0.6-0.8,0.6c-0.3,0-0.6-0.2-0.8-0.6c-0.2,0.1-0.4,0.2-0.5,0.1c-0.1-0.1,0-0.2,0.1-0.5c-0.4-0.2-0.6-0.5-0.6-0.8
			c0-0.3,0.2-0.6,0.6-0.8c-0.1-0.2-0.2-0.4-0.1-0.5c0.1-0.1,0.2,0,0.5,0.1c0.2-0.4,0.5-0.6,0.8-0.6c0.3,0,0.6,0.2,0.8,0.6
			c0.2-0.1,0.4-0.2,0.5-0.1c0.1,0.1,0,0.2-0.1,0.5c0.4,0.2,0.6,0.5,0.6,0.8C27.8,4.8,27.6,5.1,27.2,5.3z"/>
		<path class="st3" d="M26.4,5.1c0,0,0.1,0.1,0.1,0.1C26.7,5.4,27,5.5,27,5.5s0-0.3-0.2-0.6c0,0-0.1-0.1-0.1-0.1
			c0.2,0,0.4-0.1,0.4-0.1s-0.1-0.2-0.4-0.3c0,0,0,0,0,0c0,0,0,0,0,0c0.2-0.1,0.4-0.3,0.4-0.3s-0.2-0.1-0.4-0.1c0,0,0.1-0.1,0.1-0.1
			C27,3.9,27,3.5,27,3.5s-0.3,0-0.5,0.2c0,0-0.1,0.1-0.1,0.1c0-0.2-0.1-0.4-0.1-0.4s-0.2,0.1-0.3,0.4c0,0,0,0,0,0c0,0,0,0,0,0
			c-0.1-0.2-0.3-0.4-0.3-0.4s-0.1,0.2-0.1,0.4c0,0-0.1-0.1-0.1-0.1c-0.2-0.2-0.6-0.2-0.6-0.2s0,0.3,0.2,0.6c0,0,0.1,0.1,0.1,0.1
			c-0.2,0-0.4,0.1-0.4,0.1s0.1,0.2,0.4,0.3c0,0,0,0,0,0c0,0,0,0,0,0c-0.2,0.1-0.4,0.3-0.4,0.3s0.2,0.1,0.4,0.1c0,0-0.1,0.1-0.1,0.1
			c-0.2,0.2-0.2,0.6-0.2,0.6s0.3,0,0.6-0.2c0,0,0.1-0.1,0.1-0.1c0,0.2,0.1,0.4,0.1,0.4s0.2-0.1,0.3-0.4c0,0,0,0,0,0c0,0,0,0,0,0
			c0.1,0.2,0.3,0.4,0.3,0.4S26.4,5.3,26.4,5.1z M26.3,4.9c-0.1-0.1-0.1-0.2-0.2-0.2c0,0,0,0-0.1,0c0,0,0.1,0.1,0.1,0.2
			c0,0.1-0.1,0.2-0.1,0.2S26,5,26,4.9c0-0.1,0-0.2,0.1-0.2c0,0,0,0-0.1,0c0,0.1-0.1,0.1-0.2,0.2C25.7,5,25.5,5,25.5,5
			s0.1-0.2,0.2-0.3c0.1-0.1,0.2-0.1,0.2-0.2c0,0,0,0,0-0.1c0,0-0.1,0.1-0.2,0.1c-0.1,0-0.2-0.1-0.2-0.1s0.1-0.1,0.2-0.1
			c0.1,0,0.2,0,0.2,0.1c0,0,0,0,0-0.1c-0.1,0-0.1-0.1-0.2-0.2C25.6,4.1,25.5,4,25.5,4s0.2,0.1,0.3,0.2c0.1,0.1,0.1,0.2,0.2,0.2
			c0,0,0,0,0.1,0c0,0-0.1-0.1-0.1-0.2c0-0.1,0.1-0.2,0.1-0.2s0.1,0.1,0.1,0.2c0,0.1,0,0.2-0.1,0.2c0,0,0,0,0.1,0
			c0-0.1,0.1-0.1,0.2-0.2C26.4,4,26.6,4,26.6,4s-0.1,0.2-0.2,0.3c-0.1,0.1-0.2,0.1-0.2,0.2c0,0,0,0,0,0.1c0,0,0.1-0.1,0.2-0.1
			c0.1,0,0.2,0.1,0.2,0.1s-0.1,0.1-0.2,0.1c-0.1,0-0.2,0-0.2-0.1c0,0,0,0,0,0.1C26.2,4.6,26.3,4.7,26.3,4.9c0.2,0,0.3,0.2,0.3,0.2
			S26.4,5,26.3,4.9z"/>
		<g>
			<path class="st2" d="M26.2,3.1c0,0.1-0.1,0.2-0.2,0.2c-0.1,0-0.2-0.1-0.2-0.2C25.9,3,26,3,26.1,3C26.2,3,26.2,3,26.2,3.1z"/>
			<path class="st2" d="M26.2,5.9C26.2,6,26.2,6,26.1,6C26,6,25.9,6,25.9,5.9c0-0.1,0.1-0.2,0.2-0.2C26.2,5.7,26.2,5.8,26.2,5.9z"/>
		</g>
		<g>
			<path class="st2" d="M27.4,4.7c-0.1,0-0.2-0.1-0.2-0.2c0-0.1,0.1-0.2,0.2-0.2c0.1,0,0.2,0.1,0.2,0.2C27.6,4.6,27.5,4.7,27.4,4.7z
				"/>
			<path class="st2" d="M24.7,4.7c-0.1,0-0.2-0.1-0.2-0.2c0-0.1,0.1-0.2,0.2-0.2c0.1,0,0.2,0.1,0.2,0.2C24.9,4.6,24.8,4.7,24.7,4.7z
				"/>
		</g>
	</g>
	<g>
		<defs>
			<rect id="SVGID_5_" x="23.3" y="1.7" width="5.6" height="5.6"/>
		</defs>
		<clipPath id="SVGID_6_">
			<use xlink:href="#SVGID_5_"  style="overflow:visible;"/>
		</clipPath>
		<g class="st8">
			<g>
				<path class="st3" d="M31.5,1.2c0-0.4-0.3-0.7-0.7-0.9c0.1-0.3,0.2-0.5,0.1-0.5c-0.1-0.1-0.3,0-0.5,0.1c-0.2-0.4-0.5-0.7-0.9-0.7
					c-0.4,0-0.7,0.3-0.9,0.7C28.2-0.3,28-0.4,28-0.3c-0.1,0.1,0,0.3,0.1,0.5c-0.4,0.2-0.7,0.5-0.7,0.9c0,0.4,0.3,0.7,0.7,0.9
					c-0.1,0.3-0.2,0.5-0.1,0.5c0.1,0.1,0.3,0,0.5-0.1c0.2,0.4,0.5,0.7,0.9,0.7c0.4,0,0.7-0.3,0.9-0.7c0.3,0.1,0.5,0.2,0.5,0.1
					c0.1-0.1,0-0.3-0.1-0.5C31.2,1.9,31.5,1.5,31.5,1.2z M30.5,1.9c0.1,0.2,0.2,0.4,0.1,0.5c-0.1,0.1-0.2,0-0.5-0.1
					c-0.2,0.4-0.5,0.6-0.8,0.6c-0.3,0-0.6-0.2-0.8-0.6c-0.2,0.1-0.4,0.2-0.5,0.1c-0.1-0.1,0-0.2,0.1-0.5c-0.4-0.2-0.6-0.5-0.6-0.8
					c0-0.3,0.2-0.6,0.6-0.8c-0.1-0.2-0.2-0.4-0.1-0.5c0.1-0.1,0.2,0,0.5,0.1c0.2-0.4,0.5-0.6,0.8-0.6c0.3,0,0.6,0.2,0.8,0.6
					c0.2-0.1,0.4-0.2,0.5-0.1c0.1,0.1,0,0.2-0.1,0.5c0.4,0.2,0.6,0.5,0.6,0.8C31.2,1.5,30.9,1.8,30.5,1.9z"/>
				<path class="st2" d="M29.7,1.8c0,0,0.1,0.1,0.1,0.1c0.2,0.2,0.5,0.2,0.5,0.2s0-0.3-0.2-0.5c0,0-0.1-0.1-0.1-0.1
					c0.2,0,0.4-0.1,0.4-0.1S30.3,1.2,30,1.2c0,0,0,0,0,0c0,0,0,0,0,0c0.2-0.1,0.4-0.3,0.4-0.3S30.2,0.8,30,0.9c0,0,0.1-0.1,0.1-0.1
					c0.2-0.2,0.2-0.5,0.2-0.5s-0.3,0-0.5,0.2c0,0-0.1,0.1-0.1,0.1c0-0.2-0.1-0.4-0.1-0.4s-0.2,0.1-0.3,0.4c0,0,0,0,0,0c0,0,0,0,0,0
					c-0.1-0.2-0.3-0.4-0.3-0.4s-0.1,0.2-0.1,0.4c0,0-0.1-0.1-0.1-0.1c-0.2-0.2-0.6-0.2-0.6-0.2s0,0.3,0.2,0.5c0,0,0.1,0.1,0.1,0.1
					c-0.2,0-0.4,0.1-0.4,0.1s0.1,0.2,0.4,0.3c0,0,0,0,0,0c0,0,0,0,0,0c-0.2,0.1-0.4,0.3-0.4,0.3s0.2,0.1,0.4,0.1
					c0,0-0.1,0.1-0.1,0.1c-0.2,0.2-0.2,0.5-0.2,0.5s0.3,0,0.6-0.2c0,0,0.1-0.1,0.1-0.1c0,0.2,0.1,0.4,0.1,0.4s0.2-0.1,0.3-0.4
					c0,0,0,0,0,0c0,0,0,0,0,0c0.1,0.2,0.3,0.4,0.3,0.4S29.7,2,29.7,1.8z M29.7,1.5c-0.1-0.1-0.1-0.2-0.2-0.2c0,0,0,0-0.1,0
					c0,0,0.1,0.1,0.1,0.2c0,0.1-0.1,0.2-0.1,0.2s-0.1-0.1-0.1-0.2c0-0.1,0-0.2,0.1-0.2c0,0,0,0-0.1,0c0,0.1-0.1,0.1-0.2,0.2
					c-0.1,0.1-0.3,0.2-0.3,0.2s0.1-0.2,0.2-0.3c0.1-0.1,0.2-0.1,0.2-0.2c0,0,0,0,0-0.1c0,0-0.1,0.1-0.2,0.1c-0.1,0-0.2-0.1-0.2-0.1
					s0.1-0.1,0.2-0.1c0.1,0,0.2,0,0.2,0.1c0,0,0,0,0-0.1c-0.1,0-0.1-0.1-0.2-0.2c-0.1-0.1-0.2-0.3-0.2-0.3s0.2,0.1,0.3,0.2
					C29.2,0.9,29.3,1,29.3,1c0,0,0,0,0.1,0c0,0-0.1-0.1-0.1-0.2c0-0.1,0.1-0.2,0.1-0.2s0.1,0.1,0.1,0.2c0,0.1,0,0.2-0.1,0.2
					c0,0,0,0,0.1,0c0-0.1,0.1-0.1,0.2-0.2c0.1-0.1,0.3-0.2,0.3-0.2s-0.1,0.2-0.2,0.3C29.7,1,29.6,1,29.5,1.1c0,0,0,0,0,0.1
					c0,0,0.1-0.1,0.2-0.1c0.1,0,0.2,0.1,0.2,0.1s-0.1,0.1-0.2,0.1c-0.1,0-0.2,0-0.2-0.1c0,0,0,0,0,0.1C29.6,1.3,29.7,1.3,29.7,1.5
					c0.2,0,0.3,0.2,0.3,0.2S29.8,1.6,29.7,1.5z"/>
				<g>
					<path class="st1" d="M29.6-0.2c0,0.1-0.1,0.2-0.2,0.2c-0.1,0-0.2-0.1-0.2-0.2c0-0.1,0.1-0.2,0.2-0.2
						C29.5-0.4,29.6-0.3,29.6-0.2z"/>
					<path class="st1" d="M29.6,2.5c0,0.1-0.1,0.2-0.2,0.2c-0.1,0-0.2-0.1-0.2-0.2c0-0.1,0.1-0.2,0.2-0.2
						C29.5,2.3,29.6,2.4,29.6,2.5z"/>
				</g>
				<g>
					<path class="st1" d="M30.8,1.3c-0.1,0-0.2-0.1-0.2-0.2c0-0.1,0.1-0.2,0.2-0.2c0.1,0,0.2,0.1,0.2,0.2
						C30.9,1.3,30.9,1.3,30.8,1.3z"/>
					<path class="st1" d="M28,1.3c-0.1,0-0.2-0.1-0.2-0.2C27.9,1.1,27.9,1,28,1c0.1,0,0.2,0.1,0.2,0.2C28.2,1.3,28.1,1.3,28,1.3z"/>
				</g>
			</g>
			<g>
				<path class="st3" d="M31.5,7.8c0-0.4-0.3-0.7-0.7-0.9c0.1-0.3,0.2-0.5,0.1-0.5c-0.1-0.1-0.3,0-0.5,0.1c-0.2-0.4-0.5-0.7-0.9-0.7
					c-0.4,0-0.7,0.3-0.9,0.7C28.2,6.4,28,6.3,28,6.4c-0.1,0.1,0,0.3,0.1,0.5c-0.4,0.2-0.7,0.5-0.7,0.9c0,0.4,0.3,0.7,0.7,0.9
					C27.9,9,27.9,9.2,28,9.3c0.1,0.1,0.3,0,0.5-0.1c0.2,0.4,0.5,0.7,0.9,0.7c0.4,0,0.7-0.3,0.9-0.7c0.3,0.1,0.5,0.2,0.5,0.1
					c0.1-0.1,0-0.3-0.1-0.5C31.2,8.5,31.5,8.2,31.5,7.8z M30.6,8.6c0.1,0.2,0.2,0.4,0.1,0.5c-0.1,0.1-0.2,0-0.5-0.1
					c-0.2,0.4-0.5,0.6-0.8,0.6c-0.3,0-0.6-0.2-0.8-0.6c-0.2,0.1-0.4,0.2-0.5,0.1c-0.1-0.1,0-0.2,0.1-0.5c-0.4-0.2-0.6-0.5-0.6-0.8
					c0-0.3,0.2-0.6,0.6-0.8c-0.1-0.2-0.2-0.4-0.1-0.5c0.1-0.1,0.2,0,0.5,0.1c0.2-0.4,0.5-0.6,0.8-0.6c0.3,0,0.6,0.2,0.8,0.6
					c0.2-0.1,0.4-0.2,0.5-0.1c0.1,0.1,0,0.2-0.1,0.5c0.4,0.2,0.6,0.5,0.6,0.8C31.2,8.1,30.9,8.4,30.6,8.6z"/>
				<path class="st2" d="M29.7,8.4c0,0,0.1,0.1,0.1,0.1c0.2,0.2,0.5,0.2,0.5,0.2s0-0.3-0.2-0.5c0,0-0.1-0.1-0.1-0.1
					c0.2,0,0.4-0.1,0.4-0.1S30.3,7.9,30,7.8c0,0,0,0,0,0c0,0,0,0,0,0c0.2-0.1,0.4-0.3,0.4-0.3S30.2,7.5,30,7.5c0,0,0.1-0.1,0.1-0.1
					c0.2-0.2,0.2-0.5,0.2-0.5s-0.3,0-0.5,0.2c0,0-0.1,0.1-0.1,0.1c0-0.2-0.1-0.4-0.1-0.4S29.5,7,29.4,7.2c0,0,0,0,0,0c0,0,0,0,0,0
					c-0.1-0.2-0.3-0.4-0.3-0.4S29.1,7,29.1,7.2c0,0-0.1-0.1-0.1-0.1c-0.2-0.2-0.6-0.2-0.6-0.2s0,0.3,0.2,0.5c0,0,0.1,0.1,0.1,0.1
					c-0.2,0-0.4,0.1-0.4,0.1s0.1,0.2,0.4,0.3c0,0,0,0,0,0c0,0,0,0,0,0c-0.2,0.1-0.4,0.3-0.4,0.3s0.2,0.1,0.4,0.1
					c0,0-0.1,0.1-0.1,0.1c-0.2,0.2-0.2,0.5-0.2,0.5s0.3,0,0.6-0.2c0,0,0.1-0.1,0.1-0.1c0,0.2,0.1,0.4,0.1,0.4s0.2-0.1,0.3-0.4
					c0,0,0,0,0,0c0,0,0,0,0,0c0.1,0.2,0.3,0.4,0.3,0.4S29.7,8.6,29.7,8.4z M29.7,8.2C29.6,8.1,29.5,8,29.5,8c0,0,0,0-0.1,0
					c0,0,0.1,0.1,0.1,0.2c0,0.1-0.1,0.2-0.1,0.2s-0.1-0.1-0.1-0.2c0-0.1,0-0.2,0.1-0.2c0,0,0,0-0.1,0c0,0.1-0.1,0.1-0.2,0.2
					c-0.1,0.1-0.3,0.2-0.3,0.2s0.1-0.2,0.2-0.3C29.1,8,29.2,8,29.3,7.9c0,0,0,0,0-0.1c0,0-0.1,0.1-0.2,0.1c-0.1,0-0.2-0.1-0.2-0.1
					s0.1-0.1,0.2-0.1c0.1,0,0.2,0,0.2,0.1c0,0,0,0,0-0.1c-0.1,0-0.1-0.1-0.2-0.2c-0.1-0.1-0.2-0.3-0.2-0.3s0.2,0.1,0.3,0.2
					c0.1,0.1,0.1,0.2,0.2,0.2c0,0,0,0,0.1,0c0,0-0.1-0.1-0.1-0.2c0-0.1,0.1-0.2,0.1-0.2s0.1,0.1,0.1,0.2c0,0.1,0,0.2-0.1,0.2
					c0,0,0,0,0.1,0c0-0.1,0.1-0.1,0.2-0.2c0.1-0.1,0.3-0.2,0.3-0.2s-0.1,0.2-0.2,0.3c-0.1,0.1-0.2,0.1-0.2,0.2c0,0,0,0,0,0.1
					c0,0,0.1-0.1,0.2-0.1c0.1,0,0.2,0.1,0.2,0.1s-0.1,0.1-0.2,0.1c-0.1,0-0.2,0-0.2-0.1c0,0,0,0,0,0.1C29.6,8,29.7,8,29.7,8.2
					c0.2,0,0.3,0.2,0.3,0.2S29.8,8.3,29.7,8.2z"/>
				<g>
					<path class="st1" d="M29.6,6.5c0,0.1-0.1,0.2-0.2,0.2c-0.1,0-0.2-0.1-0.2-0.2c0-0.1,0.1-0.2,0.2-0.2
						C29.5,6.3,29.6,6.4,29.6,6.5z"/>
					<path class="st1" d="M29.6,9.2c0,0.1-0.1,0.2-0.2,0.2c-0.1,0-0.2-0.1-0.2-0.2c0-0.1,0.1-0.2,0.2-0.2C29.5,9,29.6,9.1,29.6,9.2z
						"/>
				</g>
				<g>
					<path class="st1" d="M30.8,8c-0.1,0-0.2-0.1-0.2-0.2c0-0.1,0.1-0.2,0.2-0.2c0.1,0,0.2,0.1,0.2,0.2C30.9,7.9,30.9,8,30.8,8z"/>
					<path class="st1" d="M28,8c-0.1,0-0.2-0.1-0.2-0.2c0-0.1,0.1-0.2,0.2-0.2c0.1,0,0.2,0.1,0.2,0.2C28.2,7.9,28.1,8,28,8z"/>
				</g>
			</g>
		</g>
		<g class="st8">
			<g>
				<path class="st3" d="M24.8,1.2c0-0.4-0.3-0.7-0.7-0.9c0.1-0.3,0.2-0.5,0.1-0.5c-0.1-0.1-0.3,0-0.5,0.1c-0.2-0.4-0.5-0.7-0.9-0.7
					c-0.4,0-0.7,0.3-0.9,0.7c-0.3-0.1-0.5-0.2-0.5-0.1c-0.1,0.1,0,0.3,0.1,0.5c-0.4,0.2-0.7,0.5-0.7,0.9c0,0.4,0.3,0.7,0.7,0.9
					c-0.1,0.3-0.2,0.5-0.1,0.5c0.1,0.1,0.3,0,0.5-0.1c0.2,0.4,0.5,0.7,0.9,0.7c0.4,0,0.7-0.3,0.9-0.7c0.3,0.1,0.5,0.2,0.5,0.1
					c0.1-0.1,0-0.3-0.1-0.5C24.5,1.9,24.8,1.5,24.8,1.2z M23.9,1.9C24,2.2,24,2.3,24,2.4c-0.1,0.1-0.2,0-0.5-0.1
					c-0.2,0.4-0.5,0.6-0.8,0.6c-0.3,0-0.6-0.2-0.8-0.6c-0.2,0.1-0.4,0.2-0.5,0.1c-0.1-0.1,0-0.2,0.1-0.5C21.2,1.8,21,1.5,21,1.2
					c0-0.3,0.2-0.6,0.6-0.8c-0.1-0.2-0.2-0.4-0.1-0.5c0.1-0.1,0.2,0,0.5,0.1c0.2-0.4,0.5-0.6,0.8-0.6c0.3,0,0.6,0.2,0.8,0.6
					c0.2-0.1,0.4-0.2,0.5-0.1C24,0,24,0.2,23.9,0.4c0.4,0.2,0.6,0.5,0.6,0.8C24.5,1.5,24.3,1.8,23.9,1.9z"/>
				<path class="st2" d="M23,1.8c0,0,0.1,0.1,0.1,0.1c0.2,0.2,0.5,0.2,0.5,0.2s0-0.3-0.2-0.6c0,0-0.1-0.1-0.1-0.1
					c0.2,0,0.4-0.1,0.4-0.1s-0.1-0.2-0.4-0.3c0,0,0,0,0,0c0,0,0,0,0,0c0.2-0.1,0.4-0.3,0.4-0.3s-0.2-0.1-0.4-0.1
					c0,0,0.1-0.1,0.1-0.1c0.2-0.2,0.2-0.5,0.2-0.5s-0.3,0-0.5,0.2c0,0-0.1,0.1-0.1,0.1c0-0.2-0.1-0.4-0.1-0.4s-0.2,0.1-0.3,0.4
					c0,0,0,0,0,0c0,0,0,0,0,0c-0.1-0.2-0.3-0.4-0.3-0.4s-0.1,0.2-0.1,0.4c0,0-0.1-0.1-0.1-0.1c-0.2-0.2-0.5-0.2-0.5-0.2
					s0,0.3,0.2,0.5c0,0,0.1,0.1,0.1,0.1c-0.2,0-0.4,0.1-0.4,0.1s0.1,0.2,0.4,0.3c0,0,0,0,0,0c0,0,0,0,0,0c-0.2,0.1-0.4,0.3-0.4,0.3
					s0.2,0.1,0.4,0.1c0,0-0.1,0.1-0.1,0.1c-0.2,0.2-0.2,0.6-0.2,0.6s0.3,0,0.5-0.2c0,0,0.1-0.1,0.1-0.1c0,0.2,0.1,0.4,0.1,0.4
					s0.2-0.1,0.3-0.4c0,0,0,0,0,0c0,0,0,0,0,0C22.8,2,23,2.2,23,2.2S23.1,2,23,1.8z M23,1.5c-0.1-0.1-0.1-0.2-0.2-0.2c0,0,0,0-0.1,0
					c0,0,0.1,0.1,0.1,0.2c0,0.1-0.1,0.2-0.1,0.2s-0.1-0.1-0.1-0.2c0-0.1,0-0.2,0.1-0.2c0,0,0,0-0.1,0c0,0.1-0.1,0.1-0.2,0.2
					c-0.1,0.1-0.3,0.2-0.3,0.2s0.1-0.2,0.2-0.3c0.1-0.1,0.2-0.1,0.2-0.2c0,0,0,0,0-0.1c0,0-0.1,0.1-0.2,0.1c-0.1,0-0.2-0.1-0.2-0.1
					s0.1-0.1,0.2-0.1c0.1,0,0.2,0,0.2,0.1c0,0,0,0,0-0.1c-0.1,0-0.1-0.1-0.2-0.2c-0.1-0.1-0.2-0.3-0.2-0.3s0.2,0.1,0.3,0.2
					C22.6,0.9,22.6,1,22.6,1c0,0,0,0,0.1,0c0,0-0.1-0.1-0.1-0.2c0-0.1,0.1-0.2,0.1-0.2s0.1,0.1,0.1,0.2c0,0.1,0,0.2-0.1,0.2
					c0,0,0,0,0.1,0c0-0.1,0.1-0.1,0.2-0.2c0.1-0.1,0.3-0.2,0.3-0.2s-0.1,0.2-0.2,0.3C23,1,22.9,1,22.8,1.1c0,0,0,0,0,0.1
					c0,0,0.1-0.1,0.2-0.1c0.1,0,0.2,0.1,0.2,0.1s-0.1,0.1-0.2,0.1c-0.1,0-0.2,0-0.2-0.1c0,0,0,0,0,0.1C22.9,1.3,23,1.3,23,1.5
					c0.2,0,0.3,0.2,0.3,0.2S23.1,1.6,23,1.5z"/>
				<g>
					<path class="st1" d="M22.9-0.2c0,0.1-0.1,0.2-0.2,0.2c-0.1,0-0.2-0.1-0.2-0.2c0-0.1,0.1-0.2,0.2-0.2
						C22.8-0.4,22.9-0.3,22.9-0.2z"/>
					<path class="st1" d="M22.9,2.5c0,0.1-0.1,0.2-0.2,0.2c-0.1,0-0.2-0.1-0.2-0.2c0-0.1,0.1-0.2,0.2-0.2
						C22.8,2.3,22.9,2.4,22.9,2.5z"/>
				</g>
				<g>
					<path class="st1" d="M24.1,1.3c-0.1,0-0.2-0.1-0.2-0.2C23.9,1.1,24,1,24.1,1c0.1,0,0.2,0.1,0.2,0.2C24.3,1.3,24.2,1.3,24.1,1.3
						z"/>
					<path class="st1" d="M21.4,1.3c-0.1,0-0.2-0.1-0.2-0.2c0-0.1,0.1-0.2,0.2-0.2c0.1,0,0.2,0.1,0.2,0.2
						C21.5,1.3,21.5,1.3,21.4,1.3z"/>
				</g>
			</g>
			<g>
				<path class="st3" d="M24.8,7.8c0-0.4-0.3-0.7-0.7-0.9c0.1-0.3,0.2-0.5,0.1-0.5c-0.1-0.1-0.3,0-0.5,0.1c-0.2-0.4-0.5-0.7-0.9-0.7
					c-0.4,0-0.7,0.3-0.9,0.7c-0.3-0.1-0.5-0.2-0.5-0.1c-0.1,0.1,0,0.3,0.1,0.5c-0.4,0.2-0.7,0.5-0.7,0.9c0,0.4,0.3,0.7,0.7,0.9
					c-0.1,0.3-0.2,0.5-0.1,0.5c0.1,0.1,0.3,0,0.5-0.1c0.2,0.4,0.5,0.7,0.9,0.7c0.4,0,0.7-0.3,0.9-0.7c0.3,0.1,0.5,0.2,0.5,0.1
					c0.1-0.1,0-0.3-0.1-0.5C24.5,8.5,24.8,8.2,24.8,7.8z M23.9,8.6C24,8.8,24,9,24,9.1c-0.1,0.1-0.2,0-0.5-0.1
					c-0.2,0.4-0.5,0.6-0.8,0.6c-0.3,0-0.6-0.2-0.8-0.6c-0.2,0.1-0.4,0.2-0.5,0.1c-0.1-0.1,0-0.2,0.1-0.5C21.2,8.4,21,8.1,21,7.8
					c0-0.3,0.2-0.6,0.6-0.8c-0.1-0.2-0.2-0.4-0.1-0.5c0.1-0.1,0.2,0,0.5,0.1c0.2-0.4,0.5-0.6,0.8-0.6c0.3,0,0.6,0.2,0.8,0.6
					c0.2-0.1,0.4-0.2,0.5-0.1c0.1,0.1,0,0.2-0.1,0.5c0.4,0.2,0.6,0.5,0.6,0.8C24.5,8.1,24.3,8.4,23.9,8.6z"/>
				<path class="st2" d="M23,8.4c0,0,0.1,0.1,0.1,0.1c0.2,0.2,0.5,0.2,0.5,0.2s0-0.3-0.2-0.5c0,0-0.1-0.1-0.1-0.1
					c0.2,0,0.4-0.1,0.4-0.1s-0.1-0.2-0.4-0.3c0,0,0,0,0,0c0,0,0,0,0,0c0.2-0.1,0.4-0.3,0.4-0.3s-0.2-0.1-0.4-0.1
					c0,0,0.1-0.1,0.1-0.1c0.2-0.2,0.2-0.5,0.2-0.5s-0.3,0-0.5,0.2c0,0-0.1,0.1-0.1,0.1C23.1,7,23,6.8,23,6.8S22.8,7,22.7,7.2
					c0,0,0,0,0,0c0,0,0,0,0,0c-0.1-0.2-0.3-0.4-0.3-0.4S22.4,7,22.4,7.2c0,0-0.1-0.1-0.1-0.1c-0.2-0.2-0.5-0.2-0.5-0.2
					s0,0.3,0.2,0.5c0,0,0.1,0.1,0.1,0.1c-0.2,0-0.4,0.1-0.4,0.1s0.1,0.2,0.4,0.3c0,0,0,0,0,0c0,0,0,0,0,0c-0.2,0.1-0.4,0.3-0.4,0.3
					s0.2,0.1,0.4,0.1c0,0-0.1,0.1-0.1,0.1c-0.2,0.2-0.2,0.5-0.2,0.5s0.3,0,0.5-0.2c0,0,0.1-0.1,0.1-0.1c0,0.2,0.1,0.4,0.1,0.4
					s0.2-0.1,0.3-0.4c0,0,0,0,0,0c0,0,0,0,0,0C22.8,8.7,23,8.8,23,8.8S23.1,8.6,23,8.4z M23,8.2C22.9,8.1,22.8,8,22.8,8
					c0,0,0,0-0.1,0c0,0,0.1,0.1,0.1,0.2c0,0.1-0.1,0.2-0.1,0.2s-0.1-0.1-0.1-0.2c0-0.1,0-0.2,0.1-0.2c0,0,0,0-0.1,0
					c0,0.1-0.1,0.1-0.2,0.2c-0.1,0.1-0.3,0.2-0.3,0.2s0.1-0.2,0.2-0.3C22.5,8,22.6,8,22.6,7.9c0,0,0,0,0-0.1c0,0-0.1,0.1-0.2,0.1
					c-0.1,0-0.2-0.1-0.2-0.1s0.1-0.1,0.2-0.1c0.1,0,0.2,0,0.2,0.1c0,0,0,0,0-0.1c-0.1,0-0.1-0.1-0.2-0.2c-0.1-0.1-0.2-0.3-0.2-0.3
					s0.2,0.1,0.3,0.2c0.1,0.1,0.1,0.2,0.2,0.2c0,0,0,0,0.1,0c0,0-0.1-0.1-0.1-0.2c0-0.1,0.1-0.2,0.1-0.2s0.1,0.1,0.1,0.2
					c0,0.1,0,0.2-0.1,0.2c0,0,0,0,0.1,0c0-0.1,0.1-0.1,0.2-0.2c0.1-0.1,0.3-0.2,0.3-0.2s-0.1,0.2-0.2,0.3c-0.1,0.1-0.2,0.1-0.2,0.2
					c0,0,0,0,0,0.1c0,0,0.1-0.1,0.2-0.1c0.1,0,0.2,0.1,0.2,0.1s-0.1,0.1-0.2,0.1c-0.1,0-0.2,0-0.2-0.1c0,0,0,0,0,0.1
					C22.9,8,23,8,23,8.2c0.2,0,0.3,0.2,0.3,0.2S23.1,8.3,23,8.2z"/>
				<g>
					<path class="st1" d="M22.9,6.5c0,0.1-0.1,0.2-0.2,0.2c-0.1,0-0.2-0.1-0.2-0.2c0-0.1,0.1-0.2,0.2-0.2
						C22.8,6.3,22.9,6.4,22.9,6.5z"/>
					<path class="st1" d="M22.9,9.2c0,0.1-0.1,0.2-0.2,0.2c-0.1,0-0.2-0.1-0.2-0.2c0-0.1,0.1-0.2,0.2-0.2C22.8,9,22.9,9.1,22.9,9.2z
						"/>
				</g>
				<g>
					<path class="st1" d="M24.1,8c-0.1,0-0.2-0.1-0.2-0.2c0-0.1,0.1-0.2,0.2-0.2c0.1,0,0.2,0.1,0.2,0.2C24.3,7.9,24.2,8,24.1,8z"/>
					<path class="st1" d="M21.4,8c-0.1,0-0.2-0.1-0.2-0.2c0-0.1,0.1-0.2,0.2-0.2c0.1,0,0.2,0.1,0.2,0.2C21.5,7.9,21.5,8,21.4,8z"/>
				</g>
			</g>
		</g>
		<g class="st8">
			<g>
				<g>
					<path class="st4" d="M26.1,2.2c-0.5,0-0.9-0.2-0.9-0.5c0-0.3,0.4-0.5,0.9-0.5c0.5,0,0.9,0.2,0.9,0.5C27,2,26.6,2.2,26.1,2.2z
						 M26.1,1.4c-0.4,0-0.8,0.2-0.8,0.3c0,0.1,0.3,0.3,0.8,0.3c0.4,0,0.8-0.2,0.8-0.3C26.8,1.6,26.5,1.4,26.1,1.4z"/>
				</g>
				<g>
					<path class="st4" d="M26.1,7.8c-0.5,0-0.9-0.2-0.9-0.5c0-0.3,0.4-0.5,0.9-0.5C26.6,6.8,27,7,27,7.3C27,7.6,26.6,7.8,26.1,7.8z
						 M26.1,7c-0.4,0-0.8,0.2-0.8,0.3c0,0.1,0.3,0.3,0.8,0.3c0.4,0,0.8-0.2,0.8-0.3C26.8,7.2,26.5,7,26.1,7z"/>
				</g>
			</g>
			<g>
				<g>
					<path class="st4" d="M28.4,4.5c0-0.5,0.2-0.9,0.5-0.9c0.3,0,0.5,0.4,0.5,0.9c0,0.5-0.2,0.9-0.5,0.9C28.6,5.4,28.4,5,28.4,4.5z
						 M29.2,4.5c0-0.4-0.2-0.8-0.3-0.8c-0.1,0-0.3,0.3-0.3,0.8c0,0.4,0.2,0.8,0.3,0.8C29,5.3,29.2,4.9,29.2,4.5z"/>
				</g>
				<g>
					<path class="st4" d="M22.8,4.5c0-0.5,0.2-0.9,0.5-0.9c0.3,0,0.5,0.4,0.5,0.9c0,0.5-0.2,0.9-0.5,0.9C23,5.4,22.8,5,22.8,4.5z
						 M23.6,4.5c0-0.4-0.2-0.8-0.3-0.8c-0.1,0-0.3,0.3-0.3,0.8c0,0.4,0.2,0.8,0.3,0.8C23.4,5.3,23.6,4.9,23.6,4.5z"/>
				</g>
			</g>
		</g>
	</g>
</g>
<g>
	<rect x="47.8" y="1.7" class="st1" width="5.6" height="5.6"/>
	<g>
		<defs>
			<rect id="SVGID_7_" x="47.8" y="1.7" width="5.6" height="5.6"/>
		</defs>
		<clipPath id="SVGID_8_">
			<use xlink:href="#SVGID_7_"  style="overflow:visible;"/>
		</clipPath>
		<g class="st9">
			<g>
				<path class="st5" d="M52.7,4.5c0-0.1-0.7-0.2-1.7-0.2c0.3-0.4,0.6-0.7,0.5-0.7c0,0-0.3,0.2-0.7,0.5c0-1-0.1-1.7-0.2-1.7
					c-0.1,0-0.2,0.7-0.2,1.7c-0.4-0.3-0.7-0.6-0.7-0.5c0,0,0.2,0.3,0.5,0.7c-1,0-1.7,0.1-1.7,0.2c0,0.1,0.7,0.2,1.7,0.2
					c-0.3,0.4-0.6,0.7-0.5,0.7c0,0,0.3-0.2,0.7-0.5c0,1,0.1,1.7,0.2,1.7c0.1,0,0.2-0.7,0.2-1.7c0.4,0.3,0.7,0.6,0.7,0.5
					c0,0-0.2-0.3-0.5-0.7C51.9,4.7,52.7,4.6,52.7,4.5z M50.6,4.7c-0.1,0-0.2-0.1-0.2-0.2c0-0.1,0.1-0.2,0.2-0.2
					c0.1,0,0.2,0.1,0.2,0.2C50.8,4.6,50.7,4.7,50.6,4.7z"/>
			</g>
			<g>
				<g>
					<path class="st10" d="M47.8,0.2c-0.8,0-1.5,0.7-1.5,1.5c0,0.8,0.7,1.5,1.5,1.5c0.8,0,1.5-0.7,1.5-1.5
						C49.3,0.9,48.6,0.2,47.8,0.2z M47.8,3c-0.7,0-1.3-0.6-1.3-1.3c0-0.7,0.6-1.3,1.3-1.3c0.7,0,1.3,0.6,1.3,1.3
						C49.1,2.4,48.5,3,47.8,3z"/>
				</g>
				<g>
					<path class="st4" d="M47.8,0.2c-0.8,0-1.5,0.7-1.5,1.5c0,0.8,0.7,1.5,1.5,1.5c0.8,0,1.5-0.7,1.5-1.5
						C49.3,0.9,48.6,0.2,47.8,0.2z M47.8,3c-0.7,0-1.3-0.6-1.3-1.3c0-0.7,0.6-1.3,1.3-1.3c0.7,0,1.3,0.6,1.3,1.3
						C49.1,2.4,48.5,3,47.8,3z"/>
				</g>
				<g>
					<g>
						<path class="st3" d="M47.9,1c0,0.3-0.1,0.5-0.2,0.5c-0.1,0-0.2-0.2-0.2-0.5s0.1-0.5,0.2-0.5C47.9,0.5,47.9,0.7,47.9,1z"/>
					</g>
					<g>
						<path class="st3" d="M47.9,2.4c0,0.3-0.1,0.5-0.2,0.5c-0.1,0-0.2-0.2-0.2-0.5c0-0.3,0.1-0.5,0.2-0.5
							C47.9,1.9,47.9,2.2,47.9,2.4z"/>
					</g>
				</g>
				<g>
					<g>
						<path class="st3" d="M48.5,1.9c-0.3,0-0.5-0.1-0.5-0.2c0-0.1,0.2-0.2,0.5-0.2c0.3,0,0.5,0.1,0.5,0.2C49,1.8,48.7,1.9,48.5,1.9
							z"/>
					</g>
					<g>
						<path class="st3" d="M47,1.9c-0.3,0-0.5-0.1-0.5-0.2c0-0.1,0.2-0.2,0.5-0.2c0.3,0,0.5,0.1,0.5,0.2C47.5,1.8,47.3,1.9,47,1.9z"
							/>
					</g>
				</g>
				<g>
					<path class="st2" d="M47.9,1.7c0,0.1-0.1,0.1-0.1,0.1c-0.1,0-0.1-0.1-0.1-0.1c0-0.1,0.1-0.1,0.1-0.1
						C47.8,1.6,47.9,1.6,47.9,1.7z"/>
				</g>
				<g>
					<g>
						<path class="st2" d="M47.3,1.3c0,0-0.1,0-0.2,0c0,0,0-0.1,0-0.2c0,0,0.1,0,0.2,0C47.4,1.1,47.4,1.2,47.3,1.3z"/>
					</g>
					<g>
						<path class="st2" d="M48.4,2.3c0,0-0.1,0-0.2,0c0,0,0-0.1,0-0.2c0,0,0.1,0,0.2,0C48.4,2.2,48.4,2.2,48.4,2.3z"/>
					</g>
				</g>
				<g>
					<g>
						<path class="st2" d="M48.2,1.3c0,0,0-0.1,0-0.2c0,0,0.1,0,0.2,0c0,0,0,0.1,0,0.2C48.3,1.3,48.2,1.3,48.2,1.3z"/>
					</g>
					<g>
						<path class="st2" d="M47.2,2.3c0,0,0-0.1,0-0.2c0,0,0.1,0,0.2,0c0,0,0,0.1,0,0.2C47.3,2.3,47.2,2.3,47.2,2.3z"/>
					</g>
				</g>
			</g>
			<g>
				<g>
					<path class="st10" d="M53.4,5.8c-0.8,0-1.5,0.7-1.5,1.5c0,0.8,0.7,1.5,1.5,1.5c0.8,0,1.5-0.7,1.5-1.5
						C54.9,6.5,54.2,5.8,53.4,5.8z M53.4,8.6c-0.7,0-1.3-0.6-1.3-1.3c0-0.7,0.6-1.3,1.3-1.3c0.7,0,1.3,0.6,1.3,1.3
						C54.7,8,54.1,8.6,53.4,8.6z"/>
				</g>
				<g>
					<g>
						<path class="st10" d="M53.6,6.6c0,0.3-0.1,0.5-0.2,0.5c-0.1,0-0.2-0.2-0.2-0.5c0-0.3,0.1-0.5,0.2-0.5
							C53.5,6.1,53.6,6.3,53.6,6.6z"/>
					</g>
					<g>
						<path class="st10" d="M53.6,8c0,0.3-0.1,0.5-0.2,0.5c-0.1,0-0.2-0.2-0.2-0.5c0-0.3,0.1-0.5,0.2-0.5C53.5,7.5,53.6,7.8,53.6,8z
							"/>
					</g>
				</g>
				<g>
					<g>
						<path class="st10" d="M54.1,7.5c-0.3,0-0.5-0.1-0.5-0.2c0-0.1,0.2-0.2,0.5-0.2c0.3,0,0.5,0.1,0.5,0.2
							C54.6,7.4,54.4,7.5,54.1,7.5z"/>
					</g>
					<g>
						<path class="st10" d="M52.7,7.5c-0.3,0-0.5-0.1-0.5-0.2c0-0.1,0.2-0.2,0.5-0.2c0.3,0,0.5,0.1,0.5,0.2
							C53.1,7.4,52.9,7.5,52.7,7.5z"/>
					</g>
				</g>
				<g>
					<path class="st10" d="M53.5,7.3c0,0.1-0.1,0.1-0.1,0.1c-0.1,0-0.1-0.1-0.1-0.1c0-0.1,0.1-0.1,0.1-0.1
						C53.4,7.2,53.5,7.2,53.5,7.3z"/>
				</g>
				<g>
					<g>
						<path class="st10" d="M53,6.9c0,0-0.1,0-0.2,0c0,0,0-0.1,0-0.2c0,0,0.1,0,0.2,0C53,6.7,53,6.8,53,6.9z"/>
					</g>
					<g>
						<path class="st10" d="M54,7.9c0,0.1-0.1,0.1-0.2,0c0,0,0-0.1,0-0.2c0,0,0.1,0,0.2,0C54,7.8,54,7.8,54,7.9z"/>
					</g>
				</g>
				<g>
					<g>
						<path class="st10" d="M53.8,6.9c0,0,0-0.1,0-0.2c0,0,0.1,0,0.2,0c0,0,0,0.1,0,0.2C53.9,6.9,53.8,6.9,53.8,6.9z"/>
					</g>
					<g>
						<path class="st10" d="M52.8,7.9c0,0,0-0.1,0-0.2c0,0,0.1,0,0.2,0c0,0,0,0.1,0,0.2C52.9,7.9,52.8,7.9,52.8,7.9z"/>
					</g>
				</g>
			</g>
			<g>
				<g>
					<path class="st4" d="M47.8,5.8c-0.8,0-1.5,0.7-1.5,1.5c0,0.8,0.7,1.5,1.5,1.5c0.8,0,1.5-0.7,1.5-1.5
						C49.3,6.5,48.6,5.8,47.8,5.8z M47.8,8.6c-0.7,0-1.3-0.6-1.3-1.3C46.4,6.6,47,6,47.8,6c0.7,0,1.3,0.6,1.3,1.3
						C49.1,8,48.5,8.6,47.8,8.6z"/>
				</g>
				<g>
					<g>
						<path class="st3" d="M47.9,6.6c0,0.3-0.1,0.5-0.2,0.5c-0.1,0-0.2-0.2-0.2-0.5c0-0.3,0.1-0.5,0.2-0.5
							C47.9,6.1,47.9,6.3,47.9,6.6z"/>
					</g>
					<g>
						<path class="st3" d="M47.9,8c0,0.3-0.1,0.5-0.2,0.5c-0.1,0-0.2-0.2-0.2-0.5c0-0.3,0.1-0.5,0.2-0.5C47.9,7.5,47.9,7.8,47.9,8z"
							/>
					</g>
				</g>
				<g>
					<g>
						<path class="st3" d="M48.5,7.5c-0.3,0-0.5-0.1-0.5-0.2c0-0.1,0.2-0.2,0.5-0.2c0.3,0,0.5,0.1,0.5,0.2C49,7.4,48.7,7.5,48.5,7.5
							z"/>
					</g>
					<g>
						<path class="st3" d="M47,7.5c-0.3,0-0.5-0.1-0.5-0.2c0-0.1,0.2-0.2,0.5-0.2c0.3,0,0.5,0.1,0.5,0.2C47.5,7.4,47.3,7.5,47,7.5z"
							/>
					</g>
				</g>
				<g>
					<path class="st2" d="M47.9,7.3c0,0.1-0.1,0.1-0.1,0.1c-0.1,0-0.1-0.1-0.1-0.1c0-0.1,0.1-0.1,0.1-0.1
						C47.8,7.2,47.9,7.2,47.9,7.3z"/>
				</g>
				<g>
					<g>
						<path class="st2" d="M47.3,6.9c0,0-0.1,0-0.2,0c0,0,0-0.1,0-0.2c0,0,0.1,0,0.2,0C47.4,6.7,47.4,6.8,47.3,6.9z"/>
					</g>
					<g>
						<path class="st2" d="M48.4,7.9c0,0.1-0.1,0.1-0.2,0c0,0,0-0.1,0-0.2c0,0,0.1,0,0.2,0C48.4,7.8,48.4,7.8,48.4,7.9z"/>
					</g>
				</g>
				<g>
					<g>
						<path class="st2" d="M48.2,6.9c0,0,0-0.1,0-0.2c0,0,0.1,0,0.2,0c0,0,0,0.1,0,0.2C48.3,6.9,48.2,6.9,48.2,6.9z"/>
					</g>
					<g>
						<path class="st2" d="M47.2,7.9c0,0,0-0.1,0-0.2c0,0,0.1,0,0.2,0c0,0,0,0.1,0,0.2C47.3,7.9,47.2,7.9,47.2,7.9z"/>
					</g>
				</g>
			</g>
			<g>
				<g>
					<g>
						<path class="st4" d="M53.4,0.2c-0.8,0-1.5,0.7-1.5,1.5c0,0.8,0.7,1.5,1.5,1.5c0.8,0,1.5-0.7,1.5-1.5
							C54.9,0.9,54.2,0.2,53.4,0.2z M53.4,3C52.6,3,52,2.4,52,1.7c0-0.7,0.6-1.3,1.3-1.3c0.7,0,1.3,0.6,1.3,1.3
							C54.7,2.4,54.1,3,53.4,3z"/>
					</g>
					<g>
						<g>
							<path class="st3" d="M53.5,1c0,0.3-0.1,0.5-0.2,0.5c-0.1,0-0.2-0.2-0.2-0.5s0.1-0.5,0.2-0.5C53.5,0.5,53.5,0.7,53.5,1z"/>
						</g>
						<g>
							<path class="st3" d="M53.5,2.4c0,0.3-0.1,0.5-0.2,0.5c-0.1,0-0.2-0.2-0.2-0.5c0-0.3,0.1-0.5,0.2-0.5
								C53.5,1.9,53.5,2.2,53.5,2.4z"/>
						</g>
					</g>
					<g>
						<g>
							<path class="st3" d="M54.1,1.9c-0.3,0-0.5-0.1-0.5-0.2c0-0.1,0.2-0.2,0.5-0.2c0.3,0,0.5,0.1,0.5,0.2
								C54.6,1.8,54.3,1.9,54.1,1.9z"/>
						</g>
						<g>
							<path class="st3" d="M52.6,1.9c-0.3,0-0.5-0.1-0.5-0.2c0-0.1,0.2-0.2,0.5-0.2c0.3,0,0.5,0.1,0.5,0.2
								C53.1,1.8,52.9,1.9,52.6,1.9z"/>
						</g>
					</g>
					<g>
						<path class="st2" d="M53.5,1.7c0,0.1-0.1,0.1-0.1,0.1c-0.1,0-0.1-0.1-0.1-0.1c0-0.1,0.1-0.1,0.1-0.1
							C53.4,1.6,53.5,1.6,53.5,1.7z"/>
					</g>
					<g>
						<g>
							<path class="st2" d="M52.9,1.3c0,0-0.1,0-0.2,0c0,0,0-0.1,0-0.2c0,0,0.1,0,0.2,0C53,1.1,53,1.2,52.9,1.3z"/>
						</g>
						<g>
							<path class="st2" d="M54,2.3c0,0-0.1,0-0.2,0c0,0,0-0.1,0-0.2c0,0,0.1,0,0.2,0C54,2.2,54,2.2,54,2.3z"/>
						</g>
					</g>
					<g>
						<g>
							<path class="st2" d="M53.8,1.3c0,0,0-0.1,0-0.2c0,0,0.1,0,0.2,0c0,0,0,0.1,0,0.2C53.9,1.3,53.8,1.3,53.8,1.3z"/>
						</g>
						<g>
							<path class="st2" d="M52.8,2.3c0,0,0-0.1,0-0.2c0,0,0.1,0,0.2,0c0,0,0,0.1,0,0.2C52.9,2.3,52.8,2.3,52.8,2.3z"/>
						</g>
					</g>
				</g>
				<g>
					<path class="st2" d="M47.8,3.8c-1.2,0-2.1-0.9-2.1-2.1c0-1.2,0.9-2.1,2.1-2.1c1.2,0,2.1,0.9,2.1,2.1
						C49.9,2.9,48.9,3.8,47.8,3.8z M47.8-0.2c-1.1,0-1.9,0.9-1.9,1.9c0,1.1,0.9,1.9,1.9,1.9c1.1,0,1.9-0.9,1.9-1.9
						C49.7,0.6,48.8-0.2,47.8-0.2z"/>
				</g>
				<g>
					<path class="st2" d="M53.4,3.8c-1.2,0-2.1-0.9-2.1-2.1c0-1.2,0.9-2.1,2.1-2.1c1.2,0,2.1,0.9,2.1,2.1
						C55.5,2.9,54.5,3.8,53.4,3.8z M53.4-0.2c-1.1,0-1.9,0.9-1.9,1.9c0,1.1,0.9,1.9,1.9,1.9c1.1,0,1.9-0.9,1.9-1.9
						C55.3,0.6,54.4-0.2,53.4-0.2z"/>
				</g>
			</g>
			<g>
				<g>
					<g>
						<path class="st4" d="M53.4,5.8c-0.8,0-1.5,0.7-1.5,1.5c0,0.8,0.7,1.5,1.5,1.5c0.8,0,1.5-0.7,1.5-1.5
							C54.9,6.5,54.2,5.8,53.4,5.8z M53.4,8.6C52.6,8.6,52,8,52,7.3C52,6.6,52.6,6,53.4,6c0.7,0,1.3,0.6,1.3,1.3
							C54.7,8,54.1,8.6,53.4,8.6z"/>
					</g>
					<g>
						<g>
							<path class="st3" d="M53.5,6.6c0,0.3-0.1,0.5-0.2,0.5c-0.1,0-0.2-0.2-0.2-0.5c0-0.3,0.1-0.5,0.2-0.5
								C53.5,6.1,53.5,6.3,53.5,6.6z"/>
						</g>
						<g>
							<path class="st3" d="M53.5,8c0,0.3-0.1,0.5-0.2,0.5c-0.1,0-0.2-0.2-0.2-0.5c0-0.3,0.1-0.5,0.2-0.5C53.5,7.5,53.5,7.8,53.5,8z
								"/>
						</g>
					</g>
					<g>
						<g>
							<path class="st3" d="M54.1,7.5c-0.3,0-0.5-0.1-0.5-0.2c0-0.1,0.2-0.2,0.5-0.2c0.3,0,0.5,0.1,0.5,0.2
								C54.6,7.4,54.3,7.5,54.1,7.5z"/>
						</g>
						<g>
							<path class="st3" d="M52.6,7.5c-0.3,0-0.5-0.1-0.5-0.2c0-0.1,0.2-0.2,0.5-0.2c0.3,0,0.5,0.1,0.5,0.2
								C53.1,7.4,52.9,7.5,52.6,7.5z"/>
						</g>
					</g>
					<g>
						<path class="st10" d="M53.5,7.3c0,0.1-0.1,0.1-0.1,0.1c-0.1,0-0.1-0.1-0.1-0.1c0-0.1,0.1-0.1,0.1-0.1
							C53.4,7.2,53.5,7.2,53.5,7.3z"/>
					</g>
					<g>
						<g>
							<path class="st2" d="M52.9,6.9c0,0-0.1,0-0.2,0c0,0,0-0.1,0-0.2c0,0,0.1,0,0.2,0C53,6.7,53,6.8,52.9,6.9z"/>
						</g>
						<g>
							<path class="st2" d="M54,7.9c0,0.1-0.1,0.1-0.2,0c0,0,0-0.1,0-0.2c0,0,0.1,0,0.2,0C54,7.8,54,7.8,54,7.9z"/>
						</g>
					</g>
					<g>
						<g>
							<path class="st2" d="M53.8,6.9c0,0,0-0.1,0-0.2c0,0,0.1,0,0.2,0c0,0,0,0.1,0,0.2C53.9,6.9,53.8,6.9,53.8,6.9z"/>
						</g>
						<g>
							<path class="st2" d="M52.8,7.9c0,0,0-0.1,0-0.2c0,0,0.1,0,0.2,0c0,0,0,0.1,0,0.2C52.9,7.9,52.8,7.9,52.8,7.9z"/>
						</g>
					</g>
				</g>
				<g>
					<path class="st2" d="M47.8,9.4c-1.2,0-2.1-0.9-2.1-2.1c0-1.2,0.9-2.1,2.1-2.1c1.2,0,2.1,0.9,2.1,2.1
						C49.9,8.5,48.9,9.4,47.8,9.4z M47.8,5.4c-1.1,0-1.9,0.9-1.9,1.9c0,1.1,0.9,1.9,1.9,1.9c1.1,0,1.9-0.9,1.9-1.9
						C49.7,6.2,48.8,5.4,47.8,5.4z"/>
				</g>
				<g>
					<path class="st2" d="M53.4,9.4c-1.2,0-2.1-0.9-2.1-2.1c0-1.2,0.9-2.1,2.1-2.1c1.2,0,2.1,0.9,2.1,2.1
						C55.5,8.5,54.5,9.4,53.4,9.4z M53.4,5.4c-1.1,0-1.9,0.9-1.9,1.9c0,1.1,0.9,1.9,1.9,1.9c1.1,0,1.9-0.9,1.9-1.9
						C55.3,6.2,54.4,5.4,53.4,5.4z"/>
				</g>
			</g>
		</g>
	</g>
</g>
<g>
	<rect x="29.8" y="33.8" class="st1" width="5.6" height="5.6"/>
	<g>
		<g>
			<g>
				<g>
					<g>
						<g>
							<path class="st2" d="M33.2,35.6c0,0.3-0.2,0.6-0.2,0.6s-0.2-0.3-0.2-0.6c0-0.3,0.2-0.6,0.2-0.6S33.2,35.3,33.2,35.6z"/>
						</g>
						<g>
							<path class="st2" d="M33.6,36c-0.3,0-0.6,0.2-0.6,0.2s0.3,0.2,0.6,0.2c0.3,0,0.6-0.2,0.6-0.2S34,36,33.6,36z"/>
						</g>
					</g>
					<g>
						<g>
							<path class="st2" d="M32,37.6c0-0.3,0.2-0.6,0.2-0.6s0.2,0.3,0.2,0.6c0,0.3-0.2,0.6-0.2,0.6S32,38,32,37.6z"/>
						</g>
						<g>
							<path class="st2" d="M31.6,37.3c0.3,0,0.6-0.2,0.6-0.2s-0.3-0.2-0.6-0.2C31.2,36.8,31,37,31,37S31.2,37.3,31.6,37.3z"/>
						</g>
					</g>
				</g>
				<g>
					<g>
						<path class="st2" d="M33.6,37.3C33.3,37.3,33,37,33,37s0.3-0.2,0.6-0.2c0.3,0,0.6,0.2,0.6,0.2S34,37.3,33.6,37.3z"/>
					</g>
					<g>
						<path class="st2" d="M33.2,37.6c0-0.3-0.2-0.6-0.2-0.6s-0.2,0.3-0.2,0.6c0,0.3,0.2,0.6,0.2,0.6S33.2,38,33.2,37.6z"/>
					</g>
				</g>
				<g>
					<g>
						<path class="st2" d="M31.6,36c0.3,0,0.6,0.2,0.6,0.2s-0.3,0.2-0.6,0.2c-0.3,0-0.6-0.2-0.6-0.2S31.2,36,31.6,36z"/>
					</g>
					<g>
						<path class="st2" d="M32,35.6c0,0.3,0.2,0.6,0.2,0.6s0.2-0.3,0.2-0.6c0-0.3-0.2-0.6-0.2-0.6S32,35.3,32,35.6z"/>
					</g>
				</g>
			</g>
			<path class="st3" d="M32.8,36.9c-0.1,0.1-0.3,0.1-0.5,0c-0.1-0.1-0.1-0.3,0-0.5c0.1-0.1,0.3-0.1,0.5,0
				C32.9,36.5,32.9,36.7,32.8,36.9z"/>
			<g>
				<g>
					<g>
						<path class="st4" d="M34.5,35.3c0,0-0.1-0.1-0.1-0.1c0,0,0.1-0.1,0.1-0.1c0.2-0.2,0.2-0.5,0.2-0.5s-0.3-0.1-0.5,0.2
							c0,0-0.1,0.1-0.1,0.1c0,0-0.1-0.1-0.1-0.1c-0.2-0.2-0.5-0.2-0.5-0.2s-0.1,0.3,0.2,0.5c0,0,0.1,0.1,0.1,0.1
							c0,0-0.1,0.1-0.1,0.1c-0.2,0.2-0.2,0.5-0.2,0.5s0.3,0.1,0.5-0.2c0,0,0.1-0.1,0.1-0.1c0,0,0.1,0.1,0.1,0.1
							c0.2,0.2,0.5,0.2,0.5,0.2S34.7,35.5,34.5,35.3z M33.9,35.3c-0.1-0.1-0.1-0.2,0-0.2c0.1-0.1,0.2-0.1,0.2,0
							c0.1,0.1,0.1,0.2,0,0.2C34.1,35.4,34,35.4,33.9,35.3z"/>
					</g>
				</g>
				<g>
					<g>
						<path class="st4" d="M31.6,38.1c0,0-0.1-0.1-0.1-0.1c0,0,0.1-0.1,0.1-0.1c0.2-0.2,0.2-0.5,0.2-0.5s-0.3-0.1-0.5,0.2
							c0,0-0.1,0.1-0.1,0.1c0,0-0.1-0.1-0.1-0.1c-0.2-0.2-0.5-0.2-0.5-0.2s-0.1,0.3,0.2,0.5c0,0,0.1,0.1,0.1,0.1
							c0,0-0.1,0.1-0.1,0.1c-0.2,0.2-0.2,0.5-0.2,0.5s0.3,0.1,0.5-0.2c0,0,0.1-0.1,0.1-0.1c0,0,0.1,0.1,0.1,0.1
							c0.2,0.2,0.5,0.2,0.5,0.2S31.8,38.4,31.6,38.1z M31.1,38.2c-0.1-0.1-0.1-0.2,0-0.2c0.1-0.1,0.2-0.1,0.2,0
							c0.1,0.1,0.1,0.2,0,0.2C31.2,38.2,31.1,38.2,31.1,38.2z"/>
					</g>
				</g>
			</g>
			<g>
				<g>
					<g>
						<path class="st4" d="M34,38.5c0,0,0.1-0.1,0.1-0.1c0,0,0.1,0.1,0.1,0.1c0.2,0.2,0.5,0.2,0.5,0.2s0.1-0.3-0.2-0.5
							c0,0-0.1-0.1-0.1-0.1c0,0,0.1-0.1,0.1-0.1c0.2-0.2,0.2-0.5,0.2-0.5s-0.3-0.1-0.5,0.2c0,0-0.1,0.1-0.1,0.1c0,0-0.1-0.1-0.1-0.1
							c-0.2-0.2-0.5-0.2-0.5-0.2s-0.1,0.3,0.2,0.5c0,0,0.1,0.1,0.1,0.1c0,0-0.1,0.1-0.1,0.1c-0.2,0.2-0.2,0.5-0.2,0.5
							S33.7,38.7,34,38.5z M33.9,37.9c0.1-0.1,0.2-0.1,0.2,0c0.1,0.1,0.1,0.2,0,0.2c-0.1,0.1-0.2,0.1-0.2,0
							C33.9,38.1,33.9,38,33.9,37.9z"/>
					</g>
				</g>
				<g>
					<g>
						<path class="st4" d="M31.1,35.6c0,0,0.1-0.1,0.1-0.1c0,0,0.1,0.1,0.1,0.1c0.2,0.2,0.5,0.2,0.5,0.2s0.1-0.3-0.2-0.5
							c0,0-0.1-0.1-0.1-0.1c0,0,0.1-0.1,0.1-0.1c0.2-0.2,0.2-0.5,0.2-0.5s-0.3-0.1-0.5,0.2c0,0-0.1,0.1-0.1,0.1c0,0-0.1-0.1-0.1-0.1
							c-0.2-0.2-0.5-0.2-0.5-0.2s-0.1,0.3,0.2,0.5c0,0,0.1,0.1,0.1,0.1c0,0-0.1,0.1-0.1,0.1c-0.2,0.2-0.2,0.5-0.2,0.5
							S30.8,35.8,31.1,35.6z M31.1,35.1c0.1-0.1,0.2-0.1,0.2,0c0.1,0.1,0.1,0.2,0,0.2c-0.1,0.1-0.2,0.1-0.2,0
							C31,35.2,31,35.1,31.1,35.1z"/>
					</g>
				</g>
			</g>
		</g>
	</g>
	<g>
		<path class="st3" d="M35.3,39.3H30V34h5.3V39.3z M30.2,39h4.9v-4.9h-4.9V39z"/>
	</g>
</g>
<g>
	<g>
		<rect x="42" y="33.8" class="st1" width="5.6" height="5.6"/>
	</g>
	<g>
		<path class="st2" d="M45.9,37c0.1,0,0.2,0,0.3,0c0.5,0,0.9-0.4,0.9-0.4s-0.4-0.4-0.9-0.4c-0.1,0-0.2,0-0.3,0
			c0.3-0.2,0.4-0.5,0.4-0.5s-0.4-0.1-0.7,0.1c0,0,0,0,0,0c0,0,0,0,0,0c0.2-0.3,0.1-0.7,0.1-0.7s-0.3,0.1-0.5,0.4c0-0.1,0-0.2,0-0.3
			c0-0.5-0.4-0.9-0.4-0.9s-0.4,0.4-0.4,0.9c0,0.1,0,0.2,0,0.3c-0.2-0.3-0.5-0.4-0.5-0.4s-0.1,0.4,0.1,0.7c0,0,0,0,0,0c0,0,0,0,0,0
			c-0.3-0.2-0.7-0.1-0.7-0.1s0.1,0.3,0.4,0.5c-0.1,0-0.2,0-0.3,0c-0.5,0-0.9,0.4-0.9,0.4S43,37,43.5,37c0.1,0,0.2,0,0.3,0
			c-0.3,0.2-0.4,0.5-0.4,0.5s0.4,0.1,0.7-0.1c0,0,0,0,0,0c0,0,0,0,0,0c-0.2,0.3-0.1,0.7-0.1,0.7s0.3-0.1,0.5-0.4c0,0.1,0,0.2,0,0.3
			c0,0.5,0.4,0.9,0.4,0.9s0.4-0.4,0.4-0.9c0-0.1,0-0.2,0-0.3c0.2,0.3,0.5,0.4,0.5,0.4s0.1-0.4-0.1-0.7c0,0,0,0,0,0c0,0,0,0,0,0
			c0.3,0.2,0.7,0.1,0.7,0.1S46.2,37.2,45.9,37z M44.8,37c0,0-0.1,0.1-0.2,0.3c0-0.2,0-0.4,0-0.4s-0.1,0-0.2,0.1
			c0.1-0.1,0.1-0.2,0.1-0.2s-0.2,0-0.4,0c0.2-0.1,0.2-0.2,0.2-0.2s-0.1-0.1-0.2-0.2c0.2,0,0.4,0,0.4,0s0-0.1-0.1-0.2
			c0.1,0.1,0.2,0.1,0.2,0.1s0-0.2,0-0.4c0.1,0.2,0.2,0.3,0.2,0.3s0.1-0.1,0.2-0.3c0,0.2,0,0.4,0,0.4s0.1,0,0.2-0.1
			c-0.1,0.1-0.1,0.2-0.1,0.2s0.2,0,0.4,0c-0.2,0.1-0.2,0.2-0.2,0.2s0.1,0.1,0.2,0.2c-0.2,0-0.4,0-0.4,0s0,0.1,0.1,0.2
			c-0.1-0.1-0.2-0.1-0.2-0.1s0,0.2,0,0.4C44.9,37.1,44.8,37,44.8,37z"/>
		<g>
			<path class="st4" d="M43.8,34.2c-0.1,0.1-0.2,0.2-0.3,0.3c0-0.1-0.1-0.2-0.2-0.2c-0.1,0-0.1,0.1-0.2,0.2c-0.1-0.1-0.3-0.1-0.4,0
				c-0.1,0.1-0.1,0.3,0,0.4c-0.1,0-0.2,0.1-0.2,0.2c0,0.1,0.1,0.2,0.2,0.2c-0.1,0.1-0.2,0.2-0.3,0.3c-0.1,0.1,0,0.2,0.1,0.1
				c0.2-0.1,0.3-0.2,0.5-0.3c0.2,0,0.4,0,0.6,0c0-0.2,0-0.4,0-0.6c0-0.2,0.1-0.4,0.3-0.5C43.9,34.2,43.8,34.2,43.8,34.2z"/>
			<path class="st4" d="M45.9,39c0.1-0.1,0.2-0.2,0.3-0.3c0,0.1,0.1,0.2,0.2,0.2c0.1,0,0.1-0.1,0.2-0.2c0.1,0.1,0.3,0.1,0.4,0
				c0.1-0.1,0.1-0.3,0-0.4c0.1,0,0.2-0.1,0.2-0.2c0-0.1-0.1-0.2-0.2-0.2c0.1-0.1,0.2-0.2,0.3-0.3c0.1-0.1,0-0.2-0.1-0.1
				c-0.2,0.1-0.3,0.2-0.5,0.3c-0.2,0-0.4,0-0.6,0c0,0.2,0,0.4,0,0.6c0,0.2-0.1,0.4-0.3,0.5C45.7,39,45.8,39,45.9,39z"/>
		</g>
		<g>
			<path class="st3" d="M47.2,35.5c-0.1-0.1-0.2-0.2-0.3-0.3c0.1,0,0.2-0.1,0.2-0.2c0-0.1-0.1-0.1-0.2-0.2c0.1-0.1,0.1-0.3,0-0.4
				c-0.1-0.1-0.3-0.1-0.4,0c0-0.1-0.1-0.2-0.2-0.2c-0.1,0-0.2,0.1-0.2,0.2c-0.1-0.1-0.2-0.2-0.3-0.3c-0.1-0.1-0.2,0-0.1,0.1
				c0.1,0.2,0.2,0.3,0.3,0.5c0,0.2,0,0.4,0,0.6c0.2,0,0.4,0,0.6,0c0.2,0,0.4,0.1,0.5,0.3C47.2,35.7,47.3,35.6,47.2,35.5z"/>
			<path class="st3" d="M42.4,37.7c0.1,0.1,0.2,0.2,0.3,0.3c-0.1,0-0.2,0.1-0.2,0.2c0,0.1,0.1,0.1,0.2,0.2c-0.1,0.1-0.1,0.3,0,0.4
				c0.1,0.1,0.3,0.1,0.4,0c0,0.1,0.1,0.2,0.2,0.2c0.1,0,0.2-0.1,0.2-0.2c0.1,0.1,0.2,0.2,0.3,0.3c0.1,0.1,0.2,0,0.1-0.1
				c-0.1-0.2-0.2-0.3-0.3-0.5c0-0.2,0-0.4,0-0.6c-0.2,0-0.4,0-0.6,0c-0.2,0-0.4-0.1-0.5-0.3C42.5,37.5,42.4,37.6,42.4,37.7z"/>
		</g>
	</g>
</g>
<g>
	<rect x="48.2" y="33.8" class="st1" width="5.6" height="5.6"/>
	<g>
		<path class="st5" d="M48.2,36.8v0.4l2.2,2.2h0.4L48.2,36.8z M51.5,39.4l2.2-2.2v-0.4l-2.6,2.6H51.5z M51.5,33.8h-0.4l2.6,2.6V36
			L51.5,33.8z M50.4,33.8L48.2,36v0.4l2.6-2.6H50.4z"/>
	</g>
	<g>
		<path class="st4" d="M53.3,39h-4.8v-4.8h4.8V39z M48.8,38.7h4.2v-4.2h-4.2V38.7z"/>
	</g>
	<g>
		<defs>
			<rect id="SVGID_9_" x="48.2" y="33.8" width="5.6" height="5.6"/>
		</defs>
		<clipPath id="SVGID_10_">
			<use xlink:href="#SVGID_9_"  style="overflow:visible;"/>
		</clipPath>
		<g class="st11">
			<g>
				<g>
					<path class="st3" d="M48.4,33.8c0,1-0.1,1.9-0.2,1.9c-0.1,0-0.2-0.8-0.2-1.9c0-1,0.1-1.9,0.2-1.9
						C48.3,31.9,48.4,32.8,48.4,33.8z"/>
					<path class="st3" d="M48.2,34c-1,0-1.9-0.1-1.9-0.2c0-0.1,0.8-0.2,1.9-0.2c1,0,1.9,0.1,1.9,0.2C50,33.9,49.2,34,48.2,34z"/>
				</g>
				<g>
					<path class="st3" d="M48.3,34c-0.7,0.7-1.4,1.2-1.5,1.2c-0.1-0.1,0.4-0.7,1.2-1.5c0.7-0.7,1.4-1.2,1.5-1.2
						C49.5,32.6,49,33.2,48.3,34z"/>
					<path class="st3" d="M48,34c-0.7-0.7-1.2-1.4-1.2-1.5c0.1-0.1,0.7,0.4,1.5,1.2c0.7,0.7,1.2,1.4,1.2,1.5
						C49.4,35.2,48.7,34.7,48,34z"/>
				</g>
			</g>
			<g>
				<g>
					<path class="st3" d="M54,33.8c0,1-0.1,1.9-0.2,1.9c-0.1,0-0.2-0.8-0.2-1.9c0-1,0.1-1.9,0.2-1.9C53.9,31.9,54,32.8,54,33.8z"/>
					<path class="st3" d="M53.7,34c-1,0-1.9-0.1-1.9-0.2c0-0.1,0.8-0.2,1.9-0.2c1,0,1.9,0.1,1.9,0.2C55.6,33.9,54.8,34,53.7,34z"/>
				</g>
				<g>
					<path class="st3" d="M53.9,34c-0.7,0.7-1.4,1.2-1.5,1.2c-0.1-0.1,0.4-0.7,1.2-1.5c0.7-0.7,1.4-1.2,1.5-1.2
						C55.1,32.6,54.6,33.2,53.9,34z"/>
					<path class="st3" d="M53.6,34c-0.7-0.7-1.2-1.4-1.2-1.5c0.1-0.1,0.7,0.4,1.5,1.2c0.7,0.7,1.2,1.4,1.2,1.5
						C55,35.2,54.3,34.7,53.6,34z"/>
				</g>
			</g>
		</g>
		<g class="st11">
			<g>
				<g>
					<path class="st3" d="M48.4,39.4c0,1-0.1,1.9-0.2,1.9c-0.1,0-0.2-0.8-0.2-1.9c0-1,0.1-1.9,0.2-1.9
						C48.3,37.5,48.4,38.4,48.4,39.4z"/>
					<path class="st3" d="M48.2,39.6c-1,0-1.9-0.1-1.9-0.2c0-0.1,0.8-0.2,1.9-0.2c1,0,1.9,0.1,1.9,0.2C50,39.5,49.2,39.6,48.2,39.6z
						"/>
				</g>
				<g>
					<path class="st3" d="M48.3,39.6c-0.7,0.7-1.4,1.2-1.5,1.2c-0.1-0.1,0.4-0.7,1.2-1.5c0.7-0.7,1.4-1.2,1.5-1.2
						C49.5,38.2,49,38.8,48.3,39.6z"/>
					<path class="st3" d="M48,39.6c-0.7-0.7-1.2-1.4-1.2-1.5c0.1-0.1,0.7,0.4,1.5,1.2c0.7,0.7,1.2,1.4,1.2,1.5
						C49.4,40.8,48.7,40.3,48,39.6z"/>
				</g>
			</g>
			<g>
				<g>
					<path class="st3" d="M54,39.4c0,1-0.1,1.9-0.2,1.9c-0.1,0-0.2-0.8-0.2-1.9c0-1,0.1-1.9,0.2-1.9C53.9,37.5,54,38.4,54,39.4z"/>
					<path class="st3" d="M53.7,39.6c-1,0-1.9-0.1-1.9-0.2c0-0.1,0.8-0.2,1.9-0.2c1,0,1.9,0.1,1.9,0.2
						C55.6,39.5,54.8,39.6,53.7,39.6z"/>
				</g>
				<g>
					<path class="st3" d="M53.9,39.6c-0.7,0.7-1.4,1.2-1.5,1.2c-0.1-0.1,0.4-0.7,1.2-1.5c0.7-0.7,1.4-1.2,1.5-1.2
						C55.1,38.2,54.6,38.8,53.9,39.6z"/>
					<path class="st3" d="M53.6,39.6c-0.7-0.7-1.2-1.4-1.2-1.5c0.1-0.1,0.7,0.4,1.5,1.2c0.7,0.7,1.2,1.4,1.2,1.5
						C55,40.8,54.3,40.3,53.6,39.6z"/>
				</g>
			</g>
		</g>
	</g>
	<g>
		<path class="st3" d="M52.3,36.6c0-0.1-0.3-0.1-0.6-0.1c-0.1,0-0.3,0-0.4,0c0.1,0,0.2-0.1,0.3-0.2c0.3-0.2,0.5-0.4,0.5-0.4
			c0-0.1-0.3,0-0.6,0.2c-0.1,0.1-0.2,0.1-0.3,0.2c0.1-0.1,0.1-0.2,0.2-0.3c0.2-0.3,0.3-0.6,0.2-0.6c-0.1,0-0.2,0.2-0.4,0.5
			c-0.1,0.1-0.1,0.2-0.2,0.3c0-0.1,0-0.2,0-0.4c0-0.3-0.1-0.6-0.1-0.6c-0.1,0-0.1,0.3-0.1,0.6c0,0.1,0,0.3,0,0.4
			c0-0.1-0.1-0.2-0.2-0.3c-0.2-0.3-0.4-0.5-0.4-0.5c-0.1,0,0,0.3,0.2,0.6c0.1,0.1,0.1,0.2,0.2,0.3c-0.1-0.1-0.2-0.1-0.3-0.2
			c-0.3-0.2-0.6-0.3-0.6-0.2c0,0.1,0.2,0.2,0.5,0.4c0.1,0.1,0.2,0.1,0.3,0.2c-0.1,0-0.2,0-0.4,0c-0.3,0-0.6,0.1-0.6,0.1
			c0,0.1,0.3,0.1,0.6,0.1c0.1,0,0.3,0,0.4,0c-0.1,0-0.2,0.1-0.3,0.2c-0.3,0.2-0.5,0.4-0.5,0.4c0,0.1,0.3,0,0.6-0.2
			c0.1-0.1,0.2-0.1,0.3-0.2c-0.1,0.1-0.1,0.2-0.2,0.3c-0.2,0.3-0.3,0.6-0.2,0.6c0.1,0,0.2-0.2,0.4-0.5c0.1-0.1,0.1-0.2,0.2-0.3
			c0,0.1,0,0.2,0,0.4c0,0.3,0.1,0.6,0.1,0.6c0.1,0,0.1-0.3,0.1-0.6c0-0.1,0-0.3,0-0.4c0,0.1,0.1,0.2,0.2,0.3
			c0.2,0.3,0.4,0.5,0.4,0.5c0.1,0,0-0.3-0.2-0.6c-0.1-0.1-0.1-0.2-0.2-0.3c0.1,0.1,0.2,0.1,0.3,0.2c0.3,0.2,0.6,0.3,0.6,0.2
			c0-0.1-0.2-0.2-0.5-0.4c-0.1-0.1-0.2-0.1-0.3-0.2c0.1,0,0.2,0,0.4,0C52,36.7,52.3,36.7,52.3,36.6z M51,36.9
			c-0.1,0-0.3-0.1-0.3-0.3c0-0.1,0.1-0.3,0.3-0.3c0.1,0,0.3,0.1,0.3,0.3C51.2,36.7,51.1,36.9,51,36.9z"/>
		<path class="st2" d="M51,36.5c-0.1,0-0.2,0.1-0.2,0.2c0,0.1,0.1,0.2,0.2,0.2c0.1,0,0.2-0.1,0.2-0.2C51.1,36.5,51,36.5,51,36.5z"/>
		<path class="st2" d="M51,35c-0.9,0-1.6,0.7-1.6,1.6c0,0.9,0.7,1.6,1.6,1.6c0.9,0,1.6-0.7,1.6-1.6C52.6,35.7,51.8,35,51,35z M51,38
			c-0.8,0-1.4-0.6-1.4-1.4c0-0.8,0.6-1.4,1.4-1.4c0.8,0,1.4,0.6,1.4,1.4C52.3,37.4,51.7,38,51,38z"/>
	</g>
</g>
<g>
	<rect x="54.3" y="33.8" class="st1" width="5.6" height="5.6"/>
	<g>
		<defs>
			<rect id="SVGID_11_" x="54.3" y="33.8" width="5.6" height="5.6"/>
		</defs>
		<clipPath id="SVGID_12_">
			<use xlink:href="#SVGID_11_"  style="overflow:visible;"/>
		</clipPath>
		<g class="st12">
			<g>
				
					<rect x="56.7" y="36.2" transform="matrix(0.707 -0.7072 0.7072 0.707 -9.1662 51.1058)" class="st5" width="0.7" height="0.7"/>
				<g>
					
						<rect x="56.7" y="39" transform="matrix(0.7072 -0.707 0.707 0.7072 -11.1493 51.9069)" class="st4" width="0.7" height="0.7"/>
				</g>
				<rect x="59.5" y="39" transform="matrix(0.707 -0.7072 0.7072 0.707 -10.3257 53.9056)" class="st5" width="0.7" height="0.7"/>
				
					<rect x="59.5" y="33.4" transform="matrix(0.7071 -0.7071 0.7071 0.7071 -6.3681 52.259)" class="st5" width="0.7" height="0.7"/>
				<g>
					
						<rect x="59.5" y="36.2" transform="matrix(0.7068 -0.7074 0.7074 0.7068 -8.3415 53.1045)" class="st4" width="0.7" height="0.7"/>
				</g>
				<g>
					
						<rect x="53.9" y="36.2" transform="matrix(0.7069 -0.7073 0.7073 0.7069 -9.9841 49.1379)" class="st4" width="0.7" height="0.7"/>
				</g>
				<rect x="53.9" y="33.4" transform="matrix(0.7072 -0.707 0.707 0.7072 -8.0094 48.294)" class="st5" width="0.7" height="0.7"/>
				
					<rect x="53.9" y="39" transform="matrix(0.7071 -0.7071 0.7071 0.7071 -11.9669 49.9399)" class="st5" width="0.7" height="0.7"/>
				<g>
					
						<rect x="56.7" y="33.4" transform="matrix(0.7073 -0.7069 0.7069 0.7073 -7.1927 50.2616)" class="st4" width="0.7" height="0.7"/>
				</g>
			</g>
		</g>
	</g>
	<g>
		<g>
			<g>
				<g>
					<g>
						<path class="st2" d="M56.7,35.2c0,0-0.2-0.1-0.5-0.1c-0.1,0-0.2,0-0.3,0c0.1,0,0.2-0.1,0.3-0.1c0.2-0.1,0.4-0.3,0.3-0.3
							c0,0-0.2,0-0.4,0.2C56,34.9,56,35,55.9,35c0-0.1,0.1-0.1,0.1-0.2c0.1-0.2,0.2-0.4,0.2-0.4c0,0-0.2,0.1-0.3,0.4
							c0,0.1-0.1,0.2-0.1,0.2c0-0.1,0-0.2,0-0.3c0-0.3,0-0.5-0.1-0.5c0,0-0.1,0.2-0.1,0.5c0,0.1,0,0.2,0,0.3c0-0.1-0.1-0.2-0.1-0.3
							c-0.1-0.2-0.3-0.4-0.3-0.3c0,0,0,0.2,0.2,0.4c0,0.1,0.1,0.1,0.1,0.2c-0.1,0-0.1-0.1-0.2-0.1c-0.2-0.1-0.4-0.2-0.4-0.2
							c0,0,0.1,0.2,0.4,0.3c0.1,0,0.2,0.1,0.2,0.1c-0.1,0-0.2,0-0.3,0c-0.3,0-0.5,0-0.5,0.1c0,0,0.2,0.1,0.5,0.1c0.1,0,0.2,0,0.3,0
							c-0.1,0-0.2,0.1-0.3,0.1c-0.2,0.1-0.4,0.3-0.3,0.3c0,0,0.2,0,0.4-0.2c0.1,0,0.1-0.1,0.2-0.1c0,0.1-0.1,0.1-0.1,0.2
							c-0.1,0.2-0.2,0.4-0.2,0.4c0,0,0.2-0.1,0.3-0.4c0-0.1,0.1-0.2,0.1-0.2c0,0.1,0,0.2,0,0.3c0,0.3,0,0.5,0.1,0.5
							c0,0,0.1-0.2,0.1-0.5c0-0.1,0-0.2,0-0.3c0,0.1,0.1,0.2,0.1,0.3c0.1,0.2,0.3,0.4,0.3,0.3c0,0,0-0.2-0.2-0.4
							c0-0.1-0.1-0.1-0.1-0.2c0.1,0,0.1,0.1,0.2,0.1c0.2,0.1,0.4,0.2,0.4,0.2c0,0-0.1-0.2-0.4-0.3c-0.1,0-0.2-0.1-0.2-0.1
							c0.1,0,0.2,0,0.3,0C56.5,35.3,56.7,35.3,56.7,35.2z M55.7,35.4c-0.1,0-0.2-0.1-0.2-0.2c0-0.1,0.1-0.2,0.2-0.2
							c0.1,0,0.2,0.1,0.2,0.2C55.9,35.3,55.8,35.4,55.7,35.4z"/>
					</g>
				</g>
				<path class="st3" d="M55.7,35.1c-0.1,0-0.1,0.1-0.1,0.1c0,0.1,0.1,0.1,0.1,0.1c0.1,0,0.1-0.1,0.1-0.1
					C55.8,35.2,55.8,35.1,55.7,35.1z"/>
				<path class="st3" d="M55.7,34c-0.7,0-1.2,0.5-1.2,1.2c0,0.7,0.5,1.2,1.2,1.2c0.7,0,1.2-0.5,1.2-1.2C56.9,34.6,56.4,34,55.7,34z
					 M55.7,36.2c-0.6,0-1-0.5-1-1c0-0.6,0.5-1,1-1c0.6,0,1,0.5,1,1C56.7,35.8,56.3,36.2,55.7,36.2z"/>
			</g>
			<g>
				<g>
					<g>
						<path class="st2" d="M59.5,35.2c0,0-0.2-0.1-0.5-0.1c-0.1,0-0.2,0-0.3,0c0.1,0,0.2-0.1,0.3-0.1c0.2-0.1,0.4-0.3,0.3-0.3
							c0,0-0.2,0-0.4,0.2c-0.1,0-0.1,0.1-0.2,0.1c0-0.1,0.1-0.1,0.1-0.2c0.1-0.2,0.2-0.4,0.2-0.4c0,0-0.2,0.1-0.3,0.4
							c-0.1,0.1-0.1,0.2-0.1,0.2c0-0.1,0-0.2,0-0.3c0-0.3,0-0.5-0.1-0.5c0,0-0.1,0.2-0.1,0.5c0,0.1,0,0.2,0,0.3
							c0-0.1-0.1-0.2-0.1-0.3c-0.1-0.2-0.3-0.4-0.3-0.3c0,0,0,0.2,0.2,0.4c0,0.1,0.1,0.1,0.1,0.2c-0.1,0-0.1-0.1-0.2-0.1
							c-0.2-0.1-0.4-0.2-0.4-0.2c0,0,0.1,0.2,0.4,0.3c0.1,0,0.2,0.1,0.2,0.1c-0.1,0-0.2,0-0.3,0c-0.3,0-0.5,0-0.5,0.1
							c0,0,0.2,0.1,0.5,0.1c0.1,0,0.2,0,0.3,0c-0.1,0-0.2,0.1-0.3,0.1c-0.2,0.1-0.4,0.3-0.3,0.3c0,0,0.2,0,0.4-0.2
							c0.1,0,0.1-0.1,0.2-0.1c0,0.1-0.1,0.1-0.1,0.2C58,35.8,58,36,58,36.1c0,0,0.2-0.1,0.3-0.4c0.1-0.1,0.1-0.2,0.1-0.2
							c0,0.1,0,0.2,0,0.3c0,0.3,0,0.5,0.1,0.5c0,0,0.1-0.2,0.1-0.5c0-0.1,0-0.2,0-0.3c0,0.1,0.1,0.2,0.1,0.3
							c0.1,0.2,0.3,0.4,0.3,0.3c0,0,0-0.2-0.2-0.4c0-0.1-0.1-0.1-0.1-0.2c0.1,0,0.1,0.1,0.2,0.1c0.2,0.1,0.4,0.2,0.4,0.2
							c0,0-0.1-0.2-0.4-0.3c-0.1,0-0.2-0.1-0.2-0.1c0.1,0,0.2,0,0.3,0C59.3,35.3,59.5,35.3,59.5,35.2z M58.5,35.4
							c-0.1,0-0.2-0.1-0.2-0.2c0-0.1,0.1-0.2,0.2-0.2c0.1,0,0.2,0.1,0.2,0.2C58.7,35.3,58.6,35.4,58.5,35.4z"/>
					</g>
				</g>
				<path class="st3" d="M58.5,35.1c-0.1,0-0.1,0.1-0.1,0.1c0,0.1,0.1,0.1,0.1,0.1c0.1,0,0.1-0.1,0.1-0.1
					C58.6,35.2,58.6,35.1,58.5,35.1z"/>
				<path class="st3" d="M58.5,34c-0.7,0-1.2,0.5-1.2,1.2c0,0.7,0.5,1.2,1.2,1.2c0.7,0,1.2-0.5,1.2-1.2C59.7,34.6,59.2,34,58.5,34z
					 M58.5,36.2c-0.6,0-1-0.5-1-1c0-0.6,0.5-1,1-1s1,0.5,1,1C59.5,35.8,59.1,36.2,58.5,36.2z"/>
			</g>
			<g>
				<g>
					<g>
						<path class="st2" d="M59.5,38c0,0-0.2-0.1-0.5-0.1c-0.1,0-0.2,0-0.3,0c0.1,0,0.2-0.1,0.3-0.1c0.2-0.1,0.4-0.3,0.3-0.3
							c0,0-0.2,0-0.4,0.2c-0.1,0-0.1,0.1-0.2,0.1c0-0.1,0.1-0.1,0.1-0.2c0.1-0.2,0.2-0.4,0.2-0.4c0,0-0.2,0.1-0.3,0.4
							c-0.1,0.1-0.1,0.2-0.1,0.2c0-0.1,0-0.2,0-0.3c0-0.3,0-0.5-0.1-0.5c0,0-0.1,0.2-0.1,0.5c0,0.1,0,0.2,0,0.3
							c0-0.1-0.1-0.2-0.1-0.3c-0.1-0.2-0.3-0.4-0.3-0.3c0,0,0,0.2,0.2,0.4c0,0.1,0.1,0.1,0.1,0.2c-0.1,0-0.1-0.1-0.2-0.1
							c-0.2-0.1-0.4-0.2-0.4-0.2c0,0,0.1,0.2,0.4,0.3c0.1,0,0.2,0.1,0.2,0.1c-0.1,0-0.2,0-0.3,0c-0.3,0-0.5,0-0.5,0.1
							c0,0,0.2,0.1,0.5,0.1c0.1,0,0.2,0,0.3,0c-0.1,0-0.2,0.1-0.3,0.1c-0.2,0.1-0.4,0.3-0.3,0.3c0,0,0.2,0,0.4-0.2
							c0.1,0,0.1-0.1,0.2-0.1c0,0.1-0.1,0.1-0.1,0.2C58,38.6,58,38.8,58,38.9c0,0,0.2-0.1,0.3-0.4c0.1-0.1,0.1-0.2,0.1-0.2
							c0,0.1,0,0.2,0,0.3c0,0.3,0,0.5,0.1,0.5c0,0,0.1-0.2,0.1-0.5c0-0.1,0-0.2,0-0.3c0,0.1,0.1,0.2,0.1,0.3
							c0.1,0.2,0.3,0.4,0.3,0.3c0,0,0-0.2-0.2-0.4c0-0.1-0.1-0.1-0.1-0.2c0.1,0,0.1,0.1,0.2,0.1c0.2,0.1,0.4,0.2,0.4,0.2
							c0,0-0.1-0.2-0.4-0.3c-0.1-0.1-0.2-0.1-0.2-0.1c0.1,0,0.2,0,0.3,0C59.3,38.1,59.5,38.1,59.5,38z M58.5,38.2
							c-0.1,0-0.2-0.1-0.2-0.2c0-0.1,0.1-0.2,0.2-0.2c0.1,0,0.2,0.1,0.2,0.2C58.7,38.1,58.6,38.2,58.5,38.2z"/>
					</g>
				</g>
				<path class="st3" d="M58.5,37.9c-0.1,0-0.1,0.1-0.1,0.1c0,0.1,0.1,0.1,0.1,0.1c0.1,0,0.1-0.1,0.1-0.1
					C58.6,38,58.6,37.9,58.5,37.9z"/>
				<path class="st3" d="M58.5,36.8c-0.7,0-1.2,0.5-1.2,1.2c0,0.7,0.5,1.2,1.2,1.2c0.7,0,1.2-0.5,1.2-1.2
					C59.7,37.4,59.2,36.8,58.5,36.8z M58.5,39c-0.6,0-1-0.5-1-1c0-0.6,0.5-1,1-1s1,0.5,1,1C59.5,38.6,59.1,39,58.5,39z"/>
			</g>
			<g>
				<g>
					<g>
						<path class="st2" d="M56.7,38c0,0-0.2-0.1-0.5-0.1c-0.1,0-0.2,0-0.3,0c0.1,0,0.2-0.1,0.3-0.1c0.2-0.1,0.4-0.3,0.3-0.3
							c0,0-0.2,0-0.4,0.2c-0.1,0-0.1,0.1-0.2,0.1c0-0.1,0.1-0.1,0.1-0.2c0.1-0.2,0.2-0.4,0.2-0.4c0,0-0.2,0.1-0.3,0.4
							c0,0.1-0.1,0.2-0.1,0.2c0-0.1,0-0.2,0-0.3c0-0.3,0-0.5-0.1-0.5c0,0-0.1,0.2-0.1,0.5c0,0.1,0,0.2,0,0.3c0-0.1-0.1-0.2-0.1-0.3
							c-0.1-0.2-0.3-0.4-0.3-0.3c0,0,0,0.2,0.2,0.4c0,0.1,0.1,0.1,0.1,0.2c-0.1,0-0.1-0.1-0.2-0.1c-0.2-0.1-0.4-0.2-0.4-0.2
							c0,0,0.1,0.2,0.4,0.3c0.1,0,0.2,0.1,0.2,0.1c-0.1,0-0.2,0-0.3,0c-0.3,0-0.5,0-0.5,0.1c0,0,0.2,0.1,0.5,0.1c0.1,0,0.2,0,0.3,0
							c-0.1,0-0.2,0.1-0.3,0.1c-0.2,0.1-0.4,0.3-0.3,0.3c0,0,0.2,0,0.4-0.2c0.1,0,0.1-0.1,0.2-0.1c0,0.1-0.1,0.1-0.1,0.2
							c-0.1,0.2-0.2,0.4-0.2,0.4c0,0,0.2-0.1,0.3-0.4c0-0.1,0.1-0.2,0.1-0.2c0,0.1,0,0.2,0,0.3c0,0.3,0,0.5,0.1,0.5
							c0,0,0.1-0.2,0.1-0.5c0-0.1,0-0.2,0-0.3c0,0.1,0.1,0.2,0.1,0.3c0.1,0.2,0.3,0.4,0.3,0.3c0,0,0-0.2-0.2-0.4
							c0-0.1-0.1-0.1-0.1-0.2c0.1,0,0.1,0.1,0.2,0.1c0.2,0.1,0.4,0.2,0.4,0.2c0,0-0.1-0.2-0.4-0.3c-0.1-0.1-0.2-0.1-0.2-0.1
							c0.1,0,0.2,0,0.3,0C56.5,38.1,56.7,38.1,56.7,38z M55.7,38.2c-0.1,0-0.2-0.1-0.2-0.2c0-0.1,0.1-0.2,0.2-0.2
							c0.1,0,0.2,0.1,0.2,0.2C55.9,38.1,55.8,38.2,55.7,38.2z"/>
					</g>
				</g>
				<path class="st3" d="M55.7,37.9c-0.1,0-0.1,0.1-0.1,0.1c0,0.1,0.1,0.1,0.1,0.1c0.1,0,0.1-0.1,0.1-0.1
					C55.8,38,55.8,37.9,55.7,37.9z"/>
				<path class="st3" d="M55.7,36.8c-0.7,0-1.2,0.5-1.2,1.2c0,0.7,0.5,1.2,1.2,1.2c0.7,0,1.2-0.5,1.2-1.2
					C56.9,37.4,56.4,36.8,55.7,36.8z M55.7,39c-0.6,0-1-0.5-1-1c0-0.6,0.5-1,1-1c0.6,0,1,0.5,1,1C56.7,38.6,56.3,39,55.7,39z"/>
			</g>
		</g>
	</g>
</g>
<g>
	<rect x="35.9" y="33.8" class="st1" width="5.6" height="5.6"/>
	<g>
		<path class="st5" d="M40.8,36.6c0-0.4-0.3-0.7-0.7-0.9c0.1-0.3,0.2-0.5,0.1-0.5c-0.1-0.1-0.3,0-0.5,0.1c-0.2-0.4-0.5-0.7-0.9-0.7
			c-0.4,0-0.7,0.3-0.9,0.7c-0.3-0.1-0.5-0.2-0.5-0.1c-0.1,0.1,0,0.3,0.1,0.5c-0.4,0.2-0.7,0.5-0.7,0.9c0,0.4,0.3,0.7,0.7,0.9
			c-0.1,0.3-0.2,0.5-0.1,0.5c0.1,0.1,0.3,0,0.5-0.1c0.2,0.4,0.5,0.7,0.9,0.7c0.4,0,0.7-0.3,0.9-0.7c0.3,0.1,0.5,0.2,0.5,0.1
			c0.1-0.1,0-0.3-0.1-0.5C40.5,37.3,40.8,37,40.8,36.6z M39.9,37.4c0.1,0.2,0.2,0.4,0.1,0.5c-0.1,0.1-0.2,0-0.5-0.1
			c-0.2,0.4-0.5,0.6-0.8,0.6c-0.3,0-0.6-0.2-0.8-0.6c-0.2,0.1-0.4,0.2-0.5,0.1c-0.1-0.1,0-0.2,0.1-0.5c-0.4-0.2-0.6-0.5-0.6-0.8
			c0-0.3,0.2-0.6,0.6-0.8c-0.1-0.2-0.2-0.4-0.1-0.5c0.1-0.1,0.2,0,0.5,0.1c0.2-0.4,0.5-0.6,0.8-0.6c0.3,0,0.6,0.2,0.8,0.6
			c0.2-0.1,0.4-0.2,0.5-0.1c0.1,0.1,0,0.2-0.1,0.5c0.4,0.2,0.6,0.5,0.6,0.8C40.5,36.9,40.2,37.2,39.9,37.4z"/>
		<path class="st3" d="M39,37.2c0,0,0.1,0.1,0.1,0.1c0.2,0.2,0.6,0.2,0.6,0.2s0-0.3-0.2-0.6c0,0-0.1-0.1-0.1-0.1
			c0.2,0,0.4-0.1,0.4-0.1s-0.1-0.2-0.4-0.3c0,0,0,0,0,0c0,0,0,0,0,0c0.2-0.1,0.4-0.3,0.4-0.3s-0.2-0.1-0.4-0.1c0,0,0.1-0.1,0.1-0.1
			c0.2-0.2,0.2-0.6,0.2-0.6s-0.3,0-0.6,0.2c0,0-0.1,0.1-0.1,0.1c0-0.2-0.1-0.4-0.1-0.4s-0.2,0.1-0.3,0.4c0,0,0,0,0,0c0,0,0,0,0,0
			c-0.1-0.2-0.3-0.4-0.3-0.4s-0.1,0.2-0.1,0.4c0,0-0.1-0.1-0.1-0.1c-0.2-0.2-0.5-0.2-0.5-0.2s0,0.3,0.2,0.6c0,0,0.1,0.1,0.1,0.1
			c-0.2,0-0.4,0.1-0.4,0.1s0.1,0.2,0.4,0.3c0,0,0,0,0,0c0,0,0,0,0,0c-0.2,0.1-0.4,0.3-0.4,0.3s0.2,0.1,0.4,0.1c0,0-0.1,0.1-0.1,0.1
			c-0.2,0.2-0.2,0.6-0.2,0.6s0.3,0,0.5-0.2c0,0,0.1-0.1,0.1-0.1c0,0.2,0.1,0.4,0.1,0.4s0.2-0.1,0.3-0.4c0,0,0,0,0,0c0,0,0,0,0,0
			c0.1,0.2,0.3,0.4,0.3,0.4S39.1,37.4,39,37.2z M39,37c-0.1-0.1-0.1-0.2-0.2-0.2c0,0,0,0-0.1,0c0,0,0.1,0.1,0.1,0.2
			c0,0.1-0.1,0.2-0.1,0.2s-0.1-0.1-0.1-0.2c0-0.1,0-0.2,0.1-0.2c0,0,0,0-0.1,0c0,0.1-0.1,0.1-0.2,0.2c-0.1,0.1-0.3,0.2-0.3,0.2
			s0.1-0.2,0.2-0.3c0.1-0.1,0.2-0.1,0.2-0.2c0,0,0,0,0-0.1c0,0-0.1,0.1-0.2,0.1c-0.1,0-0.2-0.1-0.2-0.1s0.1-0.1,0.2-0.1
			c0.1,0,0.2,0,0.2,0.1c0,0,0,0,0-0.1c-0.1,0-0.1-0.1-0.2-0.2c-0.1-0.1-0.2-0.3-0.2-0.3s0.2,0.1,0.3,0.2c0.1,0.1,0.1,0.2,0.2,0.2
			c0,0,0,0,0.1,0c0,0-0.1-0.1-0.1-0.2c0-0.1,0.1-0.2,0.1-0.2s0.1,0.1,0.1,0.2c0,0.1,0,0.2-0.1,0.2c0,0,0,0,0.1,0
			c0-0.1,0.1-0.1,0.2-0.2c0.1-0.1,0.3-0.2,0.3-0.2s-0.1,0.2-0.2,0.3c-0.1,0.1-0.2,0.1-0.2,0.2c0,0,0,0,0,0.1c0,0,0.1-0.1,0.2-0.1
			c0.1,0,0.2,0.1,0.2,0.1s-0.1,0.1-0.2,0.1c-0.1,0-0.2,0-0.2-0.1c0,0,0,0,0,0.1C38.9,36.7,39,36.8,39,37c0.2,0,0.3,0.2,0.3,0.2
			S39.1,37.1,39,37z"/>
		<g>
			<path class="st2" d="M38.9,35.3c0,0.1-0.1,0.2-0.2,0.2c-0.1,0-0.2-0.1-0.2-0.2c0-0.1,0.1-0.2,0.2-0.2
				C38.8,35.1,38.9,35.2,38.9,35.3z"/>
			<path class="st2" d="M38.9,38c0,0.1-0.1,0.2-0.2,0.2c-0.1,0-0.2-0.1-0.2-0.2c0-0.1,0.1-0.2,0.2-0.2C38.8,37.8,38.9,37.9,38.9,38z
				"/>
		</g>
		<g>
			<path class="st2" d="M40.1,36.8c-0.1,0-0.2-0.1-0.2-0.2c0-0.1,0.1-0.2,0.2-0.2c0.1,0,0.2,0.1,0.2,0.2
				C40.3,36.7,40.2,36.8,40.1,36.8z"/>
			<path class="st2" d="M37.4,36.8c-0.1,0-0.2-0.1-0.2-0.2c0-0.1,0.1-0.2,0.2-0.2c0.1,0,0.2,0.1,0.2,0.2
				C37.5,36.7,37.5,36.8,37.4,36.8z"/>
		</g>
	</g>
	<g>
		<defs>
			<rect id="SVGID_13_" x="35.9" y="33.8" width="5.6" height="5.6"/>
		</defs>
		<clipPath id="SVGID_14_">
			<use xlink:href="#SVGID_13_"  style="overflow:visible;"/>
		</clipPath>
		<g class="st13">
			<g>
				<path class="st3" d="M44.1,33.3c0-0.4-0.3-0.7-0.7-0.9c0.1-0.3,0.2-0.5,0.1-0.5c-0.1-0.1-0.3,0-0.5,0.1
					c-0.2-0.4-0.5-0.7-0.9-0.7c-0.4,0-0.7,0.3-0.9,0.7c-0.3-0.1-0.5-0.2-0.5-0.1c-0.1,0.1,0,0.3,0.1,0.5c-0.4,0.2-0.7,0.5-0.7,0.9
					c0,0.4,0.3,0.7,0.7,0.9c-0.1,0.3-0.2,0.5-0.1,0.5c0.1,0.1,0.3,0,0.5-0.1c0.2,0.4,0.5,0.7,0.9,0.7c0.4,0,0.7-0.3,0.9-0.7
					c0.3,0.1,0.5,0.2,0.5,0.1c0.1-0.1,0-0.3-0.1-0.5C43.8,34,44.1,33.6,44.1,33.3z M43.2,34.1c0.1,0.2,0.2,0.4,0.1,0.5
					c-0.1,0.1-0.2,0-0.5-0.1c-0.2,0.4-0.5,0.6-0.8,0.6c-0.3,0-0.6-0.2-0.8-0.6c-0.2,0.1-0.4,0.2-0.5,0.1c-0.1-0.1,0-0.2,0.1-0.5
					c-0.4-0.2-0.6-0.5-0.6-0.8c0-0.3,0.2-0.6,0.6-0.8c-0.1-0.2-0.2-0.4-0.1-0.5c0.1-0.1,0.2,0,0.5,0.1c0.2-0.4,0.5-0.6,0.8-0.6
					c0.3,0,0.6,0.2,0.8,0.6c0.2-0.1,0.4-0.2,0.5-0.1c0.1,0.1,0,0.2-0.1,0.5c0.4,0.2,0.6,0.5,0.6,0.8C43.8,33.6,43.6,33.9,43.2,34.1z
					"/>
				<path class="st2" d="M42.4,33.9c0,0,0.1,0.1,0.1,0.1c0.2,0.2,0.6,0.2,0.6,0.2s0-0.3-0.2-0.5c0,0-0.1-0.1-0.1-0.1
					c0.2,0,0.4-0.1,0.4-0.1s-0.1-0.2-0.4-0.3c0,0,0,0,0,0c0,0,0,0,0,0c0.2-0.1,0.4-0.3,0.4-0.3s-0.2-0.1-0.4-0.1
					c0,0,0.1-0.1,0.1-0.1c0.2-0.2,0.2-0.5,0.2-0.5s-0.3,0-0.6,0.2c0,0-0.1,0.1-0.1,0.1c0-0.2-0.1-0.4-0.1-0.4s-0.2,0.1-0.3,0.4
					c0,0,0,0,0,0c0,0,0,0,0,0c-0.1-0.2-0.3-0.4-0.3-0.4s-0.1,0.2-0.1,0.4c0,0-0.1-0.1-0.1-0.1c-0.2-0.2-0.6-0.2-0.6-0.2
					s0,0.3,0.2,0.5c0,0,0.1,0.1,0.1,0.1c-0.2,0-0.4,0.1-0.4,0.1s0.1,0.2,0.4,0.3c0,0,0,0,0,0c0,0,0,0,0,0c-0.2,0.1-0.4,0.3-0.4,0.3
					s0.2,0.1,0.4,0.1c0,0-0.1,0.1-0.1,0.1c-0.2,0.2-0.2,0.5-0.2,0.5s0.3,0,0.6-0.2c0,0,0.1-0.1,0.1-0.1c0,0.2,0.1,0.4,0.1,0.4
					s0.2-0.1,0.3-0.4c0,0,0,0,0,0c0,0,0,0,0,0c0.1,0.2,0.3,0.4,0.3,0.4S42.4,34.1,42.4,33.9z M42.3,33.6c-0.1-0.1-0.1-0.2-0.2-0.2
					c0,0,0,0-0.1,0c0,0,0.1,0.1,0.1,0.2c0,0.1-0.1,0.2-0.1,0.2S42,33.8,42,33.6c0-0.1,0-0.2,0.1-0.2c0,0,0,0-0.1,0
					c0,0.1-0.1,0.1-0.2,0.2c-0.1,0.1-0.3,0.2-0.3,0.2s0.1-0.2,0.2-0.3c0.1-0.1,0.2-0.1,0.2-0.2c0,0,0,0,0-0.1c0,0-0.1,0.1-0.2,0.1
					c-0.1,0-0.2-0.1-0.2-0.1s0.1-0.1,0.2-0.1c0.1,0,0.2,0,0.2,0.1c0,0,0,0,0-0.1c-0.1,0-0.1-0.1-0.2-0.2c-0.1-0.1-0.2-0.3-0.2-0.3
					s0.2,0.1,0.3,0.2c0.1,0.1,0.1,0.2,0.2,0.2c0,0,0,0,0.1,0c0,0-0.1-0.1-0.1-0.2c0-0.1,0.1-0.2,0.1-0.2s0.1,0.1,0.1,0.2
					c0,0.1,0,0.2-0.1,0.2c0,0,0,0,0.1,0c0-0.1,0.1-0.1,0.2-0.2c0.1-0.1,0.3-0.2,0.3-0.2s-0.1,0.2-0.2,0.3c-0.1,0.1-0.2,0.1-0.2,0.2
					c0,0,0,0,0,0.1c0,0,0.1-0.1,0.2-0.1c0.1,0,0.2,0.1,0.2,0.1s-0.1,0.1-0.2,0.1c-0.1,0-0.2,0-0.2-0.1c0,0,0,0,0,0.1
					C42.2,33.4,42.3,33.5,42.3,33.6c0.2,0,0.3,0.2,0.3,0.2S42.4,33.8,42.3,33.6z"/>
				<g>
					<path class="st1" d="M42.2,31.9c0,0.1-0.1,0.2-0.2,0.2c-0.1,0-0.2-0.1-0.2-0.2c0-0.1,0.1-0.2,0.2-0.2
						C42.2,31.7,42.2,31.8,42.2,31.9z"/>
					<path class="st1" d="M42.2,34.6c0,0.1-0.1,0.2-0.2,0.2c-0.1,0-0.2-0.1-0.2-0.2c0-0.1,0.1-0.2,0.2-0.2
						C42.2,34.5,42.2,34.5,42.2,34.6z"/>
				</g>
				<g>
					<path class="st1" d="M43.4,33.5c-0.1,0-0.2-0.1-0.2-0.2c0-0.1,0.1-0.2,0.2-0.2c0.1,0,0.2,0.1,0.2,0.2
						C43.6,33.4,43.5,33.5,43.4,33.5z"/>
					<path class="st1" d="M40.7,33.5c-0.1,0-0.2-0.1-0.2-0.2c0-0.1,0.1-0.2,0.2-0.2c0.1,0,0.2,0.1,0.2,0.2
						C40.9,33.4,40.8,33.5,40.7,33.5z"/>
				</g>
			</g>
			<g>
				<path class="st3" d="M44.1,39.9c0-0.4-0.3-0.7-0.7-0.9c0.1-0.3,0.2-0.5,0.1-0.5c-0.1-0.1-0.3,0-0.5,0.1
					c-0.2-0.4-0.5-0.7-0.9-0.7c-0.4,0-0.7,0.3-0.9,0.7c-0.3-0.1-0.5-0.2-0.5-0.1c-0.1,0.1,0,0.3,0.1,0.5c-0.4,0.2-0.7,0.5-0.7,0.9
					c0,0.4,0.3,0.7,0.7,0.9c-0.1,0.3-0.2,0.5-0.1,0.5c0.1,0.1,0.3,0,0.5-0.1c0.2,0.4,0.5,0.7,0.9,0.7c0.4,0,0.7-0.3,0.9-0.7
					c0.3,0.1,0.5,0.2,0.5,0.1c0.1-0.1,0-0.3-0.1-0.5C43.8,40.6,44.1,40.3,44.1,39.9z M43.2,40.7c0.1,0.2,0.2,0.4,0.1,0.5
					c-0.1,0.1-0.2,0-0.5-0.1c-0.2,0.4-0.5,0.6-0.8,0.6s-0.6-0.2-0.8-0.6c-0.2,0.1-0.4,0.2-0.5,0.1c-0.1-0.1,0-0.2,0.1-0.5
					c-0.4-0.2-0.6-0.5-0.6-0.8c0-0.3,0.2-0.6,0.6-0.8c-0.1-0.2-0.2-0.4-0.1-0.5c0.1-0.1,0.2,0,0.5,0.1c0.2-0.4,0.5-0.6,0.8-0.6
					s0.6,0.2,0.8,0.6c0.2-0.1,0.4-0.2,0.5-0.1c0.1,0.1,0,0.2-0.1,0.5c0.4,0.2,0.6,0.5,0.6,0.8C43.8,40.3,43.6,40.5,43.2,40.7z"/>
				<path class="st2" d="M42.4,40.6c0,0,0.1,0.1,0.1,0.1c0.2,0.2,0.6,0.2,0.6,0.2s0-0.3-0.2-0.5c0,0-0.1-0.1-0.1-0.1
					c0.2,0,0.4-0.1,0.4-0.1S42.9,40,42.7,40c0,0,0,0,0,0c0,0,0,0,0,0c0.2-0.1,0.4-0.3,0.4-0.3s-0.2-0.1-0.4-0.1c0,0,0.1-0.1,0.1-0.1
					C43,39.3,43,39,43,39s-0.3,0-0.6,0.2c0,0-0.1,0.1-0.1,0.1c0-0.2-0.1-0.4-0.1-0.4s-0.2,0.1-0.3,0.4c0,0,0,0,0,0c0,0,0,0,0,0
					C42,39.1,41.8,39,41.8,39s-0.1,0.2-0.1,0.4c0,0-0.1-0.1-0.1-0.1C41.4,39,41.1,39,41.1,39s0,0.3,0.2,0.5c0,0,0.1,0.1,0.1,0.1
					c-0.2,0-0.4,0.1-0.4,0.1s0.1,0.2,0.4,0.3c0,0,0,0,0,0c0,0,0,0,0,0c-0.2,0.1-0.4,0.3-0.4,0.3s0.2,0.1,0.4,0.1
					c0,0-0.1,0.1-0.1,0.1c-0.2,0.2-0.2,0.5-0.2,0.5s0.3,0,0.6-0.2c0,0,0.1-0.1,0.1-0.1c0,0.2,0.1,0.4,0.1,0.4s0.2-0.1,0.3-0.4
					c0,0,0,0,0,0c0,0,0,0,0,0c0.1,0.2,0.3,0.4,0.3,0.4S42.4,40.8,42.4,40.6z M42.3,40.3c-0.1-0.1-0.1-0.2-0.2-0.2c0,0,0,0-0.1,0
					c0,0,0.1,0.1,0.1,0.2c0,0.1-0.1,0.2-0.1,0.2S42,40.4,42,40.3c0-0.1,0-0.2,0.1-0.2c0,0,0,0-0.1,0c0,0.1-0.1,0.1-0.2,0.2
					c-0.1,0.1-0.3,0.2-0.3,0.2s0.1-0.2,0.2-0.3c0.1-0.1,0.2-0.1,0.2-0.2c0,0,0,0,0-0.1c0,0-0.1,0.1-0.2,0.1c-0.1,0-0.2-0.1-0.2-0.1
					s0.1-0.1,0.2-0.1c0.1,0,0.2,0,0.2,0.1c0,0,0,0,0-0.1c-0.1,0-0.1-0.1-0.2-0.2c-0.1-0.1-0.2-0.3-0.2-0.3s0.2,0.1,0.3,0.2
					c0.1,0.1,0.1,0.2,0.2,0.2c0,0,0,0,0.1,0c0,0-0.1-0.1-0.1-0.2c0-0.1,0.1-0.2,0.1-0.2s0.1,0.1,0.1,0.2c0,0.1,0,0.2-0.1,0.2
					c0,0,0,0,0.1,0c0-0.1,0.1-0.1,0.2-0.2c0.1-0.1,0.3-0.2,0.3-0.2s-0.1,0.2-0.2,0.3c-0.1,0.1-0.2,0.1-0.2,0.2c0,0,0,0,0,0.1
					c0,0,0.1-0.1,0.2-0.1c0.1,0,0.2,0.1,0.2,0.1s-0.1,0.1-0.2,0.1c-0.1,0-0.2,0-0.2-0.1c0,0,0,0,0,0.1
					C42.2,40.1,42.3,40.1,42.3,40.3c0.2,0,0.3,0.2,0.3,0.2S42.4,40.4,42.3,40.3z"/>
				<g>
					<path class="st1" d="M42.2,38.6c0,0.1-0.1,0.2-0.2,0.2s-0.2-0.1-0.2-0.2c0-0.1,0.1-0.2,0.2-0.2S42.2,38.5,42.2,38.6z"/>
					<path class="st1" d="M42.2,41.3c0,0.1-0.1,0.2-0.2,0.2s-0.2-0.1-0.2-0.2c0-0.1,0.1-0.2,0.2-0.2S42.2,41.2,42.2,41.3z"/>
				</g>
				<g>
					<path class="st1" d="M43.4,40.1c-0.1,0-0.2-0.1-0.2-0.2c0-0.1,0.1-0.2,0.2-0.2c0.1,0,0.2,0.1,0.2,0.2
						C43.6,40,43.5,40.1,43.4,40.1z"/>
					<path class="st1" d="M40.7,40.1c-0.1,0-0.2-0.1-0.2-0.2c0-0.1,0.1-0.2,0.2-0.2c0.1,0,0.2,0.1,0.2,0.2
						C40.9,40,40.8,40.1,40.7,40.1z"/>
				</g>
			</g>
		</g>
		<g class="st13">
			<g>
				<path class="st3" d="M37.4,33.3c0-0.4-0.3-0.7-0.7-0.9c0.1-0.3,0.2-0.5,0.1-0.5c-0.1-0.1-0.3,0-0.5,0.1
					c-0.2-0.4-0.5-0.7-0.9-0.7c-0.4,0-0.7,0.3-0.9,0.7c-0.3-0.1-0.5-0.2-0.5-0.1c-0.1,0.1,0,0.3,0.1,0.5c-0.4,0.2-0.7,0.5-0.7,0.9
					c0,0.4,0.3,0.7,0.7,0.9c-0.1,0.3-0.2,0.5-0.1,0.5c0.1,0.1,0.3,0,0.5-0.1c0.2,0.4,0.5,0.7,0.9,0.7c0.4,0,0.7-0.3,0.9-0.7
					c0.3,0.1,0.5,0.2,0.5,0.1c0.1-0.1,0-0.3-0.1-0.5C37.2,34,37.4,33.6,37.4,33.3z M36.5,34.1c0.1,0.2,0.2,0.4,0.1,0.5
					c-0.1,0.1-0.2,0-0.5-0.1C36,34.8,35.7,35,35.4,35c-0.3,0-0.6-0.2-0.8-0.6c-0.2,0.1-0.4,0.2-0.5,0.1c-0.1-0.1,0-0.2,0.1-0.5
					c-0.4-0.2-0.6-0.5-0.6-0.8c0-0.3,0.2-0.6,0.6-0.8c-0.1-0.2-0.2-0.4-0.1-0.5c0.1-0.1,0.2,0,0.5,0.1c0.2-0.4,0.5-0.6,0.8-0.6
					c0.3,0,0.6,0.2,0.8,0.6c0.2-0.1,0.4-0.2,0.5-0.1c0.1,0.1,0,0.2-0.1,0.5c0.4,0.2,0.6,0.5,0.6,0.8C37.1,33.6,36.9,33.9,36.5,34.1z
					"/>
				<path class="st2" d="M35.7,33.9c0,0,0.1,0.1,0.1,0.1c0.2,0.2,0.6,0.2,0.6,0.2s0-0.3-0.2-0.6c0,0-0.1-0.1-0.1-0.1
					c0.2,0,0.4-0.1,0.4-0.1s-0.1-0.2-0.4-0.3c0,0,0,0,0,0c0,0,0,0,0,0c0.2-0.1,0.4-0.3,0.4-0.3S36.2,32.9,36,33c0,0,0.1-0.1,0.1-0.1
					c0.2-0.2,0.2-0.5,0.2-0.5s-0.3,0-0.6,0.2c0,0-0.1,0.1-0.1,0.1c0-0.2-0.1-0.4-0.1-0.4s-0.2,0.1-0.3,0.4c0,0,0,0,0,0c0,0,0,0,0,0
					c-0.1-0.2-0.3-0.4-0.3-0.4s-0.1,0.2-0.1,0.4c0,0-0.1-0.1-0.1-0.1c-0.2-0.2-0.5-0.2-0.5-0.2s0,0.3,0.2,0.5c0,0,0.1,0.1,0.1,0.1
					c-0.2,0-0.4,0.1-0.4,0.1s0.1,0.2,0.4,0.3c0,0,0,0,0,0c0,0,0,0,0,0c-0.2,0.1-0.4,0.3-0.4,0.3s0.2,0.1,0.4,0.1
					c0,0-0.1,0.1-0.1,0.1c-0.2,0.2-0.2,0.6-0.2,0.6s0.3,0,0.5-0.2c0,0,0.1-0.1,0.1-0.1c0,0.2,0.1,0.4,0.1,0.4s0.2-0.1,0.3-0.4
					c0,0,0,0,0,0c0,0,0,0,0,0c0.1,0.2,0.3,0.4,0.3,0.4S35.7,34.1,35.7,33.9z M35.6,33.6c-0.1-0.1-0.1-0.2-0.2-0.2c0,0,0,0-0.1,0
					c0,0,0.1,0.1,0.1,0.2c0,0.1-0.1,0.2-0.1,0.2s-0.1-0.1-0.1-0.2c0-0.1,0-0.2,0.1-0.2c0,0,0,0-0.1,0c0,0.1-0.1,0.1-0.2,0.2
					c-0.1,0.1-0.3,0.2-0.3,0.2s0.1-0.2,0.2-0.3c0.1-0.1,0.2-0.1,0.2-0.2c0,0,0,0,0-0.1c0,0-0.1,0.1-0.2,0.1c-0.1,0-0.2-0.1-0.2-0.1
					s0.1-0.1,0.2-0.1c0.1,0,0.2,0,0.2,0.1c0,0,0,0,0-0.1c-0.1,0-0.1-0.1-0.2-0.2c-0.1-0.1-0.2-0.3-0.2-0.3s0.2,0.1,0.3,0.2
					c0.1,0.1,0.1,0.2,0.2,0.2c0,0,0,0,0.1,0c0,0-0.1-0.1-0.1-0.2c0-0.1,0.1-0.2,0.1-0.2s0.1,0.1,0.1,0.2c0,0.1,0,0.2-0.1,0.2
					c0,0,0,0,0.1,0c0-0.1,0.1-0.1,0.2-0.2c0.1-0.1,0.3-0.2,0.3-0.2s-0.1,0.2-0.2,0.3c-0.1,0.1-0.2,0.1-0.2,0.2c0,0,0,0,0,0.1
					c0,0,0.1-0.1,0.2-0.1c0.1,0,0.2,0.1,0.2,0.1s-0.1,0.1-0.2,0.1c-0.1,0-0.2,0-0.2-0.1c0,0,0,0,0,0.1
					C35.6,33.4,35.7,33.5,35.6,33.6c0.2,0,0.3,0.2,0.3,0.2S35.8,33.8,35.6,33.6z"/>
				<g>
					<path class="st1" d="M35.6,31.9c0,0.1-0.1,0.2-0.2,0.2c-0.1,0-0.2-0.1-0.2-0.2c0-0.1,0.1-0.2,0.2-0.2
						C35.5,31.7,35.6,31.8,35.6,31.9z"/>
					<path class="st1" d="M35.6,34.6c0,0.1-0.1,0.2-0.2,0.2c-0.1,0-0.2-0.1-0.2-0.2c0-0.1,0.1-0.2,0.2-0.2
						C35.5,34.5,35.6,34.5,35.6,34.6z"/>
				</g>
				<g>
					<path class="st1" d="M36.7,33.5c-0.1,0-0.2-0.1-0.2-0.2c0-0.1,0.1-0.2,0.2-0.2c0.1,0,0.2,0.1,0.2,0.2
						C36.9,33.4,36.8,33.5,36.7,33.5z"/>
					<path class="st1" d="M34,33.5c-0.1,0-0.2-0.1-0.2-0.2c0-0.1,0.1-0.2,0.2-0.2c0.1,0,0.2,0.1,0.2,0.2
						C34.2,33.4,34.1,33.5,34,33.5z"/>
				</g>
			</g>
			<g>
				<path class="st3" d="M37.4,39.9c0-0.4-0.3-0.7-0.7-0.9c0.1-0.3,0.2-0.5,0.1-0.5c-0.1-0.1-0.3,0-0.5,0.1
					c-0.2-0.4-0.5-0.7-0.9-0.7c-0.4,0-0.7,0.3-0.9,0.7c-0.3-0.1-0.5-0.2-0.5-0.1c-0.1,0.1,0,0.3,0.1,0.5c-0.4,0.2-0.7,0.5-0.7,0.9
					c0,0.4,0.3,0.7,0.7,0.9c-0.1,0.3-0.2,0.5-0.1,0.5c0.1,0.1,0.3,0,0.5-0.1c0.2,0.4,0.5,0.7,0.9,0.7c0.4,0,0.7-0.3,0.9-0.7
					c0.3,0.1,0.5,0.2,0.5,0.1c0.1-0.1,0-0.3-0.1-0.5C37.2,40.6,37.4,40.3,37.4,39.9z M36.5,40.7c0.1,0.2,0.2,0.4,0.1,0.5
					c-0.1,0.1-0.2,0-0.5-0.1c-0.2,0.4-0.5,0.6-0.8,0.6c-0.3,0-0.6-0.2-0.8-0.6c-0.2,0.1-0.4,0.2-0.5,0.1c-0.1-0.1,0-0.2,0.1-0.5
					c-0.4-0.2-0.6-0.5-0.6-0.8c0-0.3,0.2-0.6,0.6-0.8c-0.1-0.2-0.2-0.4-0.1-0.5c0.1-0.1,0.2,0,0.5,0.1c0.2-0.4,0.5-0.6,0.8-0.6
					c0.3,0,0.6,0.2,0.8,0.6c0.2-0.1,0.4-0.2,0.5-0.1c0.1,0.1,0,0.2-0.1,0.5c0.4,0.2,0.6,0.5,0.6,0.8C37.1,40.3,36.9,40.5,36.5,40.7z
					"/>
				<path class="st2" d="M35.7,40.6c0,0,0.1,0.1,0.1,0.1c0.2,0.2,0.6,0.2,0.6,0.2s0-0.3-0.2-0.5c0,0-0.1-0.1-0.1-0.1
					c0.2,0,0.4-0.1,0.4-0.1S36.2,40,36,40c0,0,0,0,0,0c0,0,0,0,0,0c0.2-0.1,0.4-0.3,0.4-0.3s-0.2-0.1-0.4-0.1c0,0,0.1-0.1,0.1-0.1
					c0.2-0.2,0.2-0.5,0.2-0.5s-0.3,0-0.6,0.2c0,0-0.1,0.1-0.1,0.1c0-0.2-0.1-0.4-0.1-0.4s-0.2,0.1-0.3,0.4c0,0,0,0,0,0c0,0,0,0,0,0
					c-0.1-0.2-0.3-0.4-0.3-0.4s-0.1,0.2-0.1,0.4c0,0-0.1-0.1-0.1-0.1C34.8,39,34.4,39,34.4,39s0,0.3,0.2,0.5c0,0,0.1,0.1,0.1,0.1
					c-0.2,0-0.4,0.1-0.4,0.1s0.1,0.2,0.4,0.3c0,0,0,0,0,0c0,0,0,0,0,0c-0.2,0.1-0.4,0.3-0.4,0.3s0.2,0.1,0.4,0.1
					c0,0-0.1,0.1-0.1,0.1c-0.2,0.2-0.2,0.5-0.2,0.5s0.3,0,0.6-0.2c0,0,0.1-0.1,0.1-0.1c0,0.2,0.1,0.4,0.1,0.4s0.2-0.1,0.3-0.4
					c0,0,0,0,0,0c0,0,0,0,0,0c0.1,0.2,0.3,0.4,0.3,0.4S35.7,40.8,35.7,40.6z M35.6,40.3c-0.1-0.1-0.1-0.2-0.2-0.2c0,0,0,0-0.1,0
					c0,0,0.1,0.1,0.1,0.2c0,0.1-0.1,0.2-0.1,0.2s-0.1-0.1-0.1-0.2c0-0.1,0-0.2,0.1-0.2c0,0,0,0-0.1,0c0,0.1-0.1,0.1-0.2,0.2
					c-0.1,0.1-0.3,0.2-0.3,0.2s0.1-0.2,0.2-0.3c0.1-0.1,0.2-0.1,0.2-0.2c0,0,0,0,0-0.1c0,0-0.1,0.1-0.2,0.1c-0.1,0-0.2-0.1-0.2-0.1
					s0.1-0.1,0.2-0.1c0.1,0,0.2,0,0.2,0.1c0,0,0,0,0-0.1c-0.1,0-0.1-0.1-0.2-0.2c-0.1-0.1-0.2-0.3-0.2-0.3s0.2,0.1,0.3,0.2
					c0.1,0.1,0.1,0.2,0.2,0.2c0,0,0,0,0.1,0c0,0-0.1-0.1-0.1-0.2c0-0.1,0.1-0.2,0.1-0.2s0.1,0.1,0.1,0.2c0,0.1,0,0.2-0.1,0.2
					c0,0,0,0,0.1,0c0-0.1,0.1-0.1,0.2-0.2c0.1-0.1,0.3-0.2,0.3-0.2s-0.1,0.2-0.2,0.3c-0.1,0.1-0.2,0.1-0.2,0.2c0,0,0,0,0,0.1
					c0,0,0.1-0.1,0.2-0.1c0.1,0,0.2,0.1,0.2,0.1s-0.1,0.1-0.2,0.1c-0.1,0-0.2,0-0.2-0.1c0,0,0,0,0,0.1
					C35.6,40.1,35.7,40.1,35.6,40.3c0.2,0,0.3,0.2,0.3,0.2S35.8,40.4,35.6,40.3z"/>
				<g>
					<path class="st1" d="M35.6,38.6c0,0.1-0.1,0.2-0.2,0.2c-0.1,0-0.2-0.1-0.2-0.2c0-0.1,0.1-0.2,0.2-0.2
						C35.5,38.4,35.6,38.5,35.6,38.6z"/>
					<path class="st1" d="M35.6,41.3c0,0.1-0.1,0.2-0.2,0.2c-0.1,0-0.2-0.1-0.2-0.2c0-0.1,0.1-0.2,0.2-0.2
						C35.5,41.1,35.6,41.2,35.6,41.3z"/>
				</g>
				<g>
					<path class="st1" d="M36.7,40.1c-0.1,0-0.2-0.1-0.2-0.2c0-0.1,0.1-0.2,0.2-0.2c0.1,0,0.2,0.1,0.2,0.2
						C36.9,40,36.8,40.1,36.7,40.1z"/>
					<path class="st1" d="M34,40.1c-0.1,0-0.2-0.1-0.2-0.2c0-0.1,0.1-0.2,0.2-0.2c0.1,0,0.2,0.1,0.2,0.2C34.2,40,34.1,40.1,34,40.1z
						"/>
				</g>
			</g>
		</g>
		<g class="st13">
			<g>
				<g>
					<path class="st4" d="M38.7,34.3c-0.5,0-0.9-0.2-0.9-0.5c0-0.3,0.4-0.5,0.9-0.5c0.5,0,0.9,0.2,0.9,0.5
						C39.6,34.1,39.2,34.3,38.7,34.3z M38.7,33.5c-0.4,0-0.8,0.2-0.8,0.3c0,0.1,0.3,0.3,0.8,0.3c0.4,0,0.8-0.2,0.8-0.3
						C39.5,33.7,39.2,33.5,38.7,33.5z"/>
				</g>
				<g>
					<path class="st4" d="M38.7,39.9c-0.5,0-0.9-0.2-0.9-0.5c0-0.3,0.4-0.5,0.9-0.5c0.5,0,0.9,0.2,0.9,0.5
						C39.6,39.7,39.2,39.9,38.7,39.9z M38.7,39.1c-0.4,0-0.8,0.2-0.8,0.3c0,0.1,0.3,0.3,0.8,0.3c0.4,0,0.8-0.2,0.8-0.3
						C39.5,39.3,39.2,39.1,38.7,39.1z"/>
				</g>
			</g>
			<g>
				<g>
					<path class="st4" d="M41.1,36.6c0-0.5,0.2-0.9,0.5-0.9c0.3,0,0.5,0.4,0.5,0.9c0,0.5-0.2,0.9-0.5,0.9
						C41.3,37.5,41.1,37.1,41.1,36.6z M41.8,36.6c0-0.4-0.2-0.8-0.3-0.8c-0.1,0-0.3,0.3-0.3,0.8c0,0.4,0.2,0.8,0.3,0.8
						C41.7,37.4,41.8,37,41.8,36.6z"/>
				</g>
				<g>
					<path class="st4" d="M35.5,36.6c0-0.5,0.2-0.9,0.5-0.9c0.3,0,0.5,0.4,0.5,0.9c0,0.5-0.2,0.9-0.5,0.9
						C35.7,37.5,35.5,37.1,35.5,36.6z M36.2,36.6c0-0.4-0.2-0.8-0.3-0.8c-0.1,0-0.3,0.3-0.3,0.8c0,0.4,0.2,0.8,0.3,0.8
						C36.1,37.4,36.2,37,36.2,36.6z"/>
				</g>
			</g>
		</g>
	</g>
</g>
<g>
	<rect x="60.4" y="33.8" class="st1" width="5.6" height="5.6"/>
	<g>
		<defs>
			<rect id="SVGID_15_" x="60.4" y="33.8" width="5.6" height="5.6"/>
		</defs>
		<clipPath id="SVGID_16_">
			<use xlink:href="#SVGID_15_"  style="overflow:visible;"/>
		</clipPath>
		<g class="st14">
			<g>
				<path class="st5" d="M65.3,36.6c0-0.1-0.7-0.2-1.7-0.2c0.3-0.4,0.6-0.7,0.5-0.7c0,0-0.3,0.2-0.7,0.5c0-1-0.1-1.7-0.2-1.7
					c-0.1,0-0.2,0.7-0.2,1.7c-0.4-0.3-0.7-0.6-0.7-0.5c0,0,0.2,0.3,0.5,0.7c-1,0-1.7,0.1-1.7,0.2c0,0.1,0.7,0.2,1.7,0.2
					c-0.3,0.4-0.6,0.7-0.5,0.7c0,0,0.3-0.2,0.7-0.5c0,1,0.1,1.7,0.2,1.7c0.1,0,0.2-0.7,0.2-1.7c0.4,0.3,0.7,0.6,0.7,0.5
					c0,0-0.2-0.3-0.5-0.7C64.6,36.8,65.3,36.7,65.3,36.6z M63.2,36.8c-0.1,0-0.2-0.1-0.2-0.2c0-0.1,0.1-0.2,0.2-0.2
					c0.1,0,0.2,0.1,0.2,0.2C63.4,36.7,63.3,36.8,63.2,36.8z"/>
			</g>
			<g>
				<g>
					<path class="st10" d="M60.4,32.3c-0.8,0-1.5,0.7-1.5,1.5c0,0.8,0.7,1.5,1.5,1.5s1.5-0.7,1.5-1.5C61.9,33,61.3,32.3,60.4,32.3z
						 M60.4,35.1c-0.7,0-1.3-0.6-1.3-1.3c0-0.7,0.6-1.3,1.3-1.3c0.7,0,1.3,0.6,1.3,1.3C61.7,34.5,61.1,35.1,60.4,35.1z"/>
				</g>
				<g>
					<path class="st4" d="M60.4,32.3c-0.8,0-1.5,0.7-1.5,1.5c0,0.8,0.7,1.5,1.5,1.5s1.5-0.7,1.5-1.5C61.9,33,61.3,32.3,60.4,32.3z
						 M60.4,35.1c-0.7,0-1.3-0.6-1.3-1.3c0-0.7,0.6-1.3,1.3-1.3c0.7,0,1.3,0.6,1.3,1.3C61.7,34.5,61.1,35.1,60.4,35.1z"/>
				</g>
				<g>
					<g>
						<path class="st3" d="M60.6,33.1c0,0.3-0.1,0.5-0.2,0.5c-0.1,0-0.2-0.2-0.2-0.5s0.1-0.5,0.2-0.5C60.5,32.6,60.6,32.8,60.6,33.1
							z"/>
					</g>
					<g>
						<path class="st3" d="M60.6,34.5c0,0.3-0.1,0.5-0.2,0.5c-0.1,0-0.2-0.2-0.2-0.5c0-0.3,0.1-0.5,0.2-0.5
							C60.5,34,60.6,34.3,60.6,34.5z"/>
					</g>
				</g>
				<g>
					<g>
						<path class="st3" d="M61.1,34c-0.3,0-0.5-0.1-0.5-0.2c0-0.1,0.2-0.2,0.5-0.2c0.3,0,0.5,0.1,0.5,0.2C61.6,33.9,61.4,34,61.1,34
							z"/>
					</g>
					<g>
						<path class="st3" d="M59.7,34c-0.3,0-0.5-0.1-0.5-0.2c0-0.1,0.2-0.2,0.5-0.2c0.3,0,0.5,0.1,0.5,0.2C60.2,33.9,60,34,59.7,34z"
							/>
					</g>
				</g>
				<g>
					<path class="st2" d="M60.5,33.8c0,0.1-0.1,0.1-0.1,0.1c-0.1,0-0.1-0.1-0.1-0.1c0-0.1,0.1-0.1,0.1-0.1
						C60.5,33.7,60.5,33.7,60.5,33.8z"/>
				</g>
				<g>
					<g>
						<path class="st2" d="M60,33.4c0,0-0.1,0-0.2,0c0,0,0-0.1,0-0.2c0,0,0.1,0,0.2,0C60,33.3,60,33.3,60,33.4z"/>
					</g>
					<g>
						<path class="st2" d="M61,34.4c0,0-0.1,0-0.2,0c0,0,0-0.1,0-0.2c0,0,0.1,0,0.2,0C61.1,34.3,61.1,34.4,61,34.4z"/>
					</g>
				</g>
				<g>
					<g>
						<path class="st2" d="M60.8,33.4c0,0,0-0.1,0-0.2c0,0,0.1,0,0.2,0c0,0,0,0.1,0,0.2C61,33.4,60.9,33.4,60.8,33.4z"/>
					</g>
					<g>
						<path class="st2" d="M59.8,34.4c0,0,0-0.1,0-0.2c0,0,0.1,0,0.2,0c0,0,0,0.1,0,0.2C59.9,34.5,59.9,34.5,59.8,34.4z"/>
					</g>
				</g>
			</g>
			<g>
				<g>
					<path class="st10" d="M66,37.9c-0.8,0-1.5,0.7-1.5,1.5c0,0.8,0.7,1.5,1.5,1.5c0.8,0,1.5-0.7,1.5-1.5
						C67.6,38.6,66.9,37.9,66,37.9z M66,40.7c-0.7,0-1.3-0.6-1.3-1.3c0-0.7,0.6-1.3,1.3-1.3s1.3,0.6,1.3,1.3
						C67.3,40.1,66.8,40.7,66,40.7z"/>
				</g>
				<g>
					<g>
						<path class="st10" d="M66.2,38.7c0,0.3-0.1,0.5-0.2,0.5c-0.1,0-0.2-0.2-0.2-0.5c0-0.3,0.1-0.5,0.2-0.5
							C66.1,38.2,66.2,38.4,66.2,38.7z"/>
					</g>
					<g>
						<path class="st10" d="M66.2,40.1c0,0.3-0.1,0.5-0.2,0.5c-0.1,0-0.2-0.2-0.2-0.5c0-0.3,0.1-0.5,0.2-0.5
							C66.1,39.6,66.2,39.9,66.2,40.1z"/>
					</g>
				</g>
				<g>
					<g>
						<path class="st10" d="M66.8,39.6c-0.3,0-0.5-0.1-0.5-0.2c0-0.1,0.2-0.2,0.5-0.2c0.3,0,0.5,0.1,0.5,0.2
							C67.2,39.5,67,39.6,66.8,39.6z"/>
					</g>
					<g>
						<path class="st10" d="M65.3,39.6c-0.3,0-0.5-0.1-0.5-0.2c0-0.1,0.2-0.2,0.5-0.2c0.3,0,0.5,0.1,0.5,0.2
							C65.8,39.5,65.6,39.6,65.3,39.6z"/>
					</g>
				</g>
				<g>
					<path class="st10" d="M66.2,39.4c0,0.1-0.1,0.1-0.1,0.1c-0.1,0-0.1-0.1-0.1-0.1c0-0.1,0.1-0.1,0.1-0.1
						C66.1,39.3,66.2,39.3,66.2,39.4z"/>
				</g>
				<g>
					<g>
						<path class="st10" d="M65.6,39c0,0-0.1,0-0.2,0c0,0,0-0.1,0-0.2c0,0,0.1,0,0.2,0C65.7,38.9,65.7,38.9,65.6,39z"/>
					</g>
					<g>
						<path class="st10" d="M66.6,40c0,0-0.1,0-0.2,0c0,0,0-0.1,0-0.2c0,0,0.1,0,0.2,0C66.7,39.9,66.7,40,66.6,40z"/>
					</g>
				</g>
				<g>
					<g>
						<path class="st10" d="M66.5,39c0,0,0-0.1,0-0.2c0,0,0.1,0,0.2,0c0,0,0,0.1,0,0.2C66.6,39,66.5,39,66.5,39z"/>
					</g>
					<g>
						<path class="st10" d="M65.4,40c0,0,0-0.1,0-0.2c0,0,0.1,0,0.2,0c0,0,0,0.1,0,0.2C65.6,40.1,65.5,40.1,65.4,40z"/>
					</g>
				</g>
			</g>
			<g>
				<g>
					<path class="st4" d="M60.4,37.9c-0.8,0-1.5,0.7-1.5,1.5c0,0.8,0.7,1.5,1.5,1.5s1.5-0.7,1.5-1.5C61.9,38.6,61.3,37.9,60.4,37.9z
						 M60.4,40.7c-0.7,0-1.3-0.6-1.3-1.3c0-0.7,0.6-1.3,1.3-1.3c0.7,0,1.3,0.6,1.3,1.3C61.7,40.1,61.1,40.7,60.4,40.7z"/>
				</g>
				<g>
					<g>
						<path class="st3" d="M60.6,38.7c0,0.3-0.1,0.5-0.2,0.5c-0.1,0-0.2-0.2-0.2-0.5c0-0.3,0.1-0.5,0.2-0.5
							C60.5,38.2,60.6,38.4,60.6,38.7z"/>
					</g>
					<g>
						<path class="st3" d="M60.6,40.1c0,0.3-0.1,0.5-0.2,0.5c-0.1,0-0.2-0.2-0.2-0.5s0.1-0.5,0.2-0.5C60.5,39.6,60.6,39.9,60.6,40.1
							z"/>
					</g>
				</g>
				<g>
					<g>
						<path class="st3" d="M61.1,39.6c-0.3,0-0.5-0.1-0.5-0.2c0-0.1,0.2-0.2,0.5-0.2c0.3,0,0.5,0.1,0.5,0.2
							C61.6,39.5,61.4,39.6,61.1,39.6z"/>
					</g>
					<g>
						<path class="st3" d="M59.7,39.6c-0.3,0-0.5-0.1-0.5-0.2c0-0.1,0.2-0.2,0.5-0.2c0.3,0,0.5,0.1,0.5,0.2
							C60.2,39.5,60,39.6,59.7,39.6z"/>
					</g>
				</g>
				<g>
					<path class="st2" d="M60.5,39.4c0,0.1-0.1,0.1-0.1,0.1c-0.1,0-0.1-0.1-0.1-0.1c0-0.1,0.1-0.1,0.1-0.1
						C60.5,39.3,60.5,39.3,60.5,39.4z"/>
				</g>
				<g>
					<g>
						<path class="st2" d="M60,39c0,0-0.1,0-0.2,0c0,0,0-0.1,0-0.2c0,0,0.1,0,0.2,0C60,38.9,60,38.9,60,39z"/>
					</g>
					<g>
						<path class="st2" d="M61,40c0,0.1-0.1,0.1-0.2,0c0,0,0-0.1,0-0.2c0,0,0.1,0,0.2,0C61.1,39.9,61.1,40,61,40z"/>
					</g>
				</g>
				<g>
					<g>
						<path class="st2" d="M60.8,39c0,0,0-0.1,0-0.2c0,0,0.1,0,0.2,0c0,0,0,0.1,0,0.2C61,39,60.9,39,60.8,39z"/>
					</g>
					<g>
						<path class="st2" d="M59.8,40c0,0,0-0.1,0-0.2c0,0,0.1,0,0.2,0c0,0,0,0.1,0,0.2C59.9,40.1,59.9,40.1,59.8,40z"/>
					</g>
				</g>
			</g>
			<g>
				<g>
					<g>
						<path class="st4" d="M66,32.3c-0.8,0-1.5,0.7-1.5,1.5c0,0.8,0.7,1.5,1.5,1.5c0.8,0,1.5-0.7,1.5-1.5C67.5,33,66.9,32.3,66,32.3
							z M66,35.1c-0.7,0-1.3-0.6-1.3-1.3c0-0.7,0.6-1.3,1.3-1.3c0.7,0,1.3,0.6,1.3,1.3C67.3,34.5,66.7,35.1,66,35.1z"/>
					</g>
					<g>
						<g>
							<path class="st3" d="M66.2,33.1c0,0.3-0.1,0.5-0.2,0.5c-0.1,0-0.2-0.2-0.2-0.5s0.1-0.5,0.2-0.5
								C66.1,32.6,66.2,32.8,66.2,33.1z"/>
						</g>
						<g>
							<path class="st3" d="M66.2,34.5c0,0.3-0.1,0.5-0.2,0.5c-0.1,0-0.2-0.2-0.2-0.5S65.9,34,66,34C66.1,34,66.2,34.3,66.2,34.5z"
								/>
						</g>
					</g>
					<g>
						<g>
							<path class="st3" d="M66.7,34c-0.3,0-0.5-0.1-0.5-0.2c0-0.1,0.2-0.2,0.5-0.2c0.3,0,0.5,0.1,0.5,0.2C67.2,33.9,67,34,66.7,34z
								"/>
						</g>
						<g>
							<path class="st3" d="M65.3,34c-0.3,0-0.5-0.1-0.5-0.2c0-0.1,0.2-0.2,0.5-0.2c0.3,0,0.5,0.1,0.5,0.2
								C65.8,33.9,65.6,34,65.3,34z"/>
						</g>
					</g>
					<g>
						<path class="st2" d="M66.1,33.8c0,0.1-0.1,0.1-0.1,0.1c-0.1,0-0.1-0.1-0.1-0.1c0-0.1,0.1-0.1,0.1-0.1
							C66.1,33.7,66.1,33.7,66.1,33.8z"/>
					</g>
					<g>
						<g>
							<path class="st2" d="M65.6,33.4c0,0-0.1,0-0.2,0c0,0,0-0.1,0-0.2c0,0,0.1,0,0.2,0C65.6,33.3,65.6,33.3,65.6,33.4z"/>
						</g>
						<g>
							<path class="st2" d="M66.6,34.4c-0.1,0-0.1,0-0.2,0c0,0,0-0.1,0-0.2c0,0,0.1,0,0.2,0C66.7,34.3,66.7,34.4,66.6,34.4z"/>
						</g>
					</g>
					<g>
						<g>
							<path class="st2" d="M66.4,33.4c0,0,0-0.1,0-0.2c0,0,0.1,0,0.2,0c0,0,0,0.1,0,0.2C66.6,33.4,66.5,33.4,66.4,33.4z"/>
						</g>
						<g>
							<path class="st2" d="M65.4,34.4c0,0,0-0.1,0-0.2c0,0,0.1,0,0.2,0c0,0,0,0.1,0,0.2C65.5,34.5,65.5,34.5,65.4,34.4z"/>
						</g>
					</g>
				</g>
				<g>
					<path class="st2" d="M60.4,35.9c-1.2,0-2.1-0.9-2.1-2.1c0-1.2,0.9-2.1,2.1-2.1s2.1,0.9,2.1,2.1C62.5,35,61.6,35.9,60.4,35.9z
						 M60.4,31.9c-1.1,0-1.9,0.9-1.9,1.9c0,1.1,0.9,1.9,1.9,1.9c1.1,0,1.9-0.9,1.9-1.9C62.3,32.8,61.5,31.9,60.4,31.9z"/>
				</g>
				<g>
					<path class="st2" d="M66,35.9c-1.2,0-2.1-0.9-2.1-2.1c0-1.2,0.9-2.1,2.1-2.1c1.2,0,2.1,0.9,2.1,2.1C68.1,35,67.2,35.9,66,35.9z
						 M66,31.9c-1.1,0-1.9,0.9-1.9,1.9c0,1.1,0.9,1.9,1.9,1.9c1.1,0,1.9-0.9,1.9-1.9C67.9,32.8,67.1,31.9,66,31.9z"/>
				</g>
			</g>
			<g>
				<g>
					<g>
						<path class="st4" d="M66,37.9c-0.8,0-1.5,0.7-1.5,1.5c0,0.8,0.7,1.5,1.5,1.5c0.8,0,1.5-0.7,1.5-1.5
							C67.5,38.6,66.9,37.9,66,37.9z M66,40.7c-0.7,0-1.3-0.6-1.3-1.3c0-0.7,0.6-1.3,1.3-1.3c0.7,0,1.3,0.6,1.3,1.3
							C67.3,40.1,66.7,40.7,66,40.7z"/>
					</g>
					<g>
						<g>
							<path class="st3" d="M66.2,38.7c0,0.3-0.1,0.5-0.2,0.5c-0.1,0-0.2-0.2-0.2-0.5c0-0.3,0.1-0.5,0.2-0.5
								C66.1,38.2,66.2,38.4,66.2,38.7z"/>
						</g>
						<g>
							<path class="st3" d="M66.2,40.1c0,0.3-0.1,0.5-0.2,0.5c-0.1,0-0.2-0.2-0.2-0.5c0-0.3,0.1-0.5,0.2-0.5
								C66.1,39.6,66.2,39.9,66.2,40.1z"/>
						</g>
					</g>
					<g>
						<g>
							<path class="st3" d="M66.7,39.6c-0.3,0-0.5-0.1-0.5-0.2c0-0.1,0.2-0.2,0.5-0.2c0.3,0,0.5,0.1,0.5,0.2
								C67.2,39.5,67,39.6,66.7,39.6z"/>
						</g>
						<g>
							<path class="st3" d="M65.3,39.6c-0.3,0-0.5-0.1-0.5-0.2c0-0.1,0.2-0.2,0.5-0.2c0.3,0,0.5,0.1,0.5,0.2
								C65.8,39.5,65.6,39.6,65.3,39.6z"/>
						</g>
					</g>
					<g>
						<path class="st10" d="M66.1,39.4c0,0.1-0.1,0.1-0.1,0.1c-0.1,0-0.1-0.1-0.1-0.1c0-0.1,0.1-0.1,0.1-0.1
							C66.1,39.3,66.1,39.3,66.1,39.4z"/>
					</g>
					<g>
						<g>
							<path class="st2" d="M65.6,39c0,0-0.1,0-0.2,0c0,0,0-0.1,0-0.2c0,0,0.1,0,0.2,0C65.6,38.9,65.6,38.9,65.6,39z"/>
						</g>
						<g>
							<path class="st2" d="M66.6,40c-0.1,0-0.1,0-0.2,0c0,0,0-0.1,0-0.2c0,0,0.1,0,0.2,0C66.7,39.9,66.7,40,66.6,40z"/>
						</g>
					</g>
					<g>
						<g>
							<path class="st2" d="M66.4,39c0,0,0-0.1,0-0.2c0,0,0.1,0,0.2,0c0,0,0,0.1,0,0.2C66.6,39,66.5,39,66.4,39z"/>
						</g>
						<g>
							<path class="st2" d="M65.4,40c0,0,0-0.1,0-0.2c0,0,0.1,0,0.2,0c0,0,0,0.1,0,0.2C65.5,40.1,65.5,40.1,65.4,40z"/>
						</g>
					</g>
				</g>
				<g>
					<path class="st2" d="M60.4,41.5c-1.2,0-2.1-0.9-2.1-2.1c0-1.2,0.9-2.1,2.1-2.1s2.1,0.9,2.1,2.1C62.5,40.6,61.6,41.5,60.4,41.5z
						 M60.4,37.5c-1.1,0-1.9,0.9-1.9,1.9c0,1.1,0.9,1.9,1.9,1.9c1.1,0,1.9-0.9,1.9-1.9C62.3,38.4,61.5,37.5,60.4,37.5z"/>
				</g>
				<g>
					<path class="st2" d="M66,41.5c-1.2,0-2.1-0.9-2.1-2.1c0-1.2,0.9-2.1,2.1-2.1c1.2,0,2.1,0.9,2.1,2.1
						C68.1,40.6,67.2,41.5,66,41.5z M66,37.5c-1.1,0-1.9,0.9-1.9,1.9c0,1.1,0.9,1.9,1.9,1.9c1.1,0,1.9-0.9,1.9-1.9
						C67.9,38.4,67.1,37.5,66,37.5z"/>
				</g>
			</g>
		</g>
	</g>
</g>
</svg>
