<svg id="Capa_1" data-name="Capa 1" xmlns="http://www.w3.org/2000/svg" xmlns:xlink="http://www.w3.org/1999/xlink" viewBox="0 0 71 9"><defs><style>.cls-1{fill:none;}.cls-2{clip-path:url(#clip-path);}.cls-3{fill:#3b3c61;}.cls-4{clip-path:url(#clip-path-3);}.cls-5{fill:#8d3316;}.cls-6{fill:#2a4065;}</style><clipPath id="clip-path"><rect class="cls-1" x="7.38" y="11.02" width="5.4" height="5.4"/></clipPath><clipPath id="clip-path-3"><rect class="cls-1" x="42.58" y="11.02" width="5.4" height="5.4"/></clipPath></defs><g class="cls-2"><path class="cls-3" d="M15.18,10.52a1.21,1.21,0,0,0-.7-.9c.1-.3.2-.4.1-.5s-.3,0-.5.1a1.07,1.07,0,0,0-.9-.7,1.21,1.21,0,0,0-.9.7c-.3-.1-.4-.2-.5-.1s0,.3.1.5a1.07,1.07,0,0,0-.7.9,1.21,1.21,0,0,0,.7.9c-.1.3-.2.4-.1.5s.3,0,.5-.1a1.07,1.07,0,0,0,.9.7,1.21,1.21,0,0,0,.9-.7c.3.1.4.2.5.1s0-.3-.1-.5A1.21,1.21,0,0,0,15.18,10.52Zm-.9.7c.1.2.2.4.1.5s-.2,0-.5-.1a.71.71,0,0,1-1.4,0c-.2.1-.4.2-.5.1a1.34,1.34,0,0,1,.1-.5c-.4-.2-.6-.4-.6-.7a.73.73,0,0,1,.6-.7,1.34,1.34,0,0,1-.1-.5c.1-.1.2,0,.5.1.2-.4.4-.6.7-.6a.73.73,0,0,1,.7.6c.2-.1.4-.2.5-.1s0,.2-.1.5c.4.2.6.4.6.7A.73.73,0,0,1,14.28,11.22Z"/></g><g class="cls-2"><path class="cls-3" d="M8.78,10.52a1.21,1.21,0,0,0-.7-.9c.2-.2.2-.4.1-.5s-.2,0-.5.1a1.07,1.07,0,0,0-.9-.7c-.3,0-.6.3-.8.7-.3-.1-.5-.2-.6-.1a.65.65,0,0,0,.2.5,1,1,0,0,0-.7.9,1.21,1.21,0,0,0,.7.9.65.65,0,0,0-.2.5c.1.1.3,0,.5-.1.3.4.6.7.9.7a1.21,1.21,0,0,0,.9-.7c.3.1.5.2.5.1s0-.3-.1-.5A1.21,1.21,0,0,0,8.78,10.52Zm-.9.7c.2.3.2.4.1.5s-.2,0-.4-.1a.94.94,0,0,1-.8.6c-.3,0-.5-.2-.7-.6-.2.1-.4.2-.5.1a1.34,1.34,0,0,1,.1-.5.86.86,0,0,1-.6-.7.73.73,0,0,1,.6-.7,1.34,1.34,0,0,1-.1-.5c.1-.1.2,0,.5.1.2-.4.4-.6.7-.6a.73.73,0,0,1,.7.6c.3-.1.5-.2.5-.1s0,.2-.1.5a.71.71,0,0,1,0,1.4Z"/></g><g class="cls-4"><path class="cls-3" d="M50.48,10.52a1.21,1.21,0,0,0-.7-.9c.1-.2.2-.4.1-.5s-.3,0-.5.1a1.07,1.07,0,0,0-.9-.7,1.21,1.21,0,0,0-.9.7c-.3-.1-.4-.2-.5-.1s0,.3.1.5a1.07,1.07,0,0,0-.7.9,1.21,1.21,0,0,0,.7.9c-.1.3-.2.4-.1.5s.3,0,.5-.1a1.07,1.07,0,0,0,.9.7,1.21,1.21,0,0,0,.9-.7c.3.1.4.2.5.1s0-.3-.1-.5A1.21,1.21,0,0,0,50.48,10.52Zm-.9.7c.1.2.2.4.1.5s-.2,0-.5-.1a.71.71,0,0,1-1.4,0c-.2.1-.4.2-.5.1s0-.2.1-.5c-.4-.2-.6-.4-.6-.7a.73.73,0,0,1,.6-.7c-.1-.2-.2-.4-.1-.5s.2,0,.5.1c.2-.4.4-.6.7-.6a.73.73,0,0,1,.7.6c.2-.1.4-.2.5-.1s0,.2-.1.5a.71.71,0,0,1,0,1.4Z"/></g><g class="cls-4"><path class="cls-3" d="M44.08,10.52a1.21,1.21,0,0,0-.7-.9c.1-.3.2-.4.1-.5s-.3,0-.5.1a1.07,1.07,0,0,0-.9-.7,1.21,1.21,0,0,0-.9.7c-.3-.1-.4-.2-.5-.1s0,.3.1.5a1.07,1.07,0,0,0-.7.9,1.21,1.21,0,0,0,.7.9c-.1.3-.2.4-.1.5s.3,0,.5-.1a1.07,1.07,0,0,0,.9.7,1.21,1.21,0,0,0,.9-.7c.3.1.4.2.5.1s0-.3-.1-.5A1.21,1.21,0,0,0,44.08,10.52Zm-.9.7c.1.2.2.4.1.5s-.2,0-.5-.1a.71.71,0,0,1-1.4,0c-.2.1-.4.2-.5.1s0-.2.1-.5c-.4-.2-.6-.4-.6-.7a.73.73,0,0,1,.6-.7c-.1-.2-.2-.4-.1-.5s.2,0,.5.1c.2-.4.4-.6.7-.6a.73.73,0,0,1,.7.6c.2-.1.4-.2.5-.1s0,.2-.1.5c.4.2.6.4.6.7A.73.73,0,0,1,43.18,11.22Z"/></g><path class="cls-5" d="M7.43,4A2,2,0,0,0,7,3.9a2.48,2.48,0,0,0-1.48.6A2.48,2.48,0,0,0,7,5.1a2,2,0,0,0,.43,0,2.06,2.06,0,0,0-.65.84A2,2,0,0,0,8,5.68l0,0,0,0a1.94,1.94,0,0,0-.22,1.17,2,2,0,0,0,.87-.66,1.65,1.65,0,0,0-.06.46,2.49,2.49,0,0,0,.59,1.47,2.47,2.47,0,0,0,.6-1.47,1.65,1.65,0,0,0-.06-.46,2,2,0,0,0,.87.66,1.94,1.94,0,0,0-.22-1.17l0,0,0,0a2,2,0,0,0,1.18.21,2.06,2.06,0,0,0-.65-.84,2,2,0,0,0,.43,0,2.48,2.48,0,0,0,1.48-.6,2.48,2.48,0,0,0-1.48-.6,2,2,0,0,0-.43.05,2.06,2.06,0,0,0,.65-.84,2,2,0,0,0-1.18.21l0,0,0,0a1.94,1.94,0,0,0,.22-1.17,2,2,0,0,0-.87.66,1.68,1.68,0,0,0,.06-.45A2.48,2.48,0,0,0,9.15.87a2.5,2.5,0,0,0-.59,1.48,1.68,1.68,0,0,0,.06.45,2,2,0,0,0-.87-.66A1.94,1.94,0,0,0,8,3.31l0,0,0,0a2,2,0,0,0-1.18-.21A2.06,2.06,0,0,0,7.43,4Zm1.72-.12a2.18,2.18,0,0,0,.29-.42,2,2,0,0,0,0,.65,1.91,1.91,0,0,0,.38-.2,1.91,1.91,0,0,0-.2.38,1.82,1.82,0,0,0,.62,0,2.39,2.39,0,0,0-.39.28,2.39,2.39,0,0,0,.39.28,1.82,1.82,0,0,0-.62,0,1.91,1.91,0,0,0,.2.38,1.91,1.91,0,0,0-.38-.2,2,2,0,0,0,0,.65,2.18,2.18,0,0,0-.29-.42,2.49,2.49,0,0,0-.28.42,2,2,0,0,0,0-.65,1.91,1.91,0,0,0-.38.2,1.91,1.91,0,0,0,.2-.38,1.82,1.82,0,0,0-.62,0,2.39,2.39,0,0,0,.39-.28,2.39,2.39,0,0,0-.39-.28,1.82,1.82,0,0,0,.62,0,1.91,1.91,0,0,0-.2-.38,1.91,1.91,0,0,0,.38.2,2,2,0,0,0,0-.65A2.49,2.49,0,0,0,9.15,3.83Z"/><path class="cls-5" d="M20.47,4A2,2,0,0,0,20,3.9a2.48,2.48,0,0,0-1.48.6A2.48,2.48,0,0,0,20,5.1a2,2,0,0,0,.43,0,2,2,0,0,0-.65.84A2,2,0,0,0,21,5.68l0,0s0,0,0,0a2,2,0,0,0-.23,1.17,1.94,1.94,0,0,0,.87-.66,2.14,2.14,0,0,0-.06.46,2.47,2.47,0,0,0,.6,1.47,2.47,2.47,0,0,0,.6-1.47,1.65,1.65,0,0,0-.06-.46,2,2,0,0,0,.87.66,1.94,1.94,0,0,0-.22-1.17l0,0,0,0a2,2,0,0,0,1.18.21,2.06,2.06,0,0,0-.65-.84,2,2,0,0,0,.43,0,2.52,2.52,0,0,0,1.48-.6,2.52,2.52,0,0,0-1.48-.6,2,2,0,0,0-.43.05,2.06,2.06,0,0,0,.65-.84,2,2,0,0,0-1.18.21l0,0,0,0a1.94,1.94,0,0,0,.22-1.17,2,2,0,0,0-.87.66,1.68,1.68,0,0,0,.06-.45,2.48,2.48,0,0,0-.6-1.48,2.48,2.48,0,0,0-.6,1.48,2.22,2.22,0,0,0,.06.45,1.94,1.94,0,0,0-.87-.66A2,2,0,0,0,21,3.31l0,0,0,0a2,2,0,0,0-1.17-.21A2,2,0,0,0,20.47,4Zm1.72-.12a2.18,2.18,0,0,0,.29-.42,2,2,0,0,0,0,.65,1.91,1.91,0,0,0,.38-.2,1.91,1.91,0,0,0-.2.38,1.82,1.82,0,0,0,.62,0,2.39,2.39,0,0,0-.39.28,2.39,2.39,0,0,0,.39.28,1.82,1.82,0,0,0-.62,0,1.91,1.91,0,0,0,.2.38,1.91,1.91,0,0,0-.38-.2,2,2,0,0,0,0,.65,2.18,2.18,0,0,0-.29-.42,2.89,2.89,0,0,0-.29.42,1.86,1.86,0,0,0,0-.65,2.13,2.13,0,0,0-.39.2,1.71,1.71,0,0,0,.21-.38,1.87,1.87,0,0,0-.63,0,2.25,2.25,0,0,0,.4-.28,2.25,2.25,0,0,0-.4-.28,1.87,1.87,0,0,0,.63,0,1.71,1.71,0,0,0-.21-.38,2.13,2.13,0,0,0,.39.2,1.86,1.86,0,0,0,0-.65A2.89,2.89,0,0,0,22.19,3.83Z"/><path class="cls-5" d="M33.5,4a1.86,1.86,0,0,0-.42-.05,2.48,2.48,0,0,0-1.48.6,2.48,2.48,0,0,0,1.48.6,1.86,1.86,0,0,0,.42,0,2,2,0,0,0-.64.84A2,2,0,0,0,34,5.68l0,0,0,0a2,2,0,0,0-.23,1.17,2,2,0,0,0,.87-.66,2.14,2.14,0,0,0-.06.46,2.47,2.47,0,0,0,.6,1.47,2.47,2.47,0,0,0,.6-1.47,1.65,1.65,0,0,0-.06-.46,2,2,0,0,0,.87.66,1.94,1.94,0,0,0-.22-1.17l0,0,0,0a2,2,0,0,0,1.17.21A2,2,0,0,0,37,5.05a2,2,0,0,0,.43,0,2.47,2.47,0,0,0,1.47-.6,2.47,2.47,0,0,0-1.47-.6A2,2,0,0,0,37,4a2,2,0,0,0,.64-.84,2,2,0,0,0-1.17.21l0,0,0,0a1.94,1.94,0,0,0,.22-1.17,2,2,0,0,0-.87.66,1.68,1.68,0,0,0,.06-.45,2.48,2.48,0,0,0-.6-1.48,2.48,2.48,0,0,0-.6,1.48,2.22,2.22,0,0,0,.06.45,2,2,0,0,0-.87-.66,2,2,0,0,0,.23,1.17l0,0,0,0a2,2,0,0,0-1.17-.21A2,2,0,0,0,33.5,4Zm1.73-.12a2.89,2.89,0,0,0,.29-.42,2.2,2.2,0,0,0,0,.65,1.83,1.83,0,0,0,.39-.2,2.44,2.44,0,0,0-.21.38,1.87,1.87,0,0,0,.63,0,2.39,2.39,0,0,0-.39.28,2.39,2.39,0,0,0,.39.28,1.87,1.87,0,0,0-.63,0,2.44,2.44,0,0,0,.21.38,1.83,1.83,0,0,0-.39-.2,2.2,2.2,0,0,0,0,.65,2.89,2.89,0,0,0-.29-.42,2.89,2.89,0,0,0-.29.42,2.2,2.2,0,0,0,0-.65,1.83,1.83,0,0,0-.39.2,1.71,1.71,0,0,0,.21-.38,1.87,1.87,0,0,0-.63,0,2.25,2.25,0,0,0,.4-.28,2.25,2.25,0,0,0-.4-.28,1.87,1.87,0,0,0,.63,0,1.71,1.71,0,0,0-.21-.38,1.83,1.83,0,0,0,.39.2,2.2,2.2,0,0,0,0-.65A2.89,2.89,0,0,0,35.23,3.83Z"/><path class="cls-5" d="M46.54,4a1.86,1.86,0,0,0-.42-.05,2.48,2.48,0,0,0-1.48.6,2.48,2.48,0,0,0,1.48.6,1.86,1.86,0,0,0,.42,0,2,2,0,0,0-.64.84,2,2,0,0,0,1.17-.21l0,0,0,0a2,2,0,0,0-.22,1.17,2,2,0,0,0,.87-.66,1.65,1.65,0,0,0-.06.46,2.47,2.47,0,0,0,.6,1.47,2.47,2.47,0,0,0,.6-1.47,1.65,1.65,0,0,0-.06-.46,2,2,0,0,0,.87.66,2,2,0,0,0-.22-1.17l0,0,0,0a2,2,0,0,0,1.17.21A2,2,0,0,0,50,5.05a1.93,1.93,0,0,0,.42,0,2.48,2.48,0,0,0,1.48-.6,2.48,2.48,0,0,0-1.48-.6A1.93,1.93,0,0,0,50,4a2,2,0,0,0,.64-.84,2,2,0,0,0-1.17.21l0,0,0,0a2,2,0,0,0,.22-1.17,2,2,0,0,0-.87.66,1.68,1.68,0,0,0,.06-.45,2.48,2.48,0,0,0-.6-1.48,2.48,2.48,0,0,0-.6,1.48,1.68,1.68,0,0,0,.06.45,2,2,0,0,0-.87-.66,2,2,0,0,0,.22,1.17l0,0,0,0a2,2,0,0,0-1.17-.21A2,2,0,0,0,46.54,4Zm1.73-.12a2.89,2.89,0,0,0,.29-.42,2.2,2.2,0,0,0,0,.65,1.83,1.83,0,0,0,.39-.2,2.44,2.44,0,0,0-.21.38,1.87,1.87,0,0,0,.63,0A2.39,2.39,0,0,0,49,4.5a2.39,2.39,0,0,0,.39.28,1.87,1.87,0,0,0-.63,0,2.44,2.44,0,0,0,.21.38,1.83,1.83,0,0,0-.39-.2,2.2,2.2,0,0,0,0,.65,2.89,2.89,0,0,0-.29-.42,2.89,2.89,0,0,0-.29.42,2.2,2.2,0,0,0,0-.65,1.83,1.83,0,0,0-.39.2,2.44,2.44,0,0,0,.21-.38,1.87,1.87,0,0,0-.63,0,2.25,2.25,0,0,0,.4-.28,2.25,2.25,0,0,0-.4-.28,1.87,1.87,0,0,0,.63,0,2.44,2.44,0,0,0-.21-.38,1.83,1.83,0,0,0,.39.2,2.2,2.2,0,0,0,0-.65A2.89,2.89,0,0,0,48.27,3.83Z"/><path class="cls-5" d="M59.58,4a2,2,0,0,0-.43-.05,2.47,2.47,0,0,0-1.47.6,2.47,2.47,0,0,0,1.47.6,2,2,0,0,0,.43,0,2,2,0,0,0-.64.84,2,2,0,0,0,1.17-.21l0,0,0,0a2,2,0,0,0-.22,1.17,2,2,0,0,0,.87-.66,1.65,1.65,0,0,0-.06.46,2.47,2.47,0,0,0,.6,1.47,2.47,2.47,0,0,0,.6-1.47,1.65,1.65,0,0,0-.06-.46,2,2,0,0,0,.87.66,2,2,0,0,0-.22-1.17l0,0,0,0a2,2,0,0,0,1.17.21A2,2,0,0,0,63,5.05a1.86,1.86,0,0,0,.42,0,2.48,2.48,0,0,0,1.48-.6,2.48,2.48,0,0,0-1.48-.6A1.86,1.86,0,0,0,63,4a2,2,0,0,0,.64-.84,2,2,0,0,0-1.17.21l0,0,0,0a2,2,0,0,0,.22-1.17,2,2,0,0,0-.87.66,1.68,1.68,0,0,0,.06-.45,2.48,2.48,0,0,0-.6-1.48,2.48,2.48,0,0,0-.6,1.48,1.68,1.68,0,0,0,.06.45,2,2,0,0,0-.87-.66,2,2,0,0,0,.22,1.17l0,0,0,0a2,2,0,0,0-1.17-.21A2,2,0,0,0,59.58,4Zm1.73-.12a2.89,2.89,0,0,0,.29-.42,2.2,2.2,0,0,0,0,.65,1.83,1.83,0,0,0,.39-.2,1.71,1.71,0,0,0-.21.38,1.87,1.87,0,0,0,.63,0,2.25,2.25,0,0,0-.4.28,2.25,2.25,0,0,0,.4.28,1.87,1.87,0,0,0-.63,0,1.71,1.71,0,0,0,.21.38,1.83,1.83,0,0,0-.39-.2,2.2,2.2,0,0,0,0,.65,2.89,2.89,0,0,0-.29-.42,2.89,2.89,0,0,0-.29.42,2.2,2.2,0,0,0,0-.65,1.83,1.83,0,0,0-.39.2,2.44,2.44,0,0,0,.21-.38,1.87,1.87,0,0,0-.63,0,2.39,2.39,0,0,0,.39-.28,2.39,2.39,0,0,0-.39-.28,1.87,1.87,0,0,0,.63,0,2.44,2.44,0,0,0-.21-.38,1.83,1.83,0,0,0,.39.2,2.2,2.2,0,0,0,0-.65A2.89,2.89,0,0,0,61.31,3.83Z"/><path class="cls-6" d="M17,3.56a6.51,6.51,0,0,0-.54.51c0-.17-.15-.37-.32-.39s-.21.11-.26.24a.47.47,0,0,0-.6,0,.46.46,0,0,0,0,.61c-.13,0-.26.13-.25.26s.22.27.39.32a5.16,5.16,0,0,0-.5.54c-.09.09,0,.26.13.19a2.65,2.65,0,0,1,.84-.42,2.42,2.42,0,0,1,.89,0,2.27,2.27,0,0,1,0-.9,2.39,2.39,0,0,1,.41-.83C17.27,3.59,17.11,3.48,17,3.56Z"/><path class="cls-6" d="M30.27,5.21a5.08,5.08,0,0,0-.5-.54c.17,0,.37-.15.39-.32s-.12-.21-.25-.26a.43.43,0,0,0-.61-.61c-.05-.13-.13-.26-.26-.25s-.27.22-.32.39a6.39,6.39,0,0,0-.54-.5c-.1-.09-.26,0-.19.14a2.31,2.31,0,0,1,.41.83,2.22,2.22,0,0,1,0,.89,2.27,2.27,0,0,1,.9,0,2.68,2.68,0,0,1,.83.41C30.25,5.47,30.36,5.31,30.27,5.21Z"/><path class="cls-6" d="M4.38,5.21a6.51,6.51,0,0,0-.51-.54c.18,0,.37-.15.39-.32S4.15,4.14,4,4.09a.44.44,0,0,0-.62-.61c0-.13-.13-.26-.26-.25s-.27.22-.31.39a6.52,6.52,0,0,0-.55-.5c-.09-.09-.26,0-.19.14a2.5,2.5,0,0,1,.42.83,2.42,2.42,0,0,1,0,.89,2.27,2.27,0,0,1,.9,0,2.58,2.58,0,0,1,.83.41C4.35,5.47,4.46,5.31,4.38,5.21Z"/><path class="cls-6" d="M42.91,3.56a6.51,6.51,0,0,0-.54.51c0-.17-.15-.37-.32-.39s-.21.11-.26.24a.47.47,0,0,0-.6,0,.45.45,0,0,0,0,.61c-.13,0-.26.13-.25.26s.22.27.39.32a5.24,5.24,0,0,0-.51.54c-.08.09,0,.26.14.19a2.71,2.71,0,0,1,.83-.42,2.48,2.48,0,0,1,.9,0,2.48,2.48,0,0,1,0-.9,2.6,2.6,0,0,1,.42-.83C43.17,3.59,43,3.48,42.91,3.56Z"/><path class="cls-6" d="M68.72,3.56a6.64,6.64,0,0,0-.55.51c0-.17-.14-.37-.31-.39s-.21.11-.26.24a.48.48,0,0,0-.61,0,.48.48,0,0,0,0,.61c-.13,0-.25.13-.24.26s.21.27.39.32a5.24,5.24,0,0,0-.51.54c-.08.09,0,.26.14.19a2.6,2.6,0,0,1,.83-.42,2.48,2.48,0,0,1,.9,0,2.48,2.48,0,0,1,0-.9,2.6,2.6,0,0,1,.42-.83C69,3.59,68.81,3.48,68.72,3.56Z"/><path class="cls-6" d="M56.17,5.21a6.39,6.39,0,0,0-.5-.54c.17,0,.37-.15.39-.32s-.12-.21-.25-.26a.45.45,0,0,0,0-.6.46.46,0,0,0-.61,0c0-.13-.12-.26-.25-.25s-.27.22-.32.39a5.27,5.27,0,0,0-.55-.5.12.12,0,0,0-.18.14,2.48,2.48,0,0,1,.41.83,2.22,2.22,0,0,1,0,.89,2.22,2.22,0,0,1,.89,0A2.48,2.48,0,0,1,56,5.4C56.15,5.47,56.26,5.31,56.17,5.21Z"/></svg>