<?xml version="1.0" encoding="utf-8"?>
<!-- Generator: Adobe Illustrator 25.0.1, SVG Export Plug-In . SVG Version: 6.00 Build 0)  -->
<svg version="1.1" id="Capa_1" xmlns="http://www.w3.org/2000/svg" xmlns:xlink="http://www.w3.org/1999/xlink" x="0px" y="0px"
	 viewBox="0 0 71 9" style="enable-background:new 0 0 71 9;" xml:space="preserve">
<style type="text/css">
	.st0{fill:none;stroke:#FFFFFF;stroke-width:3;stroke-linecap:square;}
	.st1{fill:#2A4065;}
	.st2{fill:#DDAB68;}
	.st3{fill:#68808C;}
	.st4{fill:#8D3316;}
</style>
<g>
	<path class="st1" d="M10.5,6.6c0.1-0.1,0.3-0.2,0.4-0.4c0,0.1,0.1,0.3,0.2,0.3c0.1,0,0.1-0.1,0.2-0.2c0.1,0.1,0.3,0.1,0.4,0
		c0.1-0.1,0.1-0.3,0-0.4c0.1,0,0.2-0.1,0.2-0.2c0-0.1-0.1-0.2-0.3-0.2c0.1-0.1,0.2-0.2,0.3-0.4C12,5.1,12,5,11.9,5
		c-0.2,0.1-0.4,0.2-0.6,0.3c-0.2,0-0.4,0-0.6,0c0,0.2,0,0.4,0,0.6c-0.1,0.2-0.2,0.4-0.3,0.6C10.4,6.6,10.5,6.7,10.5,6.6z"/>
	<path class="st1" d="M6.6-0.1C6.5,0,6.4,0.1,6.3,0.3C6.2,0.2,6.2,0,6,0C6,0,5.9,0.1,5.9,0.2c-0.1-0.1-0.3-0.1-0.4,0
		c-0.1,0.1-0.1,0.3,0,0.4c-0.1,0-0.2,0.1-0.2,0.2C5.3,0.9,5.4,1,5.5,1C5.4,1.1,5.3,1.3,5.2,1.4c-0.1,0.1,0,0.2,0.1,0.1
		c0.2-0.1,0.4-0.2,0.6-0.3c0.2-0.1,0.4,0,0.6,0c0-0.2,0-0.4,0-0.6C6.5,0.4,6.6,0.2,6.8,0C6.8-0.1,6.7-0.1,6.6-0.1z"/>
	<polygon class="st2" points="10.6,0.4 11.1,-0.2 11.7,0.4 11.1,1 	"/>
	<polygon class="st2" points="5.7,5.8 6.3,5.3 6.9,5.8 6.3,6.4 	"/>
	<g>
		<path class="st3" d="M8.9,5.5c0.1,0,0.2-0.8,0.2-1.9C9.5,4,9.8,4.3,9.9,4.2c0,0-0.2-0.4-0.6-0.8c1.1,0,1.9-0.1,1.9-0.2
			c0-0.1-0.8-0.2-1.9-0.2c0.4-0.4,0.6-0.7,0.6-0.8c0,0-0.4,0.2-0.8,0.6c0-1.1-0.1-1.9-0.2-1.9c-0.1,0-0.2,0.8-0.2,1.9
			C8.2,2.4,7.9,2.1,7.9,2.2c0,0,0.2,0.4,0.6,0.8C7.4,3,6.5,3.1,6.5,3.2c0,0.1,0.8,0.2,1.9,0.2C8.1,3.9,7.8,4.2,7.9,4.2
			c0,0,0.4-0.2,0.8-0.6C8.7,4.7,8.7,5.5,8.9,5.5z M8.6,3.2C8.6,3.1,8.7,3,8.9,3C9,3,9.1,3.1,9.1,3.2c0,0.1-0.1,0.2-0.2,0.2
			C8.7,3.4,8.6,3.3,8.6,3.2z"/>
	</g>
</g>
<g>
	<path class="st4" d="M22.5,7.5c0,0.1,0,0.2,0,0.3c0,0.6,0.4,1,0.4,1s0.4-0.5,0.4-1c0-0.1,0-0.2,0-0.3c0.2,0.3,0.6,0.4,0.6,0.4
		s0.1-0.4-0.1-0.8c0,0,0,0,0,0c0,0,0,0,0,0c0.4,0.2,0.8,0.2,0.8,0.2s-0.1-0.4-0.5-0.6c0.1,0,0.2,0,0.3,0c0.6,0,1-0.4,1-0.4
		s-0.5-0.4-1-0.4c-0.1,0-0.2,0-0.3,0c0.3-0.2,0.5-0.6,0.5-0.6s-0.4-0.1-0.8,0.2c0,0,0,0,0,0c0,0,0,0,0,0c0.2-0.4,0.1-0.8,0.1-0.8
		s-0.4,0.1-0.6,0.4c0-0.1,0-0.2,0-0.3c0-0.6-0.4-1-0.4-1s-0.4,0.5-0.4,1c0,0.1,0,0.2,0,0.3C22.3,4.8,22,4.6,22,4.6s-0.1,0.4,0.1,0.8
		c0,0,0,0,0,0c0,0,0,0,0,0c-0.4-0.2-0.8-0.2-0.8-0.2s0.1,0.4,0.5,0.6c-0.1,0-0.2,0-0.3,0c-0.6,0-1,0.4-1,0.4s0.5,0.4,1,0.4
		c0.1,0,0.2,0,0.3,0c-0.3,0.2-0.5,0.6-0.5,0.6s0.4,0.1,0.8-0.2c0,0,0,0,0,0c0,0,0,0,0,0C21.9,7.5,22,7.9,22,7.9S22.3,7.8,22.5,7.5z
		 M22.4,6.3c0,0-0.1-0.1-0.3-0.2c0.2,0,0.4,0,0.4,0s0-0.1-0.1-0.3C22.6,5.9,22.7,6,22.7,6s0-0.2,0-0.4c0.1,0.2,0.2,0.3,0.2,0.3
		s0.1-0.1,0.2-0.3c0,0.2,0,0.4,0,0.4s0.1,0,0.3-0.1c-0.1,0.1-0.1,0.3-0.1,0.3s0.2,0,0.4,0c-0.2,0.1-0.3,0.2-0.3,0.2s0.1,0.1,0.3,0.2
		c-0.2,0-0.4,0-0.4,0s0,0.1,0.1,0.3c-0.1-0.1-0.3-0.1-0.3-0.1s0,0.2,0,0.4c-0.1-0.2-0.2-0.3-0.2-0.3S22.8,6.9,22.7,7
		c0-0.2,0-0.4,0-0.4s-0.1,0-0.3,0.1c0.1-0.1,0.1-0.3,0.1-0.3s-0.2,0-0.4,0C22.3,6.4,22.4,6.3,22.4,6.3z"/>
	<path class="st2" d="M20.8,4.6c-0.1-0.1-0.2-0.3-0.3-0.4c0.1,0,0.3-0.1,0.3-0.2c0-0.1-0.1-0.1-0.2-0.2c0.1-0.1,0.1-0.3,0-0.4
		c-0.1-0.1-0.3-0.1-0.4,0c0-0.1-0.1-0.2-0.2-0.2c-0.1,0-0.2,0.1-0.2,0.3c-0.1-0.1-0.2-0.2-0.4-0.4c-0.1-0.1-0.2,0-0.1,0.1
		c0.1,0.2,0.2,0.4,0.3,0.6c0,0.2,0,0.4,0,0.6c0.2,0,0.4,0,0.6,0c0.2,0.1,0.4,0.2,0.6,0.3C20.8,4.7,20.8,4.6,20.8,4.6z"/>
	<path class="st2" d="M24.7,8c0.1,0.1,0.2,0.3,0.3,0.4c-0.1,0-0.3,0.1-0.3,0.2c0,0.1,0.1,0.1,0.2,0.2c-0.1,0.1-0.1,0.3,0,0.4
		c0.1,0.1,0.3,0.1,0.4,0c0,0.1,0.1,0.2,0.2,0.2c0.1,0,0.2-0.1,0.2-0.3c0.1,0.1,0.2,0.2,0.4,0.4c0.1,0.1,0.2,0,0.1-0.1
		C26.1,9.2,26,9,25.9,8.8c-0.1-0.2,0-0.4,0-0.6c-0.2,0-0.4,0-0.6,0c-0.2-0.1-0.4-0.2-0.6-0.3C24.7,7.9,24.6,8,24.7,8z"/>
	<path class="st1" d="M40.2,7.9c0.1-0.1,0.3-0.2,0.4-0.4c0,0.1,0.1,0.3,0.2,0.3c0.1,0,0.1-0.1,0.2-0.2c0.1,0.1,0.3,0.1,0.4,0
		c0.1-0.1,0.1-0.3,0-0.4c0.1,0,0.2-0.1,0.2-0.2c0-0.1-0.1-0.2-0.3-0.2c0.1-0.1,0.2-0.2,0.3-0.4c0.1-0.1,0-0.2-0.1-0.1
		c-0.2,0.1-0.4,0.2-0.6,0.3c-0.2,0-0.4,0-0.6,0c0,0.2,0,0.4,0,0.6c-0.1,0.2-0.2,0.4-0.3,0.6C40,7.9,40.1,8,40.2,7.9z"/>
	<polygon class="st2" points="40.2,1.7 40.8,1.1 41.4,1.7 40.8,2.3 	"/>
	<polygon class="st1" points="19.4,8.8 20,8.2 20.6,8.8 20,9.4 	"/>
	<polygon class="st1" points="24.6,3.8 25.2,3.2 25.7,3.8 25.2,4.4 	"/>
	<g>
		<path class="st3" d="M32.5,1.7c0,0,0.5-0.7,1.5-0.9c1-0.2,1.2,0.3,1.2,0.3l0.1,0.2C35.1,1.2,35,1,34.7,1c-0.3-0.1-0.6,0.1-0.8,0.2
			C33.6,1.3,33.1,1.5,32.5,1.7"/>
		<path class="st3" d="M33.2,1.8c0,0,0.8,0.2,0.6,1.1c-0.2,0.9-0.9,2.1-0.8,2.6c0.1,0.5,1.3-0.4,1.3-1.6C34.2,2.6,34,1.8,33.2,1.8"
			/>
		<path class="st3" d="M37.4,3.6c0.4,0.2,0.4,0.3,0.4,0.4c0,0.3-0.8,0.6-1.3,0.7c-0.5,0.1-0.8-0.1-0.9-0.1c-0.2-0.1-0.3-0.2-0.4-0.3
			c0.1,0,0.7,0.4,1.4,0.1C37.2,4.1,37.4,3.7,37.4,3.6"/>
		<path class="st3" d="M37.2,4.8c0.5-0.3,1-0.3,1.2-0.3c0,0.1,0.1,0.2,0.1,0.3c0,0.1-0.1,0.4-0.5,0.6c-0.5,0.3-1.2-0.1-1.2-0.1
			C36.8,5.3,37,5,37.2,4.8"/>
		<path class="st3" d="M32.9,5.8C33,5.9,33.1,6,33.2,6.1c0.5,0.4,1.2,0.3,2.2,0.2c0.5-0.1,1-0.2,1.1-0.2C37,6,37.7,5.8,37.7,5.8
			c0,0,0,0,0,0c0,0.1,0,0.2,0,0.2c-0.1,0.2-0.7,0.7-1.5,1.1c-0.1,0-0.1,0-0.2,0.1l0,0l0,0c-0.3,0.1-0.5,0.1-0.5,0.1
			c-0.6,0.1-1.3-0.1-1.3-0.1c-0.3-0.1-0.5-0.2-0.8-0.4C33,6.4,32.9,6,32.9,5.8"/>
		<path class="st3" d="M34.7,1.4c0,0.1-0.1,0.2-0.2,0.2c-0.1,0-0.2-0.1-0.2-0.2c0-0.1,0.1-0.2,0.2-0.2C34.7,1.2,34.7,1.3,34.7,1.4"
			/>
	</g>
</g>
<g>
	<path class="st4" d="M53,3.8c0,0.1,0,0.2,0,0.3c0,0.6,0.4,1,0.4,1s0.4-0.5,0.4-1c0-0.1,0-0.2,0-0.3c0.2,0.3,0.6,0.4,0.6,0.4
		s0.1-0.4-0.1-0.8c0,0,0,0,0,0c0,0,0,0,0,0C54.5,3.7,55,3.6,55,3.6S54.8,3.2,54.5,3c0.1,0,0.2,0,0.3,0c0.6,0,1-0.4,1-0.4
		s-0.5-0.4-1-0.4c-0.1,0-0.2,0-0.3,0C54.8,2,55,1.7,55,1.7s-0.4-0.1-0.8,0.2c0,0,0,0,0,0c0,0,0,0,0,0C54.4,1.4,54.3,1,54.3,1
		s-0.4,0.1-0.6,0.4c0-0.1,0-0.2,0-0.3c0-0.6-0.4-1-0.4-1s-0.4,0.5-0.4,1c0,0.1,0,0.2,0,0.3C52.7,1.1,52.4,1,52.4,1s-0.1,0.4,0.1,0.8
		c0,0,0,0,0,0c0,0,0,0,0,0c-0.4-0.2-0.8-0.2-0.8-0.2s0.1,0.4,0.5,0.6c-0.1,0-0.2,0-0.3,0c-0.6,0-1,0.4-1,0.4s0.5,0.4,1,0.4
		c0.1,0,0.2,0,0.3,0c-0.3,0.2-0.5,0.6-0.5,0.6s0.4,0.1,0.8-0.2c0,0,0,0,0,0c0,0,0,0,0,0c-0.2,0.4-0.1,0.8-0.1,0.8S52.7,4.1,53,3.8z
		 M52.9,2.6c0,0-0.1-0.1-0.3-0.2c0.2,0,0.4,0,0.4,0s0-0.1-0.1-0.3c0.1,0.1,0.3,0.1,0.3,0.1s0-0.2,0-0.4c0.1,0.2,0.2,0.3,0.2,0.3
		s0.1-0.1,0.2-0.3c0,0.2,0,0.4,0,0.4s0.1,0,0.3-0.1c-0.1,0.1-0.1,0.3-0.1,0.3s0.2,0,0.4,0c-0.2,0.1-0.3,0.2-0.3,0.2s0.1,0.1,0.3,0.2
		c-0.2,0-0.4,0-0.4,0s0,0.1,0.1,0.3c-0.1-0.1-0.3-0.1-0.3-0.1s0,0.2,0,0.4c-0.1-0.2-0.2-0.3-0.2-0.3s-0.1,0.1-0.2,0.3
		c0-0.2,0-0.4,0-0.4S53,3,52.9,3.1C53,2.9,53,2.8,53,2.8s-0.2,0-0.4,0C52.8,2.7,52.9,2.6,52.9,2.6z"/>
	<path class="st2" d="M51.2,0.9c-0.1-0.1-0.2-0.3-0.3-0.4c0.1,0,0.3-0.1,0.3-0.2c0-0.1-0.1-0.1-0.2-0.2c0.1-0.1,0.1-0.3,0-0.4
		c-0.1-0.1-0.3-0.1-0.4,0c0-0.1-0.1-0.2-0.2-0.2c-0.1,0-0.2,0.1-0.2,0.3c-0.1-0.1-0.2-0.2-0.4-0.4c-0.1-0.1-0.2,0-0.1,0.1
		c0.1,0.2,0.2,0.4,0.3,0.6c0,0.2,0,0.4,0,0.6c0.2,0,0.4,0,0.6,0c0.2,0.1,0.4,0.2,0.6,0.3C51.2,1.1,51.3,1,51.2,0.9z"/>
	<path class="st2" d="M55.1,4.4c0.1,0.1,0.2,0.3,0.3,0.4c-0.1,0-0.3,0.1-0.3,0.2c0,0.1,0.1,0.1,0.2,0.2c-0.1,0.1-0.1,0.3,0,0.4
		c0.1,0.1,0.3,0.1,0.4,0c0,0.1,0.1,0.2,0.2,0.2c0.1,0,0.2-0.1,0.2-0.3c0.1,0.1,0.2,0.2,0.4,0.4c0.1,0.1,0.2,0,0.1-0.1
		c-0.1-0.2-0.2-0.4-0.3-0.6c-0.1-0.2,0-0.4,0-0.6c-0.2,0-0.4,0-0.6,0c-0.2-0.1-0.4-0.2-0.6-0.3C55.1,4.2,55,4.3,55.1,4.4z"/>
	<path class="st1" d="M65.9,9.1C66,9,66.1,8.9,66.3,8.7c0,0.1,0.1,0.3,0.2,0.3c0.1,0,0.1-0.1,0.2-0.2c0.1,0.1,0.3,0.1,0.4,0
		c0.1-0.1,0.1-0.3,0-0.4c0.1,0,0.2-0.1,0.2-0.2c0-0.1-0.1-0.2-0.3-0.2c0.1-0.1,0.2-0.2,0.3-0.4c0.1-0.1,0-0.2-0.1-0.1
		c-0.2,0.1-0.4,0.2-0.6,0.3c-0.2,0-0.4,0-0.6,0c0,0.2,0,0.4,0,0.6C66,8.6,65.9,8.8,65.8,9C65.7,9.1,65.8,9.2,65.9,9.1z"/>
	<path class="st1" d="M62,2.4c-0.1,0.1-0.3,0.2-0.4,0.4c0-0.1-0.1-0.3-0.2-0.3c-0.1,0-0.1,0.1-0.2,0.2c-0.1-0.1-0.3-0.1-0.4,0
		c-0.1,0.1-0.1,0.3,0,0.4c-0.1,0-0.2,0.1-0.2,0.2c0,0.1,0.1,0.2,0.3,0.2c-0.1,0.1-0.2,0.2-0.3,0.4c-0.1,0.1,0,0.2,0.1,0.1
		c0.2-0.1,0.4-0.2,0.6-0.3c0.2-0.1,0.4,0,0.6,0c0-0.2,0-0.4,0-0.6c0.1-0.2,0.2-0.4,0.3-0.6C62.1,2.4,62,2.4,62,2.4z"/>
	<polygon class="st2" points="65.9,2.9 66.5,2.3 67,2.9 66.5,3.5 	"/>
	<polygon class="st1" points="49.9,5.1 50.4,4.6 51,5.1 50.4,5.7 	"/>
	<polygon class="st2" points="61.1,8.3 61.6,7.8 62.2,8.3 61.6,8.9 	"/>
	<polygon class="st1" points="55,0.1 55.6,-0.5 56.2,0.1 55.6,0.7 	"/>
	<g>
		<path class="st3" d="M64.2,8.1c0.1,0,0.2-0.8,0.2-1.9c0.4,0.4,0.7,0.6,0.8,0.6c0,0-0.2-0.4-0.6-0.8c1.1,0,1.9-0.1,1.9-0.2
			c0-0.1-0.8-0.2-1.9-0.2c0.4-0.4,0.6-0.7,0.6-0.8c0,0-0.4,0.2-0.8,0.6c0-1.1-0.1-1.9-0.2-1.9c-0.1,0-0.2,0.8-0.2,1.9
			c-0.4-0.4-0.7-0.6-0.8-0.6c0,0,0.2,0.4,0.6,0.8c-1.1,0-1.9,0.1-1.9,0.2c0,0.1,0.8,0.2,1.9,0.2c-0.4,0.4-0.6,0.7-0.6,0.8
			c0,0,0.4-0.2,0.8-0.6C64,7.2,64.1,8.1,64.2,8.1z M64,5.7c0-0.1,0.1-0.2,0.2-0.2c0.1,0,0.2,0.1,0.2,0.2c0,0.1-0.1,0.2-0.2,0.2
			C64.1,5.9,64,5.8,64,5.7z"/>
	</g>
</g>
</svg>
