<svg id="Capa_1" data-name="Capa 1" xmlns="http://www.w3.org/2000/svg" viewBox="0 0 71 9"><defs><style>.cls-1{fill:#2a4065;}.cls-2{fill:#ddab68;}.cls-3{fill:#68808c;}.cls-4{fill:#8d3316;}</style></defs><path class="cls-1" d="M26.48,5.87c.05,0,.11-.09.15-.14s0,.1.09.11.06,0,.07-.07a.14.14,0,0,0,.17,0,.12.12,0,0,0,0-.17A.08.08,0,0,0,27,5.53a.13.13,0,0,0-.11-.09l.14-.16s0-.07,0,0a.63.63,0,0,1-.23.12.65.65,0,0,1-.24,0,.69.69,0,0,1,0,.25.61.61,0,0,1-.11.23S26.46,5.89,26.48,5.87Z"/><path class="cls-1" d="M24.9,3.18s-.11.09-.15.14a.13.13,0,0,0-.09-.11.08.08,0,0,0-.07.07.12.12,0,0,0-.17.17.08.08,0,0,0-.07.08.14.14,0,0,0,.11.08l-.14.16s0,.07,0,0a.63.63,0,0,1,.23-.12.7.7,0,0,1,.25,0,.53.53,0,0,1,0-.25A.61.61,0,0,1,25,3.22S24.93,3.16,24.9,3.18Z"/><polygon class="cls-2" points="26.49 3.37 26.72 3.13 26.95 3.37 26.72 3.6 26.49 3.37"/><polygon class="cls-2" points="24.54 5.57 24.77 5.33 25 5.57 24.77 5.8 24.54 5.57"/><path class="cls-3" d="M25.8,5.45a1.75,1.75,0,0,0,.1-.77c.16.15.29.25.31.23s-.08-.15-.23-.31a1.72,1.72,0,0,0,.76-.1A2,2,0,0,0,26,4.41c.15-.17.25-.3.23-.32s-.15.08-.31.24a1.75,1.75,0,0,0-.1-.77,1.84,1.84,0,0,0-.09.77c-.17-.16-.3-.26-.31-.24s.08.15.23.32a2.06,2.06,0,0,0-.77.09,1.75,1.75,0,0,0,.77.1c-.15.16-.25.3-.23.31s.14-.08.31-.23A1.84,1.84,0,0,0,25.8,5.45Zm-.09-1a.09.09,0,1,1,.09.09A.09.09,0,0,1,25.71,4.5Z"/><path class="cls-3" d="M22,3.37A1,1,0,0,1,22.54,3c.4-.09.5.13.5.13l0,.06a.35.35,0,0,0-.19-.13.43.43,0,0,0-.32.07,5.56,5.56,0,0,1-.6.23"/><path class="cls-3" d="M22.22,3.4a.35.35,0,0,1,.24.44c-.1.35-.38.84-.32,1s.53-.15.52-.66-.11-.82-.44-.83"/><path class="cls-3" d="M24,4.14c.15.06.18.12.18.16s-.32.23-.54.26a.52.52,0,0,1-.35,0,.34.34,0,0,1-.14-.12.63.63,0,0,0,.56,0A.64.64,0,0,0,24,4.14"/><path class="cls-3" d="M23.87,4.63a.87.87,0,0,1,.51-.13.26.26,0,0,1,0,.11.39.39,0,0,1-.2.25.57.57,0,0,1-.5,0,.73.73,0,0,1,.17-.19"/><path class="cls-3" d="M22.13,5a.36.36,0,0,0,.12.13,1.23,1.23,0,0,0,.9.08,2.16,2.16,0,0,0,.43-.09L24,5h0s0,.06,0,.08a1.52,1.52,0,0,1-.6.43l-.07,0h0l-.22,0a1.11,1.11,0,0,1-.51,0,.68.68,0,0,1-.33-.18A.63.63,0,0,1,22.13,5"/><path class="cls-3" d="M22.86,3.24a.05.05,0,0,1-.06.06.06.06,0,0,1-.06-.06.06.06,0,0,1,.06-.06.06.06,0,0,1,.06.06"/><path class="cls-4" d="M31.19,5.19a.49.49,0,0,0,0,.12.74.74,0,0,0,.16.42.71.71,0,0,0,.17-.42s0-.08,0-.12a.53.53,0,0,0,.23.18.51.51,0,0,0-.06-.32h0A.54.54,0,0,0,32,5.1a.6.6,0,0,0-.19-.24l.13,0a.67.67,0,0,0,.41-.17.67.67,0,0,0-.41-.17l-.13,0A.6.6,0,0,0,32,4.32a.54.54,0,0,0-.33.06h0a.54.54,0,0,0,.06-.33.53.53,0,0,0-.23.18s0-.08,0-.12a.67.67,0,0,0-.17-.41.69.69,0,0,0-.16.41.49.49,0,0,0,0,.12A.53.53,0,0,0,31,4.05a.54.54,0,0,0,.06.33h0a.51.51,0,0,0-.32-.06.53.53,0,0,0,.18.24l-.12,0a.67.67,0,0,0-.41.17.67.67,0,0,0,.41.17l.12,0a.53.53,0,0,0-.18.24A.51.51,0,0,0,31,5h0a.51.51,0,0,0-.06.32A.53.53,0,0,0,31.19,5.19Zm0-.48L31,4.63a.62.62,0,0,0,.18,0l0-.11a.44.44,0,0,0,.1.06.9.9,0,0,0,0-.18l.07.11a.56.56,0,0,0,.08-.11.45.45,0,0,0,0,.18l.1-.06a.34.34,0,0,0-.05.11.62.62,0,0,0,.18,0,.5.5,0,0,0-.12.08.5.5,0,0,0,.12.08.62.62,0,0,0-.18,0,.34.34,0,0,0,.05.11l-.1-.06a.45.45,0,0,0,0,.18.56.56,0,0,0-.08-.11L31.27,5a.9.9,0,0,0,0-.18.44.44,0,0,0-.1.06l0-.11a.62.62,0,0,0-.18,0Z"/><path class="cls-2" d="M30.49,4a1.06,1.06,0,0,0-.15-.15c.05,0,.11,0,.11-.09s0-.06-.07-.08a.11.11,0,0,0,0-.16.12.12,0,0,0-.17,0s0-.07-.07-.07a.14.14,0,0,0-.08.11l-.16-.14s-.07,0,0,0A.72.72,0,0,1,30,3.7.7.7,0,0,1,30,4a.7.7,0,0,1,.25,0,1.27,1.27,0,0,1,.23.12S30.51,4,30.49,4Z"/><path class="cls-2" d="M32.05,5.42a1,1,0,0,0,.14.15.13.13,0,0,0-.11.09s0,.06.07.07a.14.14,0,0,0,0,.17.12.12,0,0,0,.17,0s0,.08.07.07.08-.06.09-.11a.66.66,0,0,0,.15.14s.07,0,0,0a.74.74,0,0,1-.11-.24.69.69,0,0,1,0-.25.65.65,0,0,1-.24,0,.61.61,0,0,1-.23-.11S32,5.39,32.05,5.42Z"/><path class="cls-1" d="M37.4,5.87a1,1,0,0,0,.15-.14s0,.1.09.11.06,0,.07-.07a.14.14,0,0,0,.17,0,.12.12,0,0,0,0-.17s.08,0,.07-.07-.06-.08-.11-.09A.7.7,0,0,0,38,5.28s0-.07,0,0a.85.85,0,0,1-.23.12.7.7,0,0,1-.25,0,.7.7,0,0,1,0,.25.63.63,0,0,1-.12.23S37.38,5.89,37.4,5.87Z"/><path class="cls-1" d="M35.82,3.18l-.15.14a.13.13,0,0,0-.09-.11.08.08,0,0,0-.07.07.12.12,0,1,0-.17.17.1.1,0,0,0-.07.08.14.14,0,0,0,.11.08l-.14.16s0,.07,0,0a.63.63,0,0,1,.23-.12.7.7,0,0,1,.25,0,.7.7,0,0,1,0-.25.82.82,0,0,1,.11-.23S35.85,3.16,35.82,3.18Z"/><polygon class="cls-2" points="37.41 3.37 37.64 3.13 37.87 3.37 37.64 3.6 37.41 3.37"/><polygon class="cls-1" points="29.94 5.72 30.17 5.49 30.4 5.72 30.17 5.96 29.94 5.72"/><polygon class="cls-2" points="35.46 5.57 35.69 5.33 35.92 5.57 35.69 5.8 35.46 5.57"/><polygon class="cls-1" points="32.02 3.7 32.25 3.46 32.48 3.7 32.25 3.93 32.02 3.7"/><path class="cls-3" d="M36.72,5.45a1.75,1.75,0,0,0,.1-.77c.16.15.29.25.31.23s-.08-.15-.23-.31a1.72,1.72,0,0,0,.76-.1,2,2,0,0,0-.76-.09c.15-.17.25-.3.23-.32s-.15.08-.31.24a1.75,1.75,0,0,0-.1-.77,2.06,2.06,0,0,0-.09.77c-.16-.16-.29-.26-.31-.24s.08.15.23.32a2,2,0,0,0-.76.09,1.72,1.72,0,0,0,.76.1c-.15.16-.25.3-.23.31s.15-.08.31-.23A2.06,2.06,0,0,0,36.72,5.45Zm-.09-1a.09.09,0,1,1,.09.09A.09.09,0,0,1,36.63,4.5Z"/><path class="cls-3" d="M32.87,3.37a1.08,1.08,0,0,1,.6-.36c.39-.09.49.13.49.13l0,.06a.44.44,0,0,0-.2-.13.43.43,0,0,0-.32.07,5.56,5.56,0,0,1-.6.23"/><path class="cls-3" d="M33.15,3.4a.34.34,0,0,1,.23.44c-.09.35-.38.84-.32,1s.54-.15.52-.66-.1-.82-.43-.83"/><path class="cls-3" d="M34.88,4.14c.15.06.18.12.18.16s-.32.23-.54.26a.52.52,0,0,1-.35,0A.42.42,0,0,1,34,4.39a.64.64,0,0,0,.56,0,.59.59,0,0,0,.29-.29"/><path class="cls-3" d="M34.8,4.63a.83.83,0,0,1,.5-.13.26.26,0,0,1,0,.11.36.36,0,0,1-.2.25.54.54,0,0,1-.49,0,.57.57,0,0,1,.17-.19"/><path class="cls-3" d="M33.05,5a.32.32,0,0,0,.13.13c.21.16.49.13.89.08a2.56,2.56,0,0,0,.44-.09L35,5h0a.11.11,0,0,1,0,.08,1.58,1.58,0,0,1-.61.43l-.07,0h0l-.21,0a1.14,1.14,0,0,1-.52,0,.61.61,0,0,1-.32-.18A.67.67,0,0,1,33.05,5"/><path class="cls-3" d="M33.79,3.24s0,.06-.07.06a.06.06,0,0,1-.06-.06.06.06,0,0,1,.06-.06.07.07,0,0,1,.07.06"/><path class="cls-3" d="M27.37,3.37A1,1,0,0,1,28,3c.4-.09.5.13.5.13l0,.06a.4.4,0,0,0-.19-.13.42.42,0,0,0-.32.07,5.56,5.56,0,0,1-.6.23"/><path class="cls-3" d="M27.64,3.4a.35.35,0,0,1,.24.44c-.1.35-.38.84-.32,1s.53-.15.52-.66-.11-.82-.44-.83"/><path class="cls-3" d="M29.38,4.14c.14.06.18.12.18.16s-.32.23-.54.26a.52.52,0,0,1-.35,0,.34.34,0,0,1-.14-.12.63.63,0,0,0,.56,0,.64.64,0,0,0,.29-.29"/><path class="cls-3" d="M29.29,4.63a.87.87,0,0,1,.51-.13.26.26,0,0,1,0,.11.39.39,0,0,1-.2.25.57.57,0,0,1-.5,0,.73.73,0,0,1,.17-.19"/><path class="cls-3" d="M27.55,5a.36.36,0,0,0,.12.13,1.23,1.23,0,0,0,.9.08A2.16,2.16,0,0,0,29,5.15L29.46,5a0,0,0,0,1,0,0s0,.06,0,.08a1.52,1.52,0,0,1-.6.43l-.07,0h0l-.22,0a1.11,1.11,0,0,1-.51,0,.68.68,0,0,1-.33-.18A.57.57,0,0,1,27.55,5"/><path class="cls-3" d="M28.28,3.24a.05.05,0,0,1-.06.06.06.06,0,0,1-.06-.06.06.06,0,0,1,.06-.06.06.06,0,0,1,.06.06"/><path class="cls-4" d="M42.25,5.19a.49.49,0,0,0,0,.12.74.74,0,0,0,.16.42.71.71,0,0,0,.17-.42.5.5,0,0,0,0-.12.53.53,0,0,0,.24.18.51.51,0,0,0-.06-.32h0a.54.54,0,0,0,.33.06.6.6,0,0,0-.19-.24l.13,0a.71.71,0,0,0,.41-.17A.71.71,0,0,0,43,4.54l-.13,0a.6.6,0,0,0,.19-.24.54.54,0,0,0-.33.06h0a.54.54,0,0,0,.06-.33.53.53,0,0,0-.24.18.5.5,0,0,0,0-.12.67.67,0,0,0-.17-.41.69.69,0,0,0-.16.41.49.49,0,0,0,0,.12A.53.53,0,0,0,42,4.05a.54.54,0,0,0,.06.33h0a.51.51,0,0,0-.32-.06.53.53,0,0,0,.18.24l-.12,0a.67.67,0,0,0-.41.17.67.67,0,0,0,.41.17l.12,0a.53.53,0,0,0-.18.24A.51.51,0,0,0,42.07,5h0a.51.51,0,0,0-.06.32A.53.53,0,0,0,42.25,5.19Zm0-.48-.12-.08a.62.62,0,0,0,.18,0,.67.67,0,0,0-.06-.11l.11.06a.9.9,0,0,0,0-.18l.07.11a.56.56,0,0,0,.08-.11.62.62,0,0,0,0,.18l.11-.06a.67.67,0,0,0-.06.11.62.62,0,0,0,.18,0,.56.56,0,0,0-.11.08.56.56,0,0,0,.11.08.62.62,0,0,0-.18,0,.67.67,0,0,0,.06.11l-.11-.06a.62.62,0,0,0,0,.18.56.56,0,0,0-.08-.11L42.33,5a.9.9,0,0,0,0-.18l-.11.06a.67.67,0,0,0,.06-.11.62.62,0,0,0-.18,0Z"/><path class="cls-2" d="M41.54,4a.66.66,0,0,0-.14-.15c.05,0,.11,0,.11-.09s0-.06-.07-.08a.11.11,0,0,0,0-.16.12.12,0,0,0-.17,0s0-.07-.07-.07-.07.06-.09.11S41,3.48,41,3.43s-.07,0-.05,0A1,1,0,0,1,41,3.7.7.7,0,0,1,41,4a.65.65,0,0,1,.24,0,1.08,1.08,0,0,1,.24.12S41.57,4,41.54,4Z"/><path class="cls-2" d="M43.11,5.42a1,1,0,0,0,.14.15s-.11,0-.11.09,0,.06.07.07a.12.12,0,0,0,.17.17s0,.08.07.07.07-.06.09-.11a.66.66,0,0,0,.15.14s.07,0,.05,0a1.08,1.08,0,0,1-.12-.24.7.7,0,0,1,0-.25.65.65,0,0,1-.24,0,.61.61,0,0,1-.23-.11S43.08,5.39,43.11,5.42Z"/><path class="cls-1" d="M48.46,5.87s.11-.09.15-.14,0,.1.09.11.06,0,.07-.07a.14.14,0,0,0,.17,0,.12.12,0,0,0,0-.17A.08.08,0,0,0,49,5.53s-.06-.08-.11-.09A.7.7,0,0,0,49,5.28s0-.07,0,0a.63.63,0,0,1-.23.12.65.65,0,0,1-.24,0,.7.7,0,0,1,0,.25.84.84,0,0,1-.12.23S48.44,5.89,48.46,5.87Z"/><path class="cls-1" d="M46.88,3.18c-.05,0-.11.09-.15.14a.13.13,0,0,0-.09-.11.08.08,0,0,0-.07.07.12.12,0,0,0-.17.17.08.08,0,0,0-.07.08.14.14,0,0,0,.11.08l-.14.16s0,.07,0,0a.63.63,0,0,1,.23-.12.7.7,0,0,1,.25,0,.7.7,0,0,1,0-.25.61.61,0,0,1,.11-.23S46.91,3.16,46.88,3.18Z"/><polygon class="cls-2" points="48.47 3.37 48.7 3.13 48.93 3.37 48.7 3.6 48.47 3.37"/><polygon class="cls-1" points="40.99 5.72 41.23 5.49 41.46 5.72 41.23 5.96 40.99 5.72"/><polygon class="cls-2" points="46.52 5.57 46.75 5.33 46.98 5.57 46.75 5.8 46.52 5.57"/><polygon class="cls-1" points="43.08 3.7 43.31 3.46 43.54 3.7 43.31 3.93 43.08 3.7"/><path class="cls-3" d="M47.78,5.45a1.75,1.75,0,0,0,.1-.77c.16.15.29.25.31.23s-.08-.15-.23-.31a1.72,1.72,0,0,0,.76-.1A2,2,0,0,0,48,4.41c.15-.17.25-.3.23-.32s-.15.08-.31.24a1.75,1.75,0,0,0-.1-.77,2.06,2.06,0,0,0-.09.77c-.17-.16-.3-.26-.31-.24s.08.15.23.32a2,2,0,0,0-.76.09,1.72,1.72,0,0,0,.76.1c-.15.16-.25.3-.23.31s.14-.08.31-.23A2.06,2.06,0,0,0,47.78,5.45Zm-.09-1a.09.09,0,1,1,.09.09A.09.09,0,0,1,47.69,4.5Z"/><path class="cls-3" d="M43.93,3.37A1.08,1.08,0,0,1,44.52,3c.4-.09.5.13.5.13l0,.06a.44.44,0,0,0-.2-.13.43.43,0,0,0-.32.07,5.56,5.56,0,0,1-.6.23"/><path class="cls-3" d="M44.21,3.4a.34.34,0,0,1,.23.44c-.1.35-.38.84-.32,1s.53-.15.52-.66-.1-.82-.43-.83"/><path class="cls-3" d="M45.94,4.14c.15.06.18.12.18.16s-.32.23-.54.26a.52.52,0,0,1-.35,0,.34.34,0,0,1-.14-.12.59.59,0,0,0,.85-.25"/><path class="cls-3" d="M45.86,4.63a.83.83,0,0,1,.5-.13.26.26,0,0,1,0,.11.36.36,0,0,1-.2.25.54.54,0,0,1-.49,0,.57.57,0,0,1,.17-.19"/><path class="cls-3" d="M44.11,5a.36.36,0,0,0,.12.13,1.23,1.23,0,0,0,.9.08,2.16,2.16,0,0,0,.43-.09L46,5s0,0,0,0,0,.06,0,.08a1.52,1.52,0,0,1-.6.43l-.07,0h0l-.22,0a1.11,1.11,0,0,1-.51,0,.68.68,0,0,1-.33-.18A.63.63,0,0,1,44.11,5"/><path class="cls-3" d="M44.85,3.24s0,.06-.07.06a.06.06,0,0,1-.06-.06.06.06,0,0,1,.06-.06.07.07,0,0,1,.07.06"/><path class="cls-3" d="M38.43,3.37A1,1,0,0,1,39,3c.4-.09.5.13.5.13l0,.06a.39.39,0,0,0-.2-.13.44.44,0,0,0-.32.07,4.57,4.57,0,0,1-.59.23"/><path class="cls-3" d="M38.7,3.4a.35.35,0,0,1,.24.44c-.1.35-.38.84-.33,1s.54-.15.53-.66S39,3.41,38.7,3.4"/><path class="cls-3" d="M40.44,4.14c.14.06.17.12.18.16s-.32.23-.54.26a.52.52,0,0,1-.35,0,.34.34,0,0,1-.14-.12.63.63,0,0,0,.56,0,.64.64,0,0,0,.29-.29"/><path class="cls-3" d="M40.35,4.63a.85.85,0,0,1,.51-.13.65.65,0,0,1,0,.11.43.43,0,0,1-.2.25.57.57,0,0,1-.5,0,.57.57,0,0,1,.17-.19"/><path class="cls-3" d="M38.61,5a.36.36,0,0,0,.12.13,1.23,1.23,0,0,0,.9.08,2.36,2.36,0,0,0,.43-.09L40.52,5a0,0,0,0,1,0,0,.11.11,0,0,1,0,.08,1.5,1.5,0,0,1-.61.43l-.06,0h0l-.22,0a1.11,1.11,0,0,1-.51,0,.64.64,0,0,1-.33-.18A.57.57,0,0,1,38.61,5"/><path class="cls-3" d="M39.34,3.24a.06.06,0,0,1-.12,0,.06.06,0,0,1,.12,0"/></svg>