<svg id="Capa_1" data-name="Capa 1" xmlns="http://www.w3.org/2000/svg" viewBox="0 0 71 9"><defs><style>.cls-1{fill:#fff;}</style></defs><path class="cls-1" d="M41.5,6.47h-12V6.42a1.18,1.18,0,0,0-1.17-1.17h-.06V3.69h.06A1.18,1.18,0,0,0,29.5,2.6V2.55h12v0a1.18,1.18,0,0,0,1.13,1.09h0V5.24h-.06A1.18,1.18,0,0,0,41.5,6.42Zm-11.89-.1H41.4a1.28,1.28,0,0,1,1.22-1.23V3.78a1.28,1.28,0,0,1-1.17-1.13H29.6a1.28,1.28,0,0,1-1.22,1.14V5.14a1.3,1.3,0,0,1,1.23,1.23"/><path class="cls-1" d="M41.26,6.27H29.67v0a1.39,1.39,0,0,0-1.2-1.2h0V3.89h0a1.37,1.37,0,0,0,1.18-1.12H41.33a1.39,1.39,0,0,0,1.14,1.11h0V5.05h0a1.37,1.37,0,0,0-1.2,1.2Zm-11.56,0H41.23A1.41,1.41,0,0,1,42.45,5V3.91A1.42,1.42,0,0,1,41.3,2.79H29.68a1.39,1.39,0,0,1-1.19,1.12V5A1.42,1.42,0,0,1,29.7,6.23"/><path class="cls-1" d="M32.92,3.46h-.26v.06a.06.06,0,0,0,0,0l0,0c-.07.12-.14.23-.2.35l-.21.35L32,4.61,32,4.74h0a1.37,1.37,0,0,1-.17.17,1.1,1.1,0,0,1-.21.14l-.2.07a.75.75,0,0,1-.21,0A.39.39,0,0,1,31,5.08a.34.34,0,0,1-.14-.17.4.4,0,0,1,0-.15.76.76,0,0,1,0-.15l.06-.15A.38.38,0,0,1,31,4.33l.11-.11.13-.09.07,0h.07a.09.09,0,0,1,.07,0l.06,0,.15,0h.16l.05,0a.08.08,0,0,0,0,0,.08.08,0,0,0,0-.05.09.09,0,0,0,0,0l-.08,0-.1,0h-.22l0,0s0,0,0,0,0,0,0,0h.11a.17.17,0,0,0,.1,0l.3,0a1,1,0,0,0,.28-.13.28.28,0,0,0,.09-.07.61.61,0,0,0,.07-.1.25.25,0,0,0,0-.12.21.21,0,0,0,0-.11l-.07,0-.1,0H32l-.25,0a.91.91,0,0,0-.22.11.74.74,0,0,0-.19.16.65.65,0,0,0-.11.22.42.42,0,0,1-.14-.06.32.32,0,0,1-.1-.1.2.2,0,0,1,0-.13A.21.21,0,0,1,31,3.38a.26.26,0,0,1,.12,0h.22s0,0,0,0,0,0,0-.05,0,0-.06,0h-.17l-.08,0h0a.31.31,0,0,0-.1,0l-.07.09a.18.18,0,0,0,0,.1.14.14,0,0,0,0,.11.21.21,0,0,0,.06.1l.1.07.11,0,.11,0a.41.41,0,0,1,0,.08l0,.07-.15,0L31,4.13a1.12,1.12,0,0,0-.22.16,1.18,1.18,0,0,0-.17.22.81.81,0,0,0-.08.25.52.52,0,0,0,.05.27.71.71,0,0,0,.08.15l.13.1.15,0,.16,0h.17l.15,0a.91.91,0,0,0,.22-.11,1.49,1.49,0,0,0,.2-.15l0,0V5a.68.68,0,0,0,0,.14.21.21,0,0,0,0,.12.15.15,0,0,0,.12,0,.4.4,0,0,0,.21-.09.81.81,0,0,0,.16-.16,1.24,1.24,0,0,0,.14-.18,1.27,1.27,0,0,1,.13-.19h0a0,0,0,0,0,0,0s0,0,0,0,0,0,0,0l0,0,0,0-.08.13L32.37,5l-.11.12a.94.94,0,0,1-.12.09s0,0-.06,0,0,0,0,0a.14.14,0,0,1,0-.06.16.16,0,0,1,0-.06c.06-.13.13-.26.2-.38s.14-.25.22-.37l.21-.36.21-.37v0s0,0,0,0M31.54,4h.1l0,0s0,0,0,0h0l-.07,0L31.5,4h0m0-.32a.2.2,0,0,1,0-.08.69.69,0,0,1,.11-.13l.14-.1.12-.06.13,0h.12l.05,0,0,.05a.11.11,0,0,1,0,.1.25.25,0,0,1-.08.1l-.1.07-.1,0a.73.73,0,0,1-.24.07,1.06,1.06,0,0,1-.25,0l0-.08"/><path class="cls-1" d="M35.12,5a.56.56,0,0,0,.1-.15,1.09,1.09,0,0,0,.08-.15l0-.1a.37.37,0,0,0,0-.11.36.36,0,0,0,0-.11.2.2,0,0,0-.11-.11.41.41,0,0,0-.16,0,.65.65,0,0,0-.19,0l-.16.09h0a1.27,1.27,0,0,0-.27.25,1.17,1.17,0,0,0-.17.28A.83.83,0,0,1,34,5l-.15,0h-.15a.33.33,0,0,1-.14,0,.38.38,0,0,1-.11-.11.28.28,0,0,1,0-.12.59.59,0,0,1,0-.14s0-.09,0-.13l0-.13a2.52,2.52,0,0,1,.13-.33,3.14,3.14,0,0,1,.18-.31,1.52,1.52,0,0,1,.22-.22.74.74,0,0,1,.28-.14h.24l.07,0a.18.18,0,0,1,.08.11.3.3,0,0,1,0,.13.77.77,0,0,1,0,.15L34.53,4l-.09.13-.12.08a.28.28,0,0,1-.13,0,.13.13,0,0,1-.12-.07.14.14,0,0,1,0-.06s0,0,0-.07,0,0,0-.06l0-.06a.18.18,0,0,1,.07-.05l.06,0,0,0s0,0,0,0,0,0,0,0h-.06l-.06,0,0,0a.43.43,0,0,0-.12.11.31.31,0,0,0-.08.15.39.39,0,0,0,0,.15.27.27,0,0,0,.07.14.18.18,0,0,0,.12.05.32.32,0,0,0,.14,0l.15-.07.12-.1a.65.65,0,0,0,.11-.12.57.57,0,0,0,.08-.13.61.61,0,0,0,.07-.14.83.83,0,0,0,0-.15.42.42,0,0,0,0-.16.27.27,0,0,0-.07-.14l-.11-.08-.12,0h-.14l-.13,0a1.08,1.08,0,0,0-.3.16,2,2,0,0,0-.27.22,1.7,1.7,0,0,0-.22.24,1.85,1.85,0,0,0-.19.27,1.66,1.66,0,0,0-.12.31,1.12,1.12,0,0,0,0,.32.77.77,0,0,0,0,.15.34.34,0,0,0,.06.15.44.44,0,0,0,.22.22l.15,0h.16l.15,0L34,5.23a1.08,1.08,0,0,0,.24-.18h0a.32.32,0,0,0,.06.18.3.3,0,0,0,.13.09.49.49,0,0,0,.17,0,.47.47,0,0,0,.16,0l.14-.08L35,5.1,35.12,5m-.25,0-.15.16h0l-.08,0a.1.1,0,0,1-.09,0,.09.09,0,0,1-.06,0,.11.11,0,0,1,0-.06V5.07h0a.76.76,0,0,1,.06-.18,1.3,1.3,0,0,1,.11-.19l.14-.18A1.14,1.14,0,0,1,35,4.36l.07,0a.15.15,0,0,1,.09,0s0,0,0,0a.13.13,0,0,1,0,.06v0a0,0,0,0,1,0,0,.7.7,0,0,1-.06.17,1.74,1.74,0,0,1-.1.19,1.88,1.88,0,0,1-.12.18"/><path class="cls-1" d="M40.42,4.68h-.05l0,0-.1.13-.1.14A.57.57,0,0,1,40,5.1L40,5.16s0,0,0,0a.13.13,0,0,1,0-.06.17.17,0,0,1,0-.07.19.19,0,0,1,0-.07.21.21,0,0,0,0-.06.43.43,0,0,1,0-.07l.15-.23.16-.23,0,0a0,0,0,0,0,0,0s0,0,0,0h0l-.08,0-.08,0h-.07l-.06,0,0,0,0,0h0l-.16.29a2.75,2.75,0,0,1-.17.29,2.56,2.56,0,0,1-.2.26l-.07.06a.48.48,0,0,1-.22.12l0,0,.12-.11L39.38,5a.56.56,0,0,0,.1-.15,1.09,1.09,0,0,0,.08-.15l0-.1a.37.37,0,0,0,0-.11.18.18,0,0,0,0-.11.2.2,0,0,0-.11-.11.22.22,0,0,0-.16,0,.53.53,0,0,0-.18,0L39,4.35h0a1.12,1.12,0,0,0-.28.25.86.86,0,0,0-.17.31.19.19,0,0,0,0,.07s0,0,0,.07h0l0,0a.45.45,0,0,1-.13.11h0a0,0,0,0,1,0,0,0,0,0,0,1,0,0,.09.09,0,0,1,0,0l0-.11.07-.11a.54.54,0,0,0,0-.11l.06-.11.28-.5c.1-.16.19-.32.28-.49l0,0,0-.07s0,0,0-.06,0,0,0,0H38.9l0,0s0,0,0,0a0,0,0,0,1,0,0l0,.05,0,0c-.12.23-.26.47-.39.69l0,0-.05,0h-.07l-.07,0a.64.64,0,0,0-.25.12.8.8,0,0,0-.17.15l-.15.17-.09.16,0,0L37.37,5l-.14.11-.08,0-.09,0a.08.08,0,0,1-.07,0,.09.09,0,0,1,0-.08s0,0,0-.08L37,5s0,0,0-.06a.16.16,0,0,1,0-.06s0,0,0,0h.06l.09,0,.08,0,.16-.08a.69.69,0,0,0,.13-.11l0-.06,0-.07s0,0,0-.08a.19.19,0,0,0,0-.07.11.11,0,0,0-.09,0h-.1l-.14,0a.61.61,0,0,0-.14.07,1.55,1.55,0,0,0-.24.19.85.85,0,0,0-.17.25l-.06.11,0,.11h0l-.1.09-.07.06a.09.09,0,0,1-.08,0,0,0,0,0,1,0,0V5.12a2.63,2.63,0,0,1,.2-.33,2.21,2.21,0,0,0,.18-.34.15.15,0,0,0,0-.07.13.13,0,0,0,0-.06.14.14,0,0,0,0-.06l-.06,0-.09,0-.08,0-.09,0-.07,0,0,0s0,0,0,0,0,0,0,0h0s0,0,0,0v0a.14.14,0,0,0,0-.07l-.05,0-.06,0h-.06a.3.3,0,0,0-.16.08l-.14.11,0-.08a.14.14,0,0,0,0-.09h-.22s0,0,0,0l0,0s0,0,0,.06,0,0,0,0c-.08.16-.17.31-.25.46s-.17.3-.26.45h.25l.09-.14L35.41,5l.15-.25.17-.24,0,0,.05,0,.06-.06.07,0,.05,0s0,0,0,0,0,0,0,0v0l0,0,0,0a.83.83,0,0,1-.07.13s0,.09-.07.13l-.15.27-.15.27h.23l.33-.53.11-.18c0-.06.09-.12.14-.17l0,0s0,0,0,0l0,0h.05s0,0,0,0a.2.2,0,0,1,0,.07l0,.08,0,0a1.18,1.18,0,0,1-.11.19L36.24,5l0,.07,0,.08a.19.19,0,0,0,0,.08.1.1,0,0,0,0,.07.1.1,0,0,0,.05.06l.07,0h.07l.08,0a.4.4,0,0,0,.15-.1l.1-.1h0a.35.35,0,0,0,0,.11.24.24,0,0,0,.08.09.23.23,0,0,0,.11,0H37l.11,0,.08,0,.11-.1L37.46,5l0,0s0,.07,0,.11a.27.27,0,0,0,0,.09.36.36,0,0,0,0,.09l.06.06h.09a.28.28,0,0,0,.12,0,.73.73,0,0,0,.09-.08l.1-.09.08-.09a.34.34,0,0,0,0,.1.2.2,0,0,0,0,.11.11.11,0,0,0,.09.05.14.14,0,0,0,.11,0,.92.92,0,0,0,.22-.17.93.93,0,0,0,0,.1.22.22,0,0,0,.13.08.33.33,0,0,0,.17,0,.42.42,0,0,0,.16,0h.13a.41.41,0,0,0,.16,0l.09-.09a2.55,2.55,0,0,0,.18-.22l.15-.24.14-.23s0,0,0,0H40a.09.09,0,0,1,.07,0l-.09.1-.1.11-.09.1a.5.5,0,0,0-.08.12.51.51,0,0,0,0,.1.56.56,0,0,0,0,.12.41.41,0,0,0,0,.11.15.15,0,0,0,.08.08h.09l.1,0A.16.16,0,0,0,40,5.23l.08-.06.09-.11L40.23,5l.08-.1.09-.13a.14.14,0,0,0,0-.06m-3.24-.1a1,1,0,0,1,.13-.16l0,0s0,0,0,0l.05,0,0,0h0s0,0,0,0a.31.31,0,0,1,0,.08l0,.06a.18.18,0,0,1,0,.07l-.06.06-.13.11a.3.3,0,0,1-.16,0l.11-.17m1,.21a2.08,2.08,0,0,1-.29.36l0,0a.09.09,0,0,1-.06,0h-.06s0,0,0,0a.12.12,0,0,1,0-.1.31.31,0,0,1,0-.12,1,1,0,0,1,.07-.15,1.13,1.13,0,0,0,.1-.13L38,4.57,38,4.5a.73.73,0,0,1,.08-.09l.09-.08.09,0a.08.08,0,0,1,.05.08,1.48,1.48,0,0,1-.17.41m.7.43a.1.1,0,0,1-.09,0l-.06,0a.13.13,0,0,1,0-.06V5.07h0a.64.64,0,0,1,.06-.18l.11-.19L39,4.51a1.14,1.14,0,0,1,.17-.15l.08-.05a.11.11,0,0,1,.08,0s0,0,0,0a.17.17,0,0,1,0,.07v0a0,0,0,0,1,0,0,.7.7,0,0,1-.06.17l-.09.19L39.13,5,39,5.17h0l-.08,0"/><path class="cls-1" d="M41.45,1.79a.19.19,0,0,0-.2.19h0a.18.18,0,0,0,.07.13.1.1,0,0,0,.07,0h0A.09.09,0,0,0,41.51,2a.1.1,0,0,0-.09-.1.08.08,0,0,0-.08.05V2a.11.11,0,0,1,.12-.11.16.16,0,0,1,.16.17c0,.21-.2.25-.36.25h-2.7l.09-.07a.27.27,0,0,0,0-.38.32.32,0,0,0-.19-.07.2.2,0,0,0-.11,0,.16.16,0,0,0,0,.25.14.14,0,0,0,.14,0l0,0a.14.14,0,0,0,0-.06.09.09,0,0,0-.09-.09.08.08,0,0,0-.07.05h0a.08.08,0,0,1,.05-.07.23.23,0,0,1,.21,0,.25.25,0,0,1,.06.14.18.18,0,0,1-.06.14.32.32,0,0,1-.23.09A.82.82,0,0,1,38,2.16a2,2,0,0,1-.37-.24,2.16,2.16,0,0,0-.36-.22l-.11-.05h0a.92.92,0,0,0-.28,0,.46.46,0,0,0-.37.16.42.42,0,0,0-.07.38.3.3,0,0,0,.09.13h0a1.46,1.46,0,0,1-.22,0,.43.43,0,0,1-.15-.09l0,0v0a.15.15,0,0,1-.09.13h-.1c-.17,0-.36,0-.36-.25a.17.17,0,0,1,.16-.17.11.11,0,0,1,.12.11V2a.09.09,0,1,0-.08.14h0a.08.08,0,0,0,.08,0A.18.18,0,0,0,35.92,2h0a.18.18,0,0,0-.19-.19A.23.23,0,0,0,35.5,2a.23.23,0,0,0-.23-.19.19.19,0,0,0-.2.19h0s0,.09.08.13a.1.1,0,0,0,.07,0h0A.09.09,0,1,0,35.16,2h0a.12.12,0,0,1,.12-.12.17.17,0,0,1,.16.17c0,.21-.2.25-.36.25H35a.15.15,0,0,1-.09-.13v0l0,0a.43.43,0,0,1-.15.09,1.46,1.46,0,0,1-.22,0h0a.3.3,0,0,0,.09-.13.42.42,0,0,0-.07-.38.46.46,0,0,0-.37-.16.92.92,0,0,0-.28,0h0l-.12.05a2.64,2.64,0,0,0-.35.23,2.85,2.85,0,0,1-.37.23.85.85,0,0,1-.34.1.32.32,0,0,1-.23-.09A.2.2,0,0,1,32.35,2a.16.16,0,0,1,.06-.13.2.2,0,0,1,.21,0s.05,0,.05.07h0a.08.08,0,0,0-.08-.05.09.09,0,0,0-.08.09.14.14,0,0,0,0,.06l0,0a.14.14,0,0,0,.14,0,.16.16,0,0,0,0-.25.23.23,0,0,0-.11,0,.32.32,0,0,0-.19.07.27.27,0,0,0-.08.19.3.3,0,0,0,.08.2.47.47,0,0,0,.09.06h-2.7c-.17,0-.36,0-.36-.25a.17.17,0,0,1,.16-.17.12.12,0,0,1,.12.12V2A.08.08,0,0,0,29.58,2a.09.09,0,0,0-.09.09.1.1,0,0,0,.09.1h0a.13.13,0,0,0,.08,0A.19.19,0,0,0,29.74,2h0a.18.18,0,0,0-.19-.19.24.24,0,0,0-.24.24c0,.12.06.33.44.33h5.32c.33,0,.41-.16.43-.28,0,.12.1.28.43.28h5.32c.38,0,.43-.21.43-.33a.23.23,0,0,0-.23-.24m-8.58.49A.42.42,0,0,0,33,2.22,1.87,1.87,0,0,0,33.39,2l.14-.09a.21.21,0,0,0,0,.06.32.32,0,0,0,0,.33h-.63Zm1.47,0h-.1a.08.08,0,0,0,.08-.09l0,0s0,0-.08,0a.12.12,0,0,0-.1.12.14.14,0,0,0,.05.1h-.34a.14.14,0,0,0,0-.14.15.15,0,0,0-.09-.1h0a.13.13,0,0,0-.11.05.09.09,0,0,0,0,.11l0,0h0s.09,0,.09-.09v0a.08.08,0,0,1,0,.08.14.14,0,0,1-.1,0h0a.12.12,0,0,1-.1,0c-.07-.07,0-.19,0-.25a.7.7,0,0,1,.29-.27.86.86,0,0,1,.27-.05.41.41,0,0,1,.31.13.32.32,0,0,1,.06.31.19.19,0,0,1-.15.15m3.1,0a.14.14,0,0,1-.1,0h0a.12.12,0,0,1-.1,0,.08.08,0,0,1,0-.08v0a.1.1,0,0,0,.08.09h0l0,0a.09.09,0,0,0,0-.11A.11.11,0,0,0,37.29,2h0a.15.15,0,0,0-.09.1.14.14,0,0,0,0,.14h-.34a.14.14,0,0,0,.05-.1.12.12,0,0,0-.1-.12.1.1,0,0,0-.09,0,.09.09,0,0,0,0,0,.08.08,0,0,0,.08.09h-.1a.18.18,0,0,1-.15-.15.32.32,0,0,1,.06-.31.41.41,0,0,1,.31-.13.86.86,0,0,1,.27.05.7.7,0,0,1,.29.27.25.25,0,0,1,0,.25m.05,0h0a.32.32,0,0,0,0-.33s0,0,0-.06l.14.09a2.12,2.12,0,0,0,.37.24.47.47,0,0,0,.15.06Z"/><path class="cls-1" d="M41.25,6.7H35.93c-.33,0-.41.15-.43.27,0-.12-.1-.27-.43-.27H29.75c-.38,0-.43.21-.43.33a.23.23,0,0,0,.23.24.19.19,0,0,0,.2-.19h0A.19.19,0,0,0,29.67,7a.11.11,0,0,0-.07,0h0a.1.1,0,0,0-.09.1.09.09,0,0,0,.09.09.08.08,0,0,0,.08-.05v0a.12.12,0,0,1-.12.12A.17.17,0,0,1,29.39,7c0-.21.2-.25.36-.25h2.7l-.09.07a.28.28,0,0,0-.08.2.27.27,0,0,0,.08.19.32.32,0,0,0,.19.07.2.2,0,0,0,.11,0,.17.17,0,0,0,.08-.13.14.14,0,0,0,0-.12.14.14,0,0,0-.14,0l0,0a.14.14,0,0,0,0,.06.09.09,0,0,0,.09.09.08.08,0,0,0,.07,0h0a.1.1,0,0,1-.05.07.2.2,0,0,1-.21,0A.2.2,0,0,1,32.35,7a.2.2,0,0,1,.06-.15.32.32,0,0,1,.23-.09.85.85,0,0,1,.34.1,1.93,1.93,0,0,1,.37.23,3.17,3.17,0,0,0,.36.23l.11,0h0a.92.92,0,0,0,.28,0,.46.46,0,0,0,.37-.16.42.42,0,0,0,.07-.38.34.34,0,0,0-.09-.14h0a.78.78,0,0,1,.22,0,.43.43,0,0,1,.15.09l0,0v0A.15.15,0,0,1,35,6.79l.05,0h0c.17,0,.36.05.36.26a.16.16,0,0,1-.16.16.11.11,0,0,1-.12-.11v0a.08.08,0,0,0,.08.05A.09.09,0,0,0,35.33,7a.09.09,0,0,0-.09-.1h0l-.08,0a.18.18,0,0,0-.07.13h0a.18.18,0,0,0,.19.19.23.23,0,0,0,.23-.2.23.23,0,0,0,.23.2.19.19,0,0,0,.2-.19h0s0-.09-.08-.13l-.07,0h0a.09.09,0,0,0-.09.1.09.09,0,0,0,.09.09.08.08,0,0,0,.08-.05v0a.11.11,0,0,1-.12.11A.16.16,0,0,1,35.57,7c0-.21.2-.26.36-.26h0l.05,0a.15.15,0,0,1,.09.12v0l0,0a.43.43,0,0,1,.15-.09l.22,0h0a.34.34,0,0,0-.09.14.42.42,0,0,0,.07.38.49.49,0,0,0,.37.16.71.71,0,0,0,.28-.06h0l.12,0,.35-.23A2.85,2.85,0,0,1,38,6.9a.72.72,0,0,1,.34-.1.32.32,0,0,1,.23.09.2.2,0,0,1,.06.14.17.17,0,0,1-.06.14.18.18,0,0,1-.21,0,.08.08,0,0,1-.05-.07h0a.08.08,0,0,0,.08,0,.09.09,0,0,0,.08-.09.14.14,0,0,0,0-.06l0,0a.12.12,0,0,0-.14,0,.13.13,0,0,0,0,.12.17.17,0,0,0,.08.13.22.22,0,0,0,.11,0,.26.26,0,0,0,.19-.07A.25.25,0,0,0,38.72,7a.28.28,0,0,0-.08-.2l-.09-.07h2.7c.17,0,.36.05.36.26a.16.16,0,0,1-.16.16.11.11,0,0,1-.12-.11v0a.08.08,0,0,0,.08.05.09.09,0,0,0,.09-.1.09.09,0,0,0-.09-.09h0l-.08,0a.18.18,0,0,0-.07.13h0a.18.18,0,0,0,.19.19A.24.24,0,0,0,41.69,7c0-.13-.06-.33-.44-.33m-7.86.37A3.37,3.37,0,0,0,33,6.83l-.15-.06h.63a.32.32,0,0,0,0,.33s0,0,0,.06l-.14-.1M34.49,7a.31.31,0,0,1-.06.31.38.38,0,0,1-.31.14.66.66,0,0,1-.27-.06.63.63,0,0,1-.29-.26.27.27,0,0,1,0-.26.13.13,0,0,1,.1,0h0a.12.12,0,0,1,.1,0,.08.08,0,0,1,0,.08v0a.09.09,0,0,0-.08-.08h0s0,0,0,0a.09.09,0,0,0,0,.11.13.13,0,0,0,.11,0h0a.12.12,0,0,0,.09-.09.14.14,0,0,0,0-.14v0h.35a.12.12,0,0,0-.05.1.11.11,0,0,0,.1.11.08.08,0,0,0,.09,0,.07.07,0,0,0,0,0,.08.08,0,0,0-.08-.08h.1a.18.18,0,0,1,.15.14m2.66.39a.88.88,0,0,1-.27.06.38.38,0,0,1-.31-.14A.31.31,0,0,1,36.51,7a.19.19,0,0,1,.15-.14h.1a.08.08,0,0,0-.08.08.08.08,0,0,0,0,0,.06.06,0,0,0,.08,0,.11.11,0,0,0,.1-.11.12.12,0,0,0-.05-.1h.35v0a.14.14,0,0,0,0,.14.14.14,0,0,0,.09.09h0A.11.11,0,0,0,37.4,7a.08.08,0,0,0,0-.1s0,0,0,0h0a.09.09,0,0,0-.09.08v0a.08.08,0,0,1,0-.08.17.17,0,0,1,.1-.06h0a.12.12,0,0,1,.1.05.24.24,0,0,1,0,.26.69.69,0,0,1-.29.26M38,6.83a3.52,3.52,0,0,0-.38.24l-.14.1a.21.21,0,0,0,0-.06.32.32,0,0,0,0-.33h.63L38,6.83"/><path class="cls-1" d="M43.2,5.42a.2.2,0,0,0-.15-.06s-.09,0-.11.06a.12.12,0,0,0,0,.1.06.06,0,0,0,.06,0h0a0,0,0,0,0,0,0s0,0,0,0h0s0,0,.05,0a.07.07,0,0,1,.08,0,.15.15,0,0,1,0,.09.27.27,0,0,1-.11.25.81.81,0,0,1-.42.08h-.26a1.16,1.16,0,0,0-.32,0,.37.37,0,0,0-.29.42.35.35,0,0,0,.26.29.25.25,0,0,0,.12,0,.32.32,0,0,0,.25-.1.28.28,0,0,0,.08-.2.23.23,0,0,0-.08-.18.28.28,0,0,0-.2-.09.25.25,0,0,0-.12,0,.16.16,0,0,0-.09.11.2.2,0,0,0,0,.15.16.16,0,0,0,.12.07.12.12,0,0,0,.1,0,0,0,0,0,0,0,0s0,0,0,0a0,0,0,0,0-.06,0l0,0h0a.08.08,0,0,1-.06,0,.11.11,0,0,1,0-.08s0,0,.05-.06a.19.19,0,0,1,.23,0,.17.17,0,0,1,0,.12.2.2,0,0,1-.06.15.3.3,0,0,1-.29.06.29.29,0,0,1,0-.56.92.92,0,0,1,.29,0h.26a.78.78,0,0,0,.46-.1.34.34,0,0,0,.15-.32.26.26,0,0,0-.06-.13"/><path class="cls-1" d="M42.07,3.13a1.17,1.17,0,0,0,.32,0h.26a.73.73,0,0,1,.42.09.25.25,0,0,1,.11.24.15.15,0,0,1,0,.09.08.08,0,0,1-.08,0s-.05,0-.05,0h0a0,0,0,0,0,0,0,0,0,0,0,0,0,0l0,0h0a.06.06,0,0,0-.06,0,.12.12,0,0,0,0,.1c0,.05.09.06.11.06h0a.18.18,0,0,0,.13-.06.26.26,0,0,0,.06-.13.34.34,0,0,0-.15-.32.78.78,0,0,0-.46-.1h-.26a1.53,1.53,0,0,1-.3,0,.29.29,0,0,1-.23-.34.29.29,0,0,1,.2-.23.3.3,0,0,1,.29.06.22.22,0,0,1,.06.15.19.19,0,0,1,0,.13.2.2,0,0,1-.23,0,.12.12,0,0,1-.05-.07.11.11,0,0,1,0-.08.07.07,0,0,1,.06,0h0a0,0,0,0,0,.06,0,.05.05,0,0,0,0-.06.1.1,0,0,0-.1,0,.16.16,0,0,0-.12.06.21.21,0,0,0,0,.15.15.15,0,0,0,.08.11.22.22,0,0,0,.13,0,.28.28,0,0,0,.2-.09.25.25,0,0,0,.08-.18.3.3,0,0,0-.08-.2.33.33,0,0,0-.25-.1.32.32,0,0,0-.13,0,.37.37,0,0,0-.25.29.37.37,0,0,0,.29.42"/><path class="cls-1" d="M28.93,5.93a1.17,1.17,0,0,0-.32,0h-.26a.72.72,0,0,1-.42-.08.26.26,0,0,1-.11-.25.12.12,0,0,1,0-.08.1.1,0,0,1,.08,0l0,0h0s0,0,0,0a0,0,0,0,0,0,0h0a.06.06,0,0,0,.06,0,.1.1,0,0,0,0-.09S28,5.37,28,5.36a.2.2,0,0,0-.15.06.35.35,0,0,0-.06.14.33.33,0,0,0,.15.31.71.71,0,0,0,.46.1h.26a1,1,0,0,1,.3,0,.28.28,0,0,1,.23.33.27.27,0,0,1-.2.23.27.27,0,0,1-.29-.06.19.19,0,0,1-.06-.15.17.17,0,0,1,.05-.12.19.19,0,0,1,.23,0s0,0,.05.06a.15.15,0,0,1,0,.09l-.06,0h0l0,0h-.06s0,0,0,.06a.12.12,0,0,0,.1,0A.14.14,0,0,0,29,6.38a.18.18,0,0,0,0-.14.2.2,0,0,0-.08-.12.31.31,0,0,0-.13,0,.32.32,0,0,0-.2.08.3.3,0,0,0-.08.18.3.3,0,0,0,.08.21.37.37,0,0,0,.25.1l.13,0a.39.39,0,0,0,.25-.29.37.37,0,0,0-.29-.42"/><path class="cls-1" d="M29,2.42l-.12,0a.36.36,0,0,0-.25.1.32.32,0,0,0-.08.21.25.25,0,0,0,.08.18.32.32,0,0,0,.2.08.24.24,0,0,0,.12,0A.17.17,0,0,0,29,2.68a.14.14,0,0,0-.12-.07.1.1,0,0,0-.1.05s0,0,0,0a0,0,0,0,0,0,0,.06.06,0,0,0,.06,0l0,0h0a.11.11,0,0,1,.06,0,.15.15,0,0,1,0,.09s0,0-.05.06a.19.19,0,0,1-.23,0,.17.17,0,0,1-.05-.12.19.19,0,0,1,.06-.15.27.27,0,0,1,.29-.06.27.27,0,0,1,.2.23.28.28,0,0,1-.24.33.92.92,0,0,1-.29,0h-.26a.78.78,0,0,0-.46.1.33.33,0,0,0-.15.31.35.35,0,0,0,.06.14.18.18,0,0,0,.13.06h0s.09,0,.11-.07a.1.1,0,0,0,0-.09.06.06,0,0,0-.06,0h0v0s0,0,0,0h0a.08.08,0,0,1,0,0,.09.09,0,0,1-.08,0,.12.12,0,0,1,0-.08.26.26,0,0,1,.11-.25.72.72,0,0,1,.42-.08h.26a1.16,1.16,0,0,0,.32,0,.39.39,0,0,0,.29-.43A.38.38,0,0,0,29,2.42"/><path class="cls-1" d="M32.48.47h0s0,0,0,0a.15.15,0,0,0,0-.06V.16a0,0,0,0,0,0,0h.06s0,0,0,0V.28h.24V.17s0,0,0,0h.05v.2a.17.17,0,0,0,0,.08,0,0,0,0,0,0,0h-.09s0,0,0,0,0,0,0,0,0,0,0,0V.3h-.24V.44h-.08"/><path class="cls-1" d="M32.48.47h0s0,0,0,0a.15.15,0,0,0,0-.06V.16a0,0,0,0,0,0,0h.06s0,0,0,0V.28h.24V.17s0,0,0,0h.05v.2a.17.17,0,0,0,0,.08,0,0,0,0,0,0,0h-.09s0,0,0,0,0,0,0,0,0,0,0,0V.3h-.24V.44h-.08Z"/><path class="cls-1" d="M33.14.3a.2.2,0,0,1,0-.09l.07-.07.09,0h.07a.1.1,0,0,1,0,0,.1.1,0,0,1,0,0,.24.24,0,0,1,0,.08.11.11,0,0,1,0,.08.13.13,0,0,1-.06.07.16.16,0,0,1-.1,0h-.07l-.06,0,0-.06a.13.13,0,0,1,0-.06m0,0a.11.11,0,0,0,0,.08.13.13,0,0,0,.06.07.11.11,0,0,0,.08,0l0,0a.08.08,0,0,0,0,0,.14.14,0,0,0,0-.07.14.14,0,0,0,0-.07.09.09,0,0,0,0-.06.1.1,0,0,0,0,0h-.12l0,.05a.11.11,0,0,0,0,.08"/><path class="cls-1" d="M33.14.3a.2.2,0,0,1,0-.09l.07-.07.09,0h.07a.1.1,0,0,1,0,0,.1.1,0,0,1,0,0,.24.24,0,0,1,0,.08.11.11,0,0,1,0,.08.13.13,0,0,1-.06.07.16.16,0,0,1-.1,0h-.07l-.06,0,0-.06A.13.13,0,0,1,33.14.3Zm0,0a.11.11,0,0,0,0,.08.13.13,0,0,0,.06.07.11.11,0,0,0,.08,0l0,0a.08.08,0,0,0,0,0,.14.14,0,0,0,0-.07.14.14,0,0,0,0-.07.09.09,0,0,0,0-.06.1.1,0,0,0,0,0h-.12l0,.05A.11.11,0,0,0,33.18.28Z"/><path class="cls-1" d="M33.75.18h0s0,0,0-.06h.33s0,0,0,0h0v0h-.12V.42a0,0,0,0,0,0,0s0,0,0,0h-.06V.15h-.13v0"/><path class="cls-1" d="M33.75.18h0s0,0,0-.06h.33s0,0,0,0h0v0h-.12V.42a0,0,0,0,0,0,0s0,0,0,0h-.06V.15h-.13Z"/><path class="cls-1" d="M34.61.39h0a.09.09,0,0,0,0,0l0,0h-.22V.34a.1.1,0,0,0,0,0V.16s0,0,0,0h.24a.09.09,0,0,0,0,.05s0,0,0,0h0s0,0,0,0h-.13a.25.25,0,0,0,0,.08V.29h.14v0h0v.1h0s0,0,0,0h-.14v0a.34.34,0,0,0,0,.11h.13l0,0,0,0"/><path class="cls-1" d="M34.61.39h0a.09.09,0,0,0,0,0l0,0h-.22V.34a.1.1,0,0,0,0,0V.16s0,0,0,0h.24a.09.09,0,0,0,0,.05s0,0,0,0h0s0,0,0,0h-.13a.25.25,0,0,0,0,.08V.29h.14v0h0v.1h0s0,0,0,0h-.14v0a.34.34,0,0,0,0,.11h.13l0,0Z"/><path class="cls-1" d="M34.88.14H35V.38a.43.43,0,0,0,0,0v0h.12l0,0s0,0,0,0h0v0s0,0,0,0h-.25s0,0,0,0,0,0,0,0a0,0,0,0,0,0,0V.15h0"/><path class="cls-1" d="M34.88.14H35V.38a.43.43,0,0,0,0,0v0h.12l0,0s0,0,0,0h0v0s0,0,0,0h-.25s0,0,0,0,0,0,0,0a0,0,0,0,0,0,0V.15h0Z"/><path class="cls-1" d="M35.77.13h.14v0h0s0,.05,0,.13V.44s0,0,0,0,0,0,0,0H35.8a0,0,0,0,0,0,0s0,0,0-.06V.15h0"/><path class="cls-1" d="M35.77.13h.14v0h0s0,.05,0,.13V.44s0,0,0,0,0,0,0,0H35.8a0,0,0,0,0,0,0s0,0,0-.06V.15h0Z"/><path class="cls-1" d="M36.19.47h0a.29.29,0,0,0,0-.09h0v0h0a0,0,0,0,0,0,0l0,0h.1a.08.08,0,0,0,0,0s0,0,0,0,0,0,0,0h0l0,0-.06,0,0,0a.06.06,0,0,1,0,0,.09.09,0,0,1,0-.07.11.11,0,0,1,.08,0h.1v0h0v0h0l0,0a.05.05,0,0,0,0,0h0a.06.06,0,0,0-.06,0,.08.08,0,0,0,0,0v0l0,0,0,0a.11.11,0,0,1,.06,0l0,0a.08.08,0,0,1,0,0s0,0,0,0l0,0h-.15"/><path class="cls-1" d="M36.19.47h0a.29.29,0,0,0,0-.09h0v0h0a0,0,0,0,0,0,0l0,0h.1a.08.08,0,0,0,0,0s0,0,0,0,0,0,0,0h0l0,0-.06,0,0,0a.06.06,0,0,1,0,0,.09.09,0,0,1,0-.07.11.11,0,0,1,.08,0h.1v0h0v0h0l0,0a.05.05,0,0,0,0,0h0a.06.06,0,0,0-.06,0,.08.08,0,0,0,0,0v0l0,0,0,0a.11.11,0,0,1,.06,0l0,0a.08.08,0,0,1,0,0s0,0,0,0l0,0h-.15Z"/><path class="cls-1" d="M36.87.47h0v0l0-.05h-.13l0,.05a0,0,0,0,1,0,0,0,0,0,0,0,0,0h0s0,0,0,0l0,0v0l0-.1,0,0,0,0v0h0a.14.14,0,0,0,0,.06l0,.14a.23.23,0,0,1,0,.09s0,0,0,0h-.07M36.78.23l0,.08v0h.11v0l0,0v0"/><path class="cls-1" d="M36.87.47h0v0l0-.05h-.13l0,.05a0,0,0,0,1,0,0,0,0,0,0,0,0,0h0s0,0,0,0l0,0v0l0-.1,0,0,0,0v0h0a.14.14,0,0,0,0,.06l0,.14a.23.23,0,0,1,0,.09s0,0,0,0h-.07ZM36.78.23l0,.08v0h.11v0l0,0v0Z"/><path class="cls-1" d="M37.37.28l.06,0,0,0s0,0,0,0,0,.06,0,.07l-.09,0h-.09a.43.43,0,0,0,0,0V.18a.08.08,0,0,1,0,0h.14l0,0a.08.08,0,0,1,0,0,.08.08,0,0,1,0,0l-.05,0m-.08,0v0h.06l0,0s0,0,0,0,0,0,0,0,0,0,0,0H37.3v.1m0,0V.43s0,0,0,0a0,0,0,0,1,0,0h.07s0,0,0,0,0,0,0,0a0,0,0,0,0,0,0l0,0s0,0,0,0h-.08"/><path class="cls-1" d="M37.37.28l.06,0,0,0s0,0,0,0,0,.06,0,.07l-.09,0h-.09a.43.43,0,0,0,0,0V.18a.08.08,0,0,1,0,0h.14l0,0a.08.08,0,0,1,0,0,.08.08,0,0,1,0,0Zm-.08,0v0h.06l0,0s0,0,0,0,0,0,0,0,0,0,0,0H37.3v.1Zm0,0V.43s0,0,0,0a0,0,0,0,1,0,0h.07s0,0,0,0,0,0,0,0a0,0,0,0,0,0,0l0,0s0,0,0,0h-.08Z"/><path class="cls-1" d="M38,.39h0v0s0,0,0,0h-.23V.16a0,0,0,0,0,0,0H38V.19h0s0,0,0,0H37.8V.29h.14v0h0v.1h0s0,0,0,0H37.8V.45h.14l0,0s0,0,0,0"/><path class="cls-1" d="M38,.39h0v0s0,0,0,0h-.23V.16a0,0,0,0,0,0,0H38V.19h0s0,0,0,0H37.8V.29h.14v0h0v.1h0s0,0,0,0H37.8V.45h.14l0,0S38,.41,38,.39Z"/><path class="cls-1" d="M38.27.13h.12v0h0V.43h.17l0,0h0v0s0,0,0,0h-.23a0,0,0,0,0,0,0,0,0,0,0,1,0,0V.18a0,0,0,0,0,0,0h0"/><path class="cls-1" d="M38.27.13h.12v0h0V.43h.17l0,0h0v0s0,0,0,0h-.23a0,0,0,0,0,0,0,0,0,0,0,1,0,0V.18a0,0,0,0,0,0,0h0Z"/><path class="cls-1" d="M33.33,8.87v0h0s0,0,0,0V8.57s0,0,0,0h0v0h.35v.12h0s0-.06,0-.07a.12.12,0,0,0-.09,0h-.05a.05.05,0,0,0,0,0v.09h.08l0-.06h0v.18h0s0,0,0-.06l0,0h0V8.8a.05.05,0,0,0,0,0h.05a.17.17,0,0,0,.1,0,.1.1,0,0,0,0-.08h0v.13Z"/><path class="cls-1" d="M34,8.88V8.73h0a.35.35,0,0,0,.06.09.11.11,0,0,0,.07,0h.05a0,0,0,0,0,0,0s0,0,0,0l-.06,0h0A.18.18,0,0,1,34,8.67a.09.09,0,0,1,0-.07.12.12,0,0,1,0-.08.11.11,0,0,1,.08,0h.13v.12h0a.21.21,0,0,0,0-.07.09.09,0,0,0-.06,0l-.05,0,0,0,0,0,0,0,.06,0s.06,0,.07,0a.11.11,0,0,1,0,.08.12.12,0,0,1,0,.09l-.09,0H34v0Z"/><path class="cls-1" d="M34.63,8.52h0a.06.06,0,0,0-.06,0,.12.12,0,0,0,0,.09h0V8.5h.33v.14h0a.12.12,0,0,0,0-.09.06.06,0,0,0-.06,0h0V8.8s0,0,0,0h0v0h-.19v0h0s0,0,0,0Z"/><path class="cls-1" d="M35,8.84s0,0,0,0h.07s0,0,0,0a0,0,0,0,1,0,0H35v0"/><path class="cls-1" d="M35.82,8.61h0v0h-.06v0h.07l.05,0h0v.3s0,0,0,0H36v0h-.2v0h.05s0,0,0,0Z"/><path class="cls-1" d="M36.38,8.72l0,0h0a.09.09,0,0,1-.07,0,.19.19,0,0,1,0-.08.11.11,0,0,1,0-.08.09.09,0,0,1,.08,0,.11.11,0,0,1,.09.05.23.23,0,0,1,0,.13.2.2,0,0,1,0,.14.12.12,0,0,1-.1.05s0,0-.06,0,0,0,0,0,0,0,0,0h.06a0,0,0,0,1,0,0h0v0h0s0,0,0,0a.25.25,0,0,0,0-.1Zm0-.18s0,0,0,0,0,0,0,.07a.15.15,0,0,0,0,.07s0,0,0,0,0,0,0,0a.15.15,0,0,0,0-.07s0-.06,0-.07,0,0,0,0"/><path class="cls-1" d="M36.74,8.69s0-.06,0-.09a.28.28,0,0,1,0-.09h.18v0s0,0,0,0l0,0h-.12v.09l0,0h0a.1.1,0,0,1,.11.11.12.12,0,0,1,0,.09.17.17,0,0,1-.1,0l-.07,0a.05.05,0,0,1,0,0s0,0,0,0,0,0,0,0h0s0,0,0,0v0h0v0h0l0,0a.15.15,0,0,0,0-.08.14.14,0,0,0,0-.06l0,0h0l0,0Z"/><path class="cls-1" d="M37.36,8.72l0,0h0a.07.07,0,0,1-.06,0,.11.11,0,0,1,0-.08.1.1,0,0,1,0-.08.09.09,0,0,1,.08,0,.11.11,0,0,1,.09.05.23.23,0,0,1,0,.13.26.26,0,0,1,0,.14.14.14,0,0,1-.11.05.07.07,0,0,1-.06,0,.05.05,0,0,1,0,0s0,0,0,0h.06a0,0,0,0,1,0,0h0v0h0a.05.05,0,0,0,.05,0,.31.31,0,0,0,0-.1Zm0-.18s0,0,0,0,0,0,0,.07a.15.15,0,0,0,0,.07s0,0,0,0,0,0,0,0a.15.15,0,0,0,0-.07s0-.06,0-.07,0,0,0,0"/></svg>