<?xml version="1.0" encoding="utf-8"?>
<!-- Generator: Adobe Illustrator 25.0.1, SVG Export Plug-In . SVG Version: 6.00 Build 0)  -->
<svg version="1.1" id="Layer_1" xmlns="http://www.w3.org/2000/svg" xmlns:xlink="http://www.w3.org/1999/xlink" x="0px" y="0px"
	 viewBox="0 0 503.6 503.6" style="enable-background:new 0 0 503.6 503.6;" xml:space="preserve">
<style type="text/css">
	.st0{fill:#003958;}
</style>
<g>
	<path class="st0" d="M218.8,216.7c4.7-10,1-19.1,1-19.1c-0.9,0.3-1.7,0.7-2.1,0.8c-0.1,0-0.2,0.1-0.2,0.1l-2.4,1.3
		c-1.2,0.5-3,1.3-5.6,2.2c-6.9,2.5-6,3.9-6,3.9l8.2,5.2C214.8,213.8,217.1,215.5,218.8,216.7"/>
	<path class="st0" d="M350,201.7c0-1.8,0.8-4.4,1.2-8.6c0.5-5.5,0.7-10.7,0.7-13.7l-0.1-0.1c-6.4-8.8-8.2-12.8-8.4-14.8
		c-0.1-0.5-0.2-2.3-1.7-3.8c-0.6-0.7-1.4-1.1-2.2-1.6c-0.9-0.5-1.9-1.1-3-2.2c-3.2-3.2-16.5-6.3-17-6.4c0,0-1.2-0.4-1.6-1.4
		c-0.2-0.7,0-1.4,0.6-2.3c1.6-2.1,1.3-4.1,0.9-5.1c-0.3-1-1-1.8-1.6-2c-0.6-0.2-3.3-3.3-5.6-6.1l-3.8-7.6c0,0-0.5-0.7-0.9-3.9
		c-0.4-3.5-3.5-9.9-3.6-10.1c-1.3-4.8-11.2-9.6-11.7-9.8l-11.1-3.9c-0.1,0-7.7-3.3-10.4-6.3c-2.1-2.2-1.6-3.2-0.2-5.7
		c0.4-0.8,0.9-1.7,1.4-2.8c1.8-4.2,5.8-5.7,6.5-5.9c6,0.7,9.6-4.7,9.9-5.7c0.2-0.7,2.1-3.4,3.4-5.1c0.9-2.1,0.8-3.6-0.2-4.5
		c-1.1-1.1-3.1-1.1-4.3-1c7-9.6,7.4-13.4,7.8-16.4c0.4-3.4-5.9-23.9-28.2-26.9c-20.7-2.9-27.1,3.7-28,4.8
		c-8.6,1.5-14.8,4.8-18.4,9.8c-6.2,8.8-2.3,19.9-2.3,20c0.8,2.3,0.4,3,0.3,3.2c-1.2,0.1-2.1,0.4-2.6,1.1c-1.1,1.4-0.1,3.5-0.1,3.6
		c3,4.4,3.5,6.5,3.6,6.9c-0.6,1.9-0.3,7,0.7,9c1,2,8.6,6.7,8.9,6.8c1.3,1.2,0.9,2.9,0.7,3.6c-0.4,1.3-1.4,2.5-2.4,2.7
		c-1.2,0.3-2,0.7-3.5,1.4c-1.1,0.5-2.6,1.3-5,2.3c-2.9,1.2-5,1.7-7.7,2.2c-2.3,0.5-4.9,1-8.6,2.2c-8.2,2.6-18.4,16.2-19.9,18.8
		c-1.3,2.2-12.2,11.5-17.5,15.8c-4,3.2-4.4,5.3-4.8,7.7c-0.1,0.6-0.2,1.2-0.4,1.8c-0.9,3.3,2.3,7.9,4.8,9.1c1.9,0.9,2.7,3,2.8,3.4
		l-1.5,10c-1.4,4.4-2.5,8.9-3.1,13.2c0,0.1-0.2,1.8-1.1,11.5c-2.4,2.7-2.9,4.7-3,5.7c0,0.1,0,0.2,0,0.3v0.2c-4.8-0.8-8-1.4-8-1.4
		c-0.6-0.1-1.2,0.1-1.2,0.1c-5,4.5-2.5,10.1-2.2,11.2c0.4,1.1,2,1.1,2,1.1c2.4,0,5.7,0.2,9.3,0.5c0,0.1,0,0.2,0,0.3
		c0.2,0.7,0.6,1.3,1,1.9c0.7,0.9,1.4,1.4,1.7,1.6c2.8,1.9,7.5,2.2,9.1,2.3c1.9,0.1,3.8,0.3,6.2-0.2c1.5-0.3,3-0.7,4.3-1.3
		c0.8,0.1,2.2,0.1,3.8-0.5c0.8-0.3,1.4-0.7,1.9-1.2c1,0.1,1.6,0.2,1.6,0.2c1.3,0.3,3.2,0.9,5.4,1.7c4.5,1.8,7.6,4.2,7.6,4.2
		c-1-4.5-1.3-8-1.4-10.3c-0.1-2.8-0.1-6.1,0-7.4c0,0,0-0.3,0.1-2.3l-5.9,2.7c-0.4,0.2-1.1,0.3-2,0.4c-0.8-0.3-1.5-0.5-1.9-0.8
		c0.1-0.7,0.3-3-2.8-4.3c-1.3-0.8-2.6-1.7-3.8-2.6c-1.2-1-2.3-2-3.4-3.1c-0.1-0.8-0.2-1.5-0.2-2.2c0-2.8,0.8-5.6,2.5-8.2
		c1.6-2.8,3-5.7,4.1-8.7c1.3-3.4,2.3-6.9,3-10.5c1.4,0,6.5-0.3,7.6-3.2c0-0.1,2.6-8.1,4.1-10.2c1-1.4,2.3-3.6,3-5l1.1,11.5
		c0.2,2.7,0.5,6.8,0.6,11.7c0.2,6.3,0.3,9.5,0,11.5c-1,5.5-2.9,7-4.8,14.7c-0.7,2.7-1,4.9-1.2,6.3l15.5-7c0,0,1.7-2.2,4.2-2.1l6.5-3
		c0,0,8.2,1,7.2,9.7l-0.7,0.8l-8.4,2.5c6.6,12.8-1.3,22.8-1.3,22.8c0.1,0,0.6-0.2,1.2-0.1c0.6,0.1,0.7,0.5,1.6,1
		c0.7,0.4,0.9,0.3,1.1,0.6c0.2,0.3,0,0.5,0.2,0.9c0.1,0.3,0.3,0.5,0.9,1c0.9,0.7,2,1.3,2.7,1.6c0,0.7-0.2,3.3-2.6,5.4
		c-0.3,0.2-0.6,0.4-0.9,0.7c0,0,0,0,0,0.1c0.2,2.3,0.8,13-2.5,18.7c-3.3,5.7-7.1,7.6-11,4.8c-2.8-2-1.5-14.8,1.3-25.6l-1.1-1
		c0,0-7-7.6-12.6-11.5c0,0.2,0,0.5,0,0.9c0.2,3.3,0.5,5.8,0.6,6.2c0.3,1.9,0.5,7.4,0.7,22.3c0,0-3,22.5-3.3,23.5c0,0,0,0,0,0
		c-0.5,1.9-0.8,4-0.1,5.2c1.4,2.5,0.8,5,0.4,5.6c-0.5,0.8,0,1.7,0.4,2.5c0.1,0.2,0.2,0.5,0.3,0.7c0.3,0.7-0.6,1.3-0.7,1.3l-0.3,0.2
		l0.1,0.3c0.3,0.5,0.5,1.4,0.3,1.7c-0.5,0.6-1.4,2-1.5,2.1c-0.2,0.4-0.9,2.5-0.1,3.3c0.4,0.4,0.4,1.5,0.4,2.2
		c-2,1.3-2.3,2.2-2.2,4.1c0.1,1.6-1.1,3.1-1.1,3.1c-1.7,2.6,1.6,6.2,2.2,6.8c0.1,1-1.4,2.7-2.1,3.4c-4.9,1.9-4.8,9.1-4.7,10.4
		l-6,4.2c-0.7,0.6-1.1,1.2-0.9,1.8c0.3,1.5,2.6,2.6,3.7,3.1c-3.7,4.8-3,8-2.7,9.1c2.3,7.4,17.7,11.2,28.3,7.6
		c3.3-1.1,5.6-2.7,6.8-3.8c0.5-0.5,1.1-1.3,1.6-2.2c1.1-2,1.1-3.8,1-4.9v-9.6c1.4-2.4,0.2-5.1,0-5.6v-7.2c2.2-2.5,0.6-5,0.6-5.1
		c-0.8-2.2,1.6-3.3,1.7-3.3c4.6-2.3,3.9-7,3.6-8.7c0-0.3-0.1-0.6-0.1-0.6c0-0.1,0.1-0.4,0.1-0.7c0.2-1.3,0.6-4.4,1-5.1
		c0.5-0.9,1.4-5.5,1-8.2c-0.4-2.5,1.4-8.8,1.3-8.8l5-9.5c0.1-0.2,3.3-4.9,2.4-7.1c-0.7-1.6,0.9-6.1,1.5-7.7c3.9-8,4.5-10.4,4.5-10.5
		l0-0.1l0,0c0,0-0.4-3.9-0.7-6.5c-0.3-1.9,3-8.2,4.5-11c3,1.9,6,6.4,8.5,12.8c0.1,0.2,0.1,0.3,0.1,0.3c4.2,7.5,10.4,11.1,10.6,11.2
		c8.4,4.9,14.5,19.1,15.2,20.8c-5.3,6.3-7.7,13-9.6,18.4c-0.9,2.5-1.7,4.6-2.6,6.2c-1.4,2.4-0.9,4.9-0.5,7.4c0.5,2.7,0.9,5-1.1,6.7
		c-3.8,3.2-2.9,6-2.1,8.4c0.1,0.3,0.2,0.6,0.3,0.9c0.8,2.5-2.6,5.7-2.7,5.8c-3.3,3-5.2,6.5-5.2,6.6c-2.9,3.8-3.8,7.3-2.5,10.2
		c2,4.7,8.4,6.4,8.7,6.5c15.5,3.4,23.8,8.1,23.8,8.2c7.6,5.3,14.6,7.5,20.6,6.6c6.4-1,9.4-5.2,9.5-5.3c5.1-6.9-9.1-16.1-10.8-17.2
		c-0.9-4.7-7.4-5.8-9.6-5.8c-0.3,0-0.4-0.1-0.4-0.1c-0.2-0.2-0.1-0.8,0-1l0-0.1l0-0.1c-0.6-3.6-4.6-6.2-5.3-6.6
		c-1.1-1.9,0.3-3.7,0.7-4.3c0.1-0.1,0.1-0.2,0.2-0.3c0.1,0,0.1-0.1,0.2-0.2c5.1-3.7,7.1-5.6,6.9-6.5c-0.2-0.7,0.4-3.6,0.9-5.6
		c0.3-1.4,0.6-2.6,0.6-3c0-0.6,1.9-3,3.2-4.5c1-1.3,1.9-2.3,2.1-2.8c0.3-0.6,0.3-1.5,0.4-2.4c0-1.1,0.1-2.4,0.6-3.2
		c0.9-1.5,5.2-16.8,6.2-20.3c1.2,1,3.5,2.3,4.3,2.8l1.3,0.7l-0.6-1.2c-0.7-1.3-0.5-6.3-0.2-9.2c1.1,0.8,3,1.4,3.7,1.6
		c1.6,5.7,10.8,11.7,11.2,12l0.8,0.5L336,275c0-0.1-0.9-5.3,0.2-7.2c1.2-2.1,2-10,2-10.6c0-0.3,0.8-1.5,1.6-2.7
		c1.9,3.1,4.7,3.7,4.8,3.7l1,0.2l-0.6-0.8c-1-1.2,1.4-3.9,2.3-5c0.2-0.3,0.4-0.5,0.5-0.6c0.2-0.4-0.3-3.7-1.4-9.9
		c-1.6-6.5,2-13,2-13c4-6.9,2.1-12,1.5-13.4c-1-2.2-1.1-10.5-0.7-11.2C349.9,203.9,350,202.1,350,201.7 M290.6,203.9
		c-0.2-0.7-3-10.4-2.9-12.4c0.2-2.3-1-8.7-4.5-13.4c-0.1-0.5-0.6-3.4,0-6.4c0.3-1.5,0.3-3.1,0.3-4.4c0-1.6,0-2.9,0.5-3.7
		c1-1.6,2.1-5.1,0.7-8.1c-1-2.1,0.8-7.5,1.5-9.6c1.1,1.8,3.7,6.5,3.3,8.8c-0.6,3.1,1.9,7.1,4.7,7.4c0.9,0.1,1.7,0.6,2.2,1.4
		c0.5,0.8,0.5,1.8,0,2.5c-1.2,1.8-4,8.1-3.1,12.6c0.5,2.5,0.1,3.8-0.4,5.2c-0.4,1.2-0.8,2.4-0.9,4.5c-0.1,3.8,1,10.3,1.7,13.7
		c0.1,0.8,0.3,1.4,0.3,1.9c0.2,1.5,1.8,6.5,2.8,9.7L290.6,203.9z"/>
	<path class="st0" d="M222.5,231.7c-0.7,0.3-3,0.2-3,0.2c-5.3,18.2-1,17.7-1,17.7C222.6,248.5,223.2,231.3,222.5,231.7"/>
</g>
<g>
	<path class="st0" d="M23.8,432.1c-0.2-0.6-0.7-1.8-1.3-3.6c-0.6-1.7-1.3-3.6-2-5.5c-0.7-1.9-1.4-3.8-2-5.5c-0.6-1.8-1-3-1.3-3.6
		c-0.8-2.3-1.5-4.9-2.3-7.7c-0.8-2.9-1.6-5.8-2.4-8.8c-0.8-3-1.7-5.9-2.6-8.8c-0.9-2.8-1.9-5.4-3-7.6c-1-0.5-1.9-0.6-2.8-0.3
		c-0.8,0.3-1.6,0.5-2.2,0.5c-0.6,0-1.1-0.4-1.4-1.3c-0.3-0.9-0.5-2.7-0.5-5.4c0-0.6,0.3-1.2,0.8-1.6c0.5-0.4,1.2-0.8,2-1
		c0.8-0.3,1.6-0.4,2.4-0.5c0.8-0.1,1.5-0.2,2.1-0.2H10c1.2,0,2.4,0.1,3.7,0.2c1.3,0.1,2.5,0.3,3.6,0.5c1.1,0.3,1.9,0.6,2.3,1.1v1.5
		c0,1,0,1.9,0.1,2.7c0,0.8-0.2,1.7-0.8,2.6c-0.1,0.1-0.5,0.2-1.3,0.2c-0.8,0-1.2,0-1.2,0.1c0.1,0.9,0.3,2,0.6,3.3
		c0.4,1.3,0.7,2.6,1,4c0.3,1.4,0.7,2.7,1,4c0.3,1.3,0.5,2.5,0.6,3.4c1.2,4.3,2.5,8.7,4,13.3c1.5,4.6,3.1,9.1,4.8,13.7
		c1.7,4.6,3.5,9.1,5.3,13.5c1.9,4.4,3.7,8.7,5.6,12.7c0.1,0,0.2,0,0.2,0.1c0.5-2.4,1-5.1,1.7-8c0.7-2.9,1.4-5.8,2.1-8.8
		c0.7-3,1.5-5.9,2.2-8.8c0.7-2.9,1.4-5.6,2.1-8.1c0.4-1.4,0.8-2.9,1.2-4.6c0.4-1.7,0.8-3.5,1.3-5.2c0.4-1.8,0.8-3.5,1.1-5.3
		c0.3-1.8,0.5-3.5,0.6-5.1c0.2-0.1,0.5-0.8,0.9-2.1c0.3-1.3,0.7-2.8,1-4.5c0.3-1.6,0.6-3.2,0.9-4.6c0.3-1.4,0.4-2.3,0.4-2.7
		c-0.6-0.2-1.3-0.4-1.9-0.4c-0.7-0.1-1.3-0.2-1.9-0.3c-0.6-0.1-1-0.4-1.3-0.9c-0.3-0.4-0.4-1.1-0.2-1.9c0-1.8,0.1-3.1,0.3-4
		c0.2-0.9,0.6-1.6,1.2-2c0.6-0.4,1.4-0.7,2.4-0.8c1-0.1,2.4-0.3,4-0.5c0.2-0.1,0.6,0,1.3,0.2c0.7,0.2,1.2,0.3,1.3,0.3l8.7,0.9
		c0.6-0.4,1-0.5,1.2-0.2c0.2,0.3,0.5,0.7,0.9,1l0.7,6.3c0,0.1-0.2,0.4-0.7,0.9c-0.5,0.4-0.8,0.7-1.2,0.9c-0.1,0.1-0.4,0.2-1.1,0.3
		c-0.7,0.1-1.1,0.2-1.2,0.2c-0.2,0.1-0.4,0.2-0.8,0.3c-0.3,0.1-0.6,0.2-0.6,0.2l-0.5,1.3c0,0.1-0.1,0.5-0.3,1
		c-0.2,0.5-0.4,1.1-0.5,1.7c-0.2,0.6-0.3,1.2-0.5,1.7c-0.2,0.5-0.3,0.8-0.3,0.9c-0.1,0.4-0.2,1.1-0.5,2.1c-0.2,1.1-0.5,2.3-0.8,3.6
		c-0.3,1.3-0.5,2.5-0.8,3.6c-0.3,1.1-0.4,1.9-0.5,2.2l-4.4,20v0.4l-6.7,30c0.2,0.8,0,1.7-0.4,2.6c-0.4,0.9-0.7,1.7-0.8,2.3
		c-0.8,2.2-1.2,4.1-1.4,5.5c-0.2,1.4-0.6,2.6-1.1,3.4c-0.5,0.9-1.4,1.5-2.7,1.8c-1.2,0.3-3.2,0.5-6,0.5c-0.9,0-1.8-0.7-2.7-2.1
		c-0.9-1.4-1.8-3.2-2.7-5.4c-0.9-2.2-1.8-4.6-2.7-7.3c-0.8-2.7-1.7-5.2-2.4-7.6c-0.8-2.4-1.5-4.6-2.1-6.6
		C24.8,434.3,24.2,432.9,23.8,432.1"/>
	<path class="st0" d="M109.3,386c0.2,0.5,0.6,1.5,1.2,3c0.6,1.4,1.2,3,1.8,4.6c0.6,1.6,1.2,3.2,1.8,4.6c0.6,1.5,1,2.5,1.2,3
		c0.7,1.9,1.4,4.1,2.1,6.5c0.7,2.4,1.4,4.9,2.2,7.4c0.7,2.5,1.5,5,2.4,7.4c0.9,2.4,1.8,4.5,2.8,6.4c0.9,0.4,1.8,0.5,2.6,0.2
		c0.8-0.3,1.5-0.4,2-0.4c0.6,0,1,0.4,1.3,1.1c0.3,0.7,0.5,2.2,0.5,4.5c0,0.5-0.2,1-0.7,1.4c-0.5,0.4-1.1,0.6-1.9,0.9
		c-0.7,0.2-1.5,0.4-2.2,0.5c-0.7,0.1-1.4,0.1-2,0.1h-2.3c-1.1,0-2.2,0-3.4-0.1c-1.2-0.1-2.3-0.2-3.4-0.5c-1-0.2-1.7-0.5-2.1-0.9
		v-1.3c0-0.8,0-1.6-0.1-2.3c0-0.7,0.2-1.4,0.7-2.2c0.1-0.1,0.5-0.2,1.2-0.1c0.7,0,1.1,0,1.1,0c-0.1-0.8-0.3-1.7-0.6-2.8
		c-0.3-1.1-0.6-2.2-1-3.3c-0.3-1.1-0.6-2.3-0.9-3.4c-0.3-1.1-0.5-2.1-0.5-2.8c-1.1-3.6-2.3-7.3-3.7-11.1c-1.4-3.8-2.9-7.7-4.4-11.5
		c-1.6-3.8-3.2-7.6-4.9-11.3c-1.7-3.7-3.4-7.3-5.1-10.7c-0.1,0-0.1,0-0.2-0.1c-0.4,2-0.9,4.3-1.6,6.7c-0.6,2.4-1.2,4.9-1.9,7.4
		c-0.7,2.5-1.3,5-2,7.4c-0.7,2.4-1.3,4.7-2,6.8c-0.4,1.1-0.7,2.4-1.1,3.9c-0.4,1.4-0.8,2.9-1.2,4.4c-0.4,1.5-0.7,3-1,4.5
		c-0.3,1.5-0.5,2.9-0.5,4.2c-0.2,0.1-0.5,0.6-0.8,1.8c-0.3,1.1-0.6,2.4-1,3.7c-0.3,1.4-0.6,2.7-0.9,3.9c-0.3,1.2-0.4,2-0.4,2.3
		c0.6,0.2,1.2,0.3,1.8,0.4c0.6,0.1,1.2,0.1,1.7,0.3c0.5,0.1,0.9,0.4,1.2,0.7c0.3,0.4,0.4,0.9,0.2,1.6c0,1.5-0.1,2.6-0.3,3.4
		c-0.2,0.7-0.6,1.3-1.1,1.7c-0.5,0.4-1.3,0.6-2.2,0.7c-1,0.1-2.2,0.2-3.7,0.4c-0.1,0.1-0.6,0-1.2-0.1c-0.7-0.2-1.1-0.2-1.2-0.2
		l-8-0.7c-0.6,0.4-0.9,0.4-1.1,0.1c-0.2-0.3-0.4-0.6-0.8-0.9l-0.6-5.3c0-0.1,0.2-0.4,0.6-0.7c0.4-0.4,0.8-0.6,1.1-0.7
		c0.1-0.1,0.4-0.1,1-0.2c0.6-0.1,1-0.1,1.1-0.1c0.1-0.1,0.4-0.1,0.7-0.2c0.3-0.1,0.5-0.1,0.6-0.1l0.4-1.1c0-0.1,0.1-0.4,0.3-0.8
		c0.2-0.4,0.3-0.9,0.5-1.4c0.1-0.5,0.3-1,0.5-1.4c0.2-0.4,0.3-0.7,0.3-0.8c0.1-0.3,0.2-0.9,0.4-1.8c0.2-0.9,0.4-1.9,0.7-3
		c0.2-1.1,0.5-2.1,0.7-3c0.2-0.9,0.4-1.5,0.5-1.8l4.1-16.8v-0.4l6.2-25.2c-0.1-0.7,0-1.4,0.3-2.2c0.4-0.8,0.6-1.4,0.7-1.9
		c0.7-1.9,1.2-3.4,1.3-4.6c0.2-1.2,0.5-2.2,1-2.9c0.5-0.7,1.3-1.2,2.5-1.5c1.1-0.3,3-0.4,5.6-0.4c0.9,0,1.7,0.6,2.5,1.8
		c0.8,1.2,1.7,2.7,2.5,4.5c0.9,1.8,1.7,3.9,2.5,6.1c0.8,2.2,1.5,4.4,2.2,6.4c0.7,2,1.4,3.9,2,5.5C108.4,384.2,108.9,385.3,109.3,386
		"/>
	<path class="st0" d="M158.1,439h-5.4h-5.4c-0.2,0-0.5,0-0.9,0c-0.4,0-0.9-0.1-1.4-0.1c-0.5,0-1-0.1-1.5-0.1c-0.5-0.1-0.8-0.1-1-0.1
		c-0.7-0.1-1.5-0.3-2.4-0.7c-0.9-0.3-1.3-0.9-1.3-1.7c0-0.3,0-0.6,0-1.1c0-0.5,0.1-0.9,0.2-1.4c0.1-0.5,0.3-0.9,0.6-1.2
		c0.2-0.4,0.6-0.5,1-0.5h5.6l0.7-0.6c0-0.1,0-0.3,0.1-0.8c0.1-0.5,0.2-1,0.2-1.6c0.1-0.6,0.1-1.3,0.2-1.9c0.1-0.7,0.1-1.2,0.1-1.6
		v-1.6v-2.7v-2.7V417c0-0.2,0-0.5,0-1.1c0-0.5,0.1-1.1,0.1-1.8c0-0.6,0.1-1.2,0.1-1.8c0.1-0.5,0.1-0.9,0.1-1.1v-0.5v-8.4
		c0-2.5,0.1-4.9,0.3-7.2c0.2-2.3,0.3-4.7,0.3-7.1c0-0.3,0-0.9,0-1.8c0-0.9-0.1-1.8-0.2-2.8c-0.1-1-0.2-2-0.3-2.9
		c-0.1-0.9-0.2-1.6-0.3-2c-1.1-0.2-2.2-0.2-3.3,0c-1.1,0.1-2,0.2-2.9,0.2c-0.8,0-1.5-0.2-2-0.7c-0.5-0.4-0.8-1.2-0.7-2.5
		c0-0.5,0-1.2,0-1.9c0-0.8,0.4-1.3,1.1-1.5c0.1,0,0.4,0,0.7,0c0.4,0,0.6,0,0.7,0c1.2,0,2.3,0,3.3,0c1.1,0,2.1,0,3.2,0.1
		c0.9,0.1,1.5,0.1,1.8,0.1h0.9h0.9h1.8h12.3c1.5,0,2.4,0.3,2.7,0.9c0.2,0.6,0.4,1.6,0.4,3c-0.1,0.4-0.2,0.8-0.1,1.2
		c0.1,0.4,0.1,0.7,0.1,1c0,0.3-0.1,0.5-0.3,0.7c-0.2,0.2-0.6,0.2-1.1,0.2c-0.7,0-1.6,0-2.8-0.1c-1.2-0.1-2.1-0.1-2.8-0.1
		c-0.5,0-1.2,0-2.2-0.1c-1-0.1-1.7,0-2.1,0.3c0,0.1,0,0.4,0,1c0,0.6,0,1.2,0,1.8v1.9v1c-0.7,7.7-1,15.4-1,23.3c0,7.9,0,15.7,0,23.4
		h4c0.2,0.2,0.7,0.2,1.4,0.1c0.7-0.1,1.2-0.1,1.4-0.1c0.6,0,0.9,0,0.9,0c0,0,0.3,0,0.9,0c2.8,0,5.6,0,8.4,0.1
		c2.8,0.1,5.6,0.1,8.5,0.1h5.8c0.4-0.4,0.7-0.8,0.7-1c0.1-0.3,0.1-0.6,0.1-1c0-0.7,0-1.4,0.1-2.1c0.1-0.8,0.1-1.5,0-2.2
		c-0.1-1.2-0.1-2.1,0-2.7c0-0.6,0-1,0-1l-0.4-1.1h-4.8c-0.2,0-0.4-0.2-0.7-0.5c-0.3-0.4-0.4-0.7-0.4-0.9v-4c0-0.3,0.2-0.5,0.5-0.7
		c0.3-0.2,0.7-0.4,1.1-0.5c0.4-0.1,0.8-0.2,1.2-0.3c0.4-0.1,0.7-0.1,0.9-0.1c0.9-0.1,1.8,0,2.7,0c1,0.1,1.6,0.1,1.8,0
		c0.1,0,0.3-0.1,0.6-0.2c0.3-0.1,0.4-0.2,0.5-0.2c2.1,0,3.6,0.4,4.6,1.3c1,0.9,1.4,2.1,1.4,3.6l-0.4,17.3c0,1-0.2,1.9-0.5,2.6
		c-0.3,0.7-0.9,1.1-1.8,1.2c-0.6,0-1.3,0-2.3,0c-1,0-2,0-3.1,0c-1.1,0-2.1,0-3.1,0c-1,0-1.8-0.1-2.3-0.1c-0.2,0-0.6,0-1.2,0
		c-0.6,0-1.2,0-1.9,0h-1.9h-1.2c-1.4-0.1-2.8-0.1-4-0.1c-1.3,0-2.5,0-3.7-0.1c-1.2,0-2.4,0-3.6,0h-4H158.1z"/>
	<path class="st0" d="M206.6,437.9c-0.7,0.1-1.2,0.1-1.7,0c-0.4-0.1-0.8-0.2-1-0.4c-0.2-0.2-0.4-0.3-0.5-0.5
		c-0.1-0.2-0.1-0.4-0.1-0.5v-2.6c0-0.6,0-1.3,0-2.1c0-0.9,0.1-1.6,0.1-2.1c0.1-0.2,0.4-0.3,0.7-0.4c0.3-0.1,0.6-0.2,0.8-0.2
		c0.1,0.1,0.4,0,1,0c0.5-0.1,0.8-0.1,1-0.1c0.4,0.1,1.1,0.1,2,0.1c0.9,0,1.5,0,1.9,0c0.3,0.1,0.6,0.2,0.9,0.4
		c0.3,0.2,0.6,0.4,0.9,0.5c0,0.3,0,0.7,0,1.3c0,0.6,0,1.1,0,1.3c0,0.1,0,0.2,0.1,0.3c0.1,0.2,0.2,0.3,0.2,0.3h1.9
		c1.8,0,3.4-0.1,4.8-0.2c1.4-0.1,3-0.3,4.8-0.4c0.1-2,0.2-4.4,0.3-7.3c0.2-2.9,0.3-5.8,0.5-8.8c0.2-3,0.3-5.9,0.5-8.8
		c0.2-2.8,0.3-5.2,0.5-7.1v-0.3v-0.3c0-0.1,0-0.2,0-0.5c0-0.3-0.1-0.5-0.1-0.8c-0.1-0.3-0.1-0.5-0.1-0.8c0-0.3,0-0.4,0-0.5v-11.2
		l-0.7-8.7l-0.4-0.3c-1.5-0.1-3-0.2-4.3-0.3c-1.2-0.1-2.3-0.2-3.4-0.2c-1.1,0-1.9-0.1-2.4-0.2h-1.5h-1.5c-0.1,0.4-0.1,1-0.1,1.6
		c0,0.7-0.1,1.3-0.2,2c-0.1,0.7-0.4,1.2-0.7,1.8c-0.4,0.5-0.9,0.9-1.6,1H207c-1.4,0-2.3-0.1-2.9-0.2c-0.6-0.2-1-0.4-1.2-0.9
		c-0.2-0.4-0.3-1-0.3-1.8c0-0.8-0.2-1.8-0.4-3.1c-0.1-0.6-0.1-1,0.1-1.3c0.2-0.3,0.3-0.7,0.3-1.3c0-0.7,0.3-1.2,1-1.4
		c0.7-0.2,1.3-0.4,1.9-0.7c0.2,0,0.5,0,1-0.1c0.5-0.1,1-0.1,1.6-0.1c0.6,0,1.1-0.1,1.6-0.1c0.5,0,0.8,0,1,0h10.1c0.2,0,0.8,0,1.8,0
		c0.9,0,1.9-0.1,3-0.1c1.1-0.1,2.1-0.1,3.1-0.1c0.9,0,1.5,0,1.8,0c2.3,0,4.8,0.1,7.4,0.2c2.6,0.1,5.1,0.2,7.4,0.4
		c0.6,0.1,1.6,0.1,3,0.1c1.4,0,2.7,0.1,4.1,0.2c1.4,0.1,2.5,0.3,3.6,0.6c1,0.3,1.6,0.8,1.6,1.3v0.8c0,0.4-0.1,0.6-0.2,0.7l-0.4,6.2
		c0.1-0.1,0-0.1-0.3-0.1c-0.3,0.1-0.7,0.1-1.2,0.2c-0.5,0.1-0.9,0.2-1.3,0.3c-0.4,0.1-0.7,0.2-0.7,0.2c-0.1,0-0.5,0-1.1,0
		c-0.6,0-1.3-0.1-1.9-0.2c-0.6-0.1-1.2-0.2-1.8-0.3c-0.5-0.1-0.8-0.2-0.8-0.4v-3.4l-0.4-0.3c-0.1-0.1-0.3-0.1-0.6-0.2
		c-0.2-0.1-0.4-0.1-0.6-0.2c-0.2,0-0.6,0-1.1-0.1c-0.5-0.1-1-0.1-1.5-0.1c-0.5,0-1,0-1.4-0.1c-0.4,0-0.7,0-0.8,0c-0.4,0-0.9,0-1.6,0
		c-0.7,0-1.4,0-2.1-0.1c-0.7,0-1.3,0-1.8,0h-0.8l-0.4,0.3c0.1,2.3,0.2,4.9,0.1,7.8c0,2.9-0.1,6-0.2,9.1c-0.1,3.1-0.2,6.1-0.4,9.1
		c-0.1,3-0.2,5.6-0.2,7.8c0,1.3,0,2.8,0,4.4c0,1.6-0.1,3.3-0.1,5c0,1.7,0,3.4,0,5c0,1.6,0.1,3.1,0.2,4.3c0,0.3,0,0.5,0,0.9
		c0,0.3,0.1,0.6,0.1,0.9c0.1,0.4,0.1,0.7,0.2,1.1l13.7-0.1v-3.2c0-0.2,0.1-0.3,0.3-0.4c0.2-0.1,0.5-0.2,0.7-0.3
		c0.3-0.1,0.5-0.1,0.7-0.2c0.2-0.1,0.4-0.1,0.4-0.1h0.7c0.4,0,0.8,0,1.3-0.1h0.2c1.4,0,2.3,0.1,2.9,0.4c0.6,0.2,0.9,0.6,1.1,1
		c0.2,0.4,0.3,1,0.2,1.6c0,0.7,0,1.4,0.2,2.2c0,0.1,0,0.4,0.1,0.9c0.1,0.5,0.2,0.8,0.2,0.9c0.1,0.5-0.1,0.9-0.5,1.3
		c-0.4,0.3-0.9,0.6-1.4,0.9c-0.7,0-2,0-3.7,0c-1.7,0-3.5,0-5.4,0H241h-3.7c-3.5,0.1-6.7,0.1-9.8,0.2c-3,0.1-6.2,0.2-9.6,0.5
		c-0.1,0-0.4,0-0.7,0c-0.3,0-0.7,0.1-1.2,0.1c-0.4,0-0.8,0.1-1.2,0.1c-0.4,0-0.6,0-0.6,0c-0.4,0-0.9,0-1.6-0.1
		c-0.7-0.1-1.4-0.1-2.2-0.2c-0.8-0.1-1.5-0.2-2.2-0.2C207.5,438.1,207,438,206.6,437.9"/>
	<path class="st0" d="M267.8,436.7c0.1-0.3,0-0.6-0.2-1c-0.2-0.4-0.2-0.8-0.1-1c0.1-0.9,0.5-1.4,1-1.6c0.6-0.2,1.1-0.3,1.8-0.3h5.3
		c0.1-0.3,0.1-0.5,0.2-0.7c0.1-0.2,0.1-0.4,0.1-0.6c0-0.2,0-0.4,0.1-0.5V429c0-0.8,0-1.9,0.1-3.3c0.1-1.4,0.1-2.9,0.2-4.3
		c0.1-1.5,0.1-2.9,0.1-4.3c0-1.4,0-2.5,0-3.2c-0.3-4.2-0.5-8.5-0.6-13c-0.1-4.4,0-8.8,0.1-12.9c-0.1-0.2-0.2-0.5-0.3-1.1
		c-0.1-0.6-0.1-0.9-0.1-1.1v-1.4v-2.1c0-0.7,0-1.4,0-2c0-0.6,0-1.1,0-1.3c-0.1,0-0.3,0-0.6-0.1c-0.3-0.1-0.5-0.1-0.6-0.1
		c0.3,0.8,0.2,1.6-0.2,2.3c-0.4,0.7-1.1,1.2-1.9,1.6c-0.8,0.4-1.8,0.7-2.8,0.8c-1,0.1-2,0-2.9-0.4c-0.9-0.4-1.6-1-2.2-1.9
		c-0.6-0.9-0.8-2.1-0.7-3.7c0.4-1.8,1.1-3.1,2.2-3.8c1.1-0.7,2.9-1.1,5.5-1.1c1.7-0.2,3.3-0.3,4.9-0.3s2.9,0,4.2,0.1
		c1.3,0.1,2.5,0.1,3.6,0.2c1.1,0.1,2,0,2.8-0.1c4.9,0,9.7,0,14.5-0.1c4.8-0.1,9.6-0.2,14.4-0.3c0.1,0.1,0.5,0.1,1.1,0.2
		c0.6,0.1,0.9,0.2,0.9,0.3c0.1,0.2,0.1,0.4,0.2,0.8c0.1,0.4,0.1,0.7,0.2,1.1c0.1,0.4,0.1,0.8,0.1,1.1v0.6l-0.5,5.7
		c0,0.6-0.1,1-0.3,1.3c-0.2,0.3-0.4,0.4-0.7,0.5c-0.3,0.1-0.7,0.1-1.1,0.1c-0.4,0-0.8,0-1.2,0c-0.2,0-0.6,0-1.1,0
		c-0.5,0-0.8-0.1-0.9-0.1l-1.7-0.6v-4.9l-0.6-0.3c-1.2-0.1-2.5-0.1-4,0c-1.5,0-3.1,0.1-4.7,0.2c-1.6,0.1-3.2,0.1-4.7,0.2
		c-1.5,0.1-2.9,0.1-4.1,0.1h-1.9c-0.6,0.1-1.2,0.1-2.1,0.1c-0.8,0-1.6,0-2.5,0.1c-0.9,0.1-1.9,0.1-2.9,0.2l-0.4,0.3v0.5
		c0,0.3,0,0.7,0,1.1c0,0.4-0.1,0.8-0.1,1.1v0.9c0,2.6,0.1,5.2,0.2,7.9c0.1,2.7,0.2,5.4,0.4,7.8c0,0.6,0,1.3-0.1,2.3
		c-0.1,0.9,0.1,1.7,0.5,2.4c0.1,0,0.4,0,0.8,0c0.4,0,0.7,0,0.8,0c0.2,0,0.6,0,0.9,0c0.4,0,0.7,0,1.1,0c0.3-0.1,0.6-0.1,0.9-0.2
		c0.2-0.1,0.4-0.3,0.4-0.6c0-0.4,0-0.6,0-0.6c0,0,0-0.2,0-0.5v-1.1c0-0.4,0.2-0.6,0.7-0.6l3.7-0.2c0.7,0,1.2,0.1,1.5,0.4
		c0.3,0.3,0.6,0.6,0.7,1c0.1,0.4,0.2,0.8,0.2,1.2v0.9c0,0.8,0,1.4,0,1.8c0,0.4,0.1,0.8,0.1,1.2c0.1,0.4,0.1,0.9,0.1,1.4
		c0,0.6,0,1.4,0,2.5c-0.1,0.4-0.2,0.7-0.2,0.9c0,0.3,0,0.5,0,0.7c0,0.2-0.1,0.3-0.3,0.4c-0.2,0.1-0.4,0.1-0.8,0.1
		c-0.4-0.2-0.9-0.2-1.5-0.1c-0.6,0.1-1.1,0.2-1.7,0.2c-0.5,0-1,0-1.4,0c-0.4-0.1-0.6-0.4-0.6-0.9l-0.5-1.3h-1c-0.5,0-1.1,0-1.8,0.1
		c-0.7,0.1-1.2,0.1-1.7,0.2c-0.5,0.1-0.7,0.1-0.7,0.2l0.3,22.8c2.2,0.4,4.3,0.6,6.4,0.7c2.1,0.1,4.2,0.1,6.3,0.1
		c2.1,0,4.2-0.1,6.4-0.2c2.2-0.1,4.3-0.1,6.6-0.1c0.4-0.3,0.7-0.5,0.8-0.7c0.1-0.2,0.1-0.3,0.1-0.5c0-0.2-0.1-0.3-0.2-0.5
		c-0.1-0.2-0.1-0.3,0-0.5c0-0.4,0-0.7-0.1-0.9c-0.1-0.2-0.1-0.5-0.1-1c0-0.7,0.2-1.2,0.5-1.5c0.3-0.3,0.7-0.5,1.2-0.6
		c0.5-0.1,1-0.2,1.6-0.2h1.6c0.6,0,1.2,0,1.6,0.1c0.5,0.1,0.9,0.4,1.3,0.8c0.1,0.9,0.2,1.7,0.4,2.3c0.1,0.7,0.2,1.4,0.2,2.3
		c0,0.3,0,0.7,0,1.3c0,0.5,0,1.1,0,1.7c-0.1,0.6-0.2,1.1-0.3,1.5c-0.1,0.4-0.4,0.7-0.7,0.9l-4,0.5h-1.3c-0.8,0-1.8,0-3,0.1
		c-4.4,0.1-8.8,0.1-13.1,0c-4.3-0.1-8.6,0-13.1,0.1c-0.3,0-1,0-1.9,0c-1,0-2-0.1-3.1-0.1c-1.1-0.1-2.2-0.1-3.1-0.1h-1.9h-1.8h-1.8
		C268.3,437.9,267.9,437.4,267.8,436.7"/>
	<path class="st0" d="M325.9,437.2c0-0.1,0-0.4-0.1-0.7c-0.1-0.4-0.1-0.8-0.1-1.3c0-0.5-0.1-0.9-0.1-1.3c-0.1-0.4-0.1-0.6-0.1-0.7
		c-0.1-0.5,0.1-0.9,0.5-1c0.4-0.2,0.8-0.3,1.3-0.3c0.5-0.1,1-0.1,1.6-0.2c0.6-0.1,1-0.2,1.3-0.5l-0.8-14.4v-6.4c0-0.3,0-0.8,0-1.8
		c0-0.9,0.1-1.9,0.1-2.9c0-1,0.1-2,0.1-2.9c0-0.9,0-1.5,0-1.8c0-0.1,0-0.3,0-0.7c0-0.4-0.1-0.8-0.1-1.2c0-0.4-0.1-0.8-0.1-1.2
		c-0.1-0.4-0.1-0.6-0.1-0.7v-0.6v-0.6c0-0.2,0-0.4,0.1-0.9c0.1-0.4,0.1-0.9,0.1-1.3c0-0.5,0.1-0.9,0.1-1.3c0-0.4,0-0.7,0-0.9
		c-0.2-0.3-0.4-0.5-0.3-0.7c0-0.1,0-0.4,0-0.7c0-0.1,0-0.4,0-0.8c0-0.4-0.1-0.9-0.1-1.4c-0.1-0.5-0.1-1-0.1-1.4c0-0.4,0-0.7,0-0.8
		c0-0.2,0-0.6,0-1.3c0-0.6,0-1.3,0-2.1c0-0.8,0-1.5,0-2.1c0-0.6,0-1.1,0-1.3h-1.2c-0.3,0-0.6,0-0.8,0c-0.2,0-0.5-0.1-0.8-0.1
		c-0.3,0-0.7-0.1-1.2-0.2c-0.2,0-0.4-0.1-0.4-0.3c-0.2-0.8-0.2-1.8-0.2-3c0.1-1.1,0.1-2.1,0.1-2.9c0-0.4,0.2-0.6,0.6-0.6
		c0.4,0,0.8-0.1,1.2-0.3c0.2,0,0.5,0,0.9-0.1c0.4-0.1,0.8-0.1,1.3-0.1c0.5,0,0.9-0.1,1.3-0.1c0.4,0,0.7,0,0.9,0c0.1,0,0.4,0,0.7,0.1
		c0.4,0.1,0.6,0.1,0.7,0.2c1.4-0.1,3-0.2,4.8-0.3c1.8-0.1,3.4,0,4.8,0.3c0.2,0.1,0.4,0.3,0.5,0.8c0.1,0.5,0.1,1.1,0.1,1.7
		c0,0.6,0,1.2-0.1,1.8c-0.1,0.6-0.1,1,0,1.2c0,0.2-0.1,0.3-0.2,0.4c-0.2,0.1-0.4,0.1-0.6,0.1c-0.2,0-0.5,0-0.6,0.1
		c-0.2,0.1-0.3,0.2-0.3,0.4l0.4,0.5c0.1,0.2,0.3,0.3,0.5,0.5c1.2,1.5,2.2,2.8,3,3.9c0.9,1.2,1.6,2.2,2.3,3.2c0.6,1,1.2,1.9,1.8,2.7
		c0.6,0.8,1.2,1.5,1.8,2.2c1.7,2,3.4,4.4,5.1,7c1.8,2.6,3.5,5.3,5.3,8.2c1.8,2.8,3.5,5.6,5.2,8.3c1.7,2.7,3.3,5.1,4.8,7.2
		c0.1,0.2,0.3,0.5,0.6,0.8c0.2,0.3,0.5,0.6,0.7,0.9c0.2,0.3,0.6,0.7,0.9,1.1h0.4v-0.3c0-0.1,0-0.3-0.1-0.6c-0.1-0.3-0.2-0.5-0.2-0.6
		c0.1-2.9,0.2-6,0.2-9.3c0-3.4,0-6.8-0.1-10.2c-0.1-3.4-0.2-6.8-0.4-10.2c-0.2-3.3-0.4-6.5-0.7-9.4c-0.1-0.2-0.1-0.6-0.1-1.2
		c0-0.6,0-1.3-0.1-2c-0.1-0.8-0.1-1.6-0.1-2.5l-0.7-0.3h-0.9c-0.2,0-0.3,0-0.4-0.1c-0.1-0.1-0.2-0.1-0.5-0.2
		c-0.2-0.1-0.6-0.2-1.2-0.4c-0.3-0.3-0.5-0.6-0.6-1.1c-0.1-0.5-0.1-0.8-0.1-1.1v-0.9c0-0.4,0-0.8,0.1-1.2c0.1-0.4,0.1-0.8,0.2-1.2
		c0.1-0.4,0.2-0.6,0.4-0.7c0.4-0.1,1-0.1,1.7-0.1c0.7,0,1.4,0,2.2,0c0.7,0,1.4,0,2.1,0c0.7,0,1.3,0,1.8-0.1c0.8-0.1,1.6-0.1,2.3-0.2
		c0.7-0.1,1.5-0.1,2.3-0.1h1.3l1.2,1c0.1,0.5,0.2,0.9,0.3,1.4c0.1,0.4,0.1,0.8,0.2,1.3c0.1,0.4,0.1,0.8,0.2,1.1v0.9
		c0,0.6-0.2,1.1-0.6,1.3c-0.4,0.2-0.9,0.4-1.4,0.5c-0.5,0.1-1,0.1-1.4,0.2c-0.4,0.1-0.7,0.2-0.7,0.3v1.9c0,3.4,0,6.7,0,9.8
		c0,3.1,0.2,6.3,0.4,9.7c0.1,1.7,0.2,3.5,0.3,5.4c0.1,1.9,0.1,3.8,0.2,5.7c0.1,1.9,0.2,3.8,0.3,5.7c0.1,1.9,0.3,3.7,0.5,5.4
		c0,0.2,0,0.8,0.1,1.8c0.1,1,0.1,2,0.1,3.1c0,1.1,0.1,2.1,0.1,3.1c0.1,1,0.1,1.6,0.2,1.8v0.8c0,0.4,0,0.8,0,1.4
		c0,0.6-0.1,1.2-0.3,1.7c-0.2,0.5-0.4,1-0.8,1.4c-0.4,0.4-0.9,0.6-1.6,0.6h-6.3c-0.5,0-0.9-0.2-1.3-0.6c-0.4-0.4-0.8-0.9-1.1-1.4
		c-0.3-0.5-0.6-1.1-0.8-1.7c-0.2-0.6-0.4-1-0.4-1.3l-9.6-14.8c-0.5-0.2-0.9-0.7-1.2-1.6c-0.3-0.8-0.5-1.5-0.7-1.9
		c-0.1-0.2-0.4-0.7-0.8-1.4c-0.4-0.7-0.9-1.5-1.4-2.3c-0.5-0.8-1-1.6-1.4-2.3c-0.4-0.7-0.7-1.1-0.7-1.3c-1.2-2-2.3-3.8-3.4-5.5
		c-1.1-1.7-2.4-3.4-4-5.2c0-0.1-0.1-0.2-0.2-0.3c-0.1-0.2-0.2-0.3-0.2-0.3c-0.2-0.3-0.6-0.8-1.1-1.4c-0.5-0.6-0.9-1.3-1.4-1.9
		c-0.5-0.6-0.9-1.2-1.3-1.7c-0.4-0.5-0.6-0.8-0.7-0.9c-0.1-0.1-0.3-0.3-0.6-0.7c-0.2-0.3-0.5-0.7-0.8-1.1c-0.3-0.4-0.6-0.7-0.9-1.1
		c-0.3-0.3-0.5-0.6-0.6-0.7c-0.1-0.1-0.3-0.2-0.4-0.3c-0.2-0.2-0.3-0.3-0.3-0.3c-0.1,0-0.1,0-0.1,0.1c0,0.1-0.1,0.1-0.1,0.1L337,416
		c0.1,1,0.1,2.1,0.1,3.4c0,1.3,0.1,2.6,0.1,3.9c0,1.4,0.1,2.7,0.1,4c0.1,1.3,0.2,2.4,0.4,3.4l0.4,0.3c0.8,0.2,1.5,0.3,2.1,0.3
		c0.6,0.1,1.1,0.1,1.4,0.3c0.4,0.1,0.6,0.4,0.8,0.7c0.2,0.4,0.3,0.9,0.3,1.7c0,0.4,0,0.8,0.1,1.3c0.1,0.5,0.1,1,0,1.4
		c-0.1,0.4-0.3,0.8-0.6,1.1c-0.4,0.3-1,0.5-1.8,0.5c-0.1,0.4-0.4,0.6-0.7,0.6c-0.3,0.1-0.7,0-1.2-0.1c-0.4-0.1-0.8-0.2-1.3-0.3
		c-0.4-0.1-0.7-0.2-1-0.1c-0.2,0-0.8,0-1.6,0c-0.8,0-1.6-0.1-2.5-0.1c-0.9-0.1-1.7-0.1-2.5-0.1c-0.8,0-1.3,0-1.6,0h-0.5
		c-0.2,0-0.5,0-0.8-0.1c-0.3-0.1-0.5-0.2-0.7-0.3C325.9,437.7,325.8,437.5,325.9,437.2"/>
	<path class="st0" d="M407.4,437.1v-0.4c0-0.1,0-0.2,0.1-0.2c0.1-0.1,0.1-0.5,0.1-1.1c0-0.6,0-1,0.1-1.1v-0.9
		c0.1-0.7,0.4-1.2,0.9-1.5c0.5-0.3,1.1-0.5,1.7-0.6c0.6-0.1,1.3-0.1,2-0.1c0.7,0,1.3,0,1.8,0v-2.7v-2.7c0-0.3,0-1.1,0-2.3
		c0-1.2-0.1-2.5-0.1-3.9c-0.1-1.4-0.1-2.7-0.1-3.9c0-1.2,0-2,0-2.3v-1.7c0-0.8,0-1.7,0-2.6c0-0.9,0.1-1.7,0.1-2.5c0-0.8,0-1.4,0-1.7
		v-0.9c0-0.2,0-0.6-0.1-1.2c-0.1-0.6-0.2-1.2-0.2-1.9c0-0.6,0-1.2,0-1.8c0-0.5,0.1-0.9,0.2-1.1c0.1-1.1,0.1-2.3,0.1-3.6
		c0-1.3,0-2.6,0-3.9v-3.9v-3.4v-4.4c-0.4-0.2-0.8-0.3-1.2-0.3h-1.3h-3.2h-3.6h-3.7c-1.2,0-2.2,0-3.1,0.1l0.2,3.7
		c0,0.1-0.2,0.3-0.6,0.6c-0.4,0.3-0.7,0.4-0.9,0.4l-6,0.2c-0.5,0-0.8-0.2-0.9-0.5c-0.1-0.3-0.2-0.6-0.2-0.9c0-0.3,0.1-0.5,0.2-0.7
		c0.1-0.2,0.2-0.4,0.2-0.7c-0.2-1.1-0.3-2.1-0.4-2.8c-0.1-0.7-0.1-1.3,0-1.8c0-0.5,0.1-0.9,0.2-1.3c0.1-0.4,0.2-0.9,0.3-1.6
		c0.4-0.4,1-0.6,1.8-0.7c0.8-0.1,1.8-0.2,2.8-0.2c1,0,2.1,0.1,3.3,0.1c1.2,0.1,2.4,0.1,3.5,0.1h13.3c1.2-0.1,2.3-0.2,3.2-0.2
		c0.9,0,1.9,0.1,3,0.2h13c1.5,0,2.8,0,4.1,0c1.2,0,2,0.1,2.2,0.4c0.6,0.5,1.1,0.8,1.3,1.1c0.3,0.3,0.5,0.6,0.6,1
		c0.1,0.4,0.1,0.9,0.1,1.5c0,0.6,0,1.5,0,2.6c0,0.8,0,1.3,0.1,1.7c0.1,0.3,0.1,0.6,0,0.7c-0.1,0.2-0.2,0.3-0.5,0.5
		c-0.3,0.2-0.8,0.4-1.6,0.8c-0.5,0.1-0.8,0.1-1,0c-0.2-0.1-0.5-0.1-1-0.1c-1.2,0.1-2,0-2.5-0.2c-0.5-0.2-0.9-0.5-1.1-0.9
		c-0.2-0.4-0.3-0.8-0.2-1.2c0-0.4,0-0.8,0-1.2c-0.1-0.4-0.2-0.7-0.5-0.9c-0.2-0.3-0.7-0.4-1.4-0.4h-1c-0.4,0-1.2,0-2.2,0.1
		c-1,0.1-2.1,0.1-3.2,0.1c-1.1,0-2.5,0.1-4.2,0.1l-0.4,0.3v1.2v1.9c0.1,1.7,0.1,3.6,0.1,5.8c0,2.1,0,4.3,0,6.5c0,2.2,0,4.4,0,6.5
		c0,2.1,0.1,4,0.2,5.7c0,0.1,0,0.3,0,0.7c0,0.4-0.1,0.8-0.1,1.2c0,0.4,0,0.8,0,1.2v0.6v1c0,0.5,0,1,0,1.5c0,0.5,0,1.1,0,1.5v1
		c0,1.3,0,2.5,0,3.6c0,1.1-0.1,2.2-0.1,3.3c0,1.1-0.1,2.2-0.1,3.3c0,1.1,0,2.3,0,3.6v1.7l0.4,0.6c0.9-0.1,1.7-0.1,2.3-0.1
		c0.6,0,1,0,1.4,0.2c0.3,0.2,0.6,0.5,0.7,0.9c0.1,0.4,0.2,1.1,0.2,2c0,1.4-0.2,2.5-0.6,3.4c-0.4,0.9-1.5,1.4-3.2,1.4H421
		c-0.2,0-0.5,0-0.9,0c-0.4,0-0.9-0.1-1.3-0.1c-0.5,0-0.9-0.1-1.3-0.1c-0.4,0-0.7,0-0.9,0h-5.8c-0.4,0-0.7,0.1-0.9,0.2
		c-0.2,0.1-0.4,0.2-0.7,0.2c-0.2,0-0.5-0.1-0.7-0.3C408.1,438.1,407.8,437.7,407.4,437.1"/>
	<path class="st0" d="M452.5,436.7c0.1-0.3,0-0.6-0.2-1c-0.2-0.4-0.2-0.8-0.1-1c0.1-0.9,0.5-1.4,1-1.6c0.6-0.2,1.1-0.3,1.8-0.3h5.3
		c0.1-0.3,0.1-0.5,0.2-0.7c0.1-0.2,0.1-0.4,0.1-0.6c0-0.2,0-0.4,0.1-0.5V429c0-0.8,0-1.9,0.1-3.3c0.1-1.4,0.1-2.9,0.2-4.3
		c0.1-1.5,0.1-2.9,0.1-4.3c0-1.4,0-2.5,0-3.2c-0.3-4.2-0.5-8.5-0.6-13c-0.1-4.4,0-8.8,0.1-12.9c-0.1-0.2-0.2-0.5-0.3-1.1
		c-0.1-0.6-0.1-0.9-0.1-1.1v-1.4v-2.1c0-0.7,0-1.4,0-2c0-0.6,0-1.1,0-1.3c-0.1,0-0.3,0-0.6-0.1c-0.3-0.1-0.5-0.1-0.6-0.1
		c0.3,0.8,0.2,1.6-0.2,2.3c-0.4,0.7-1.1,1.2-1.9,1.6c-0.8,0.4-1.8,0.7-2.8,0.8c-1,0.1-2,0-2.9-0.4c-0.9-0.4-1.6-1-2.2-1.9
		c-0.6-0.9-0.8-2.1-0.7-3.7c0.4-1.8,1.1-3.1,2.2-3.8c1.1-0.7,2.9-1.1,5.4-1.1c1.7-0.2,3.3-0.3,4.9-0.3c1.5,0,2.9,0,4.2,0.1
		c1.3,0.1,2.5,0.1,3.6,0.2c1.1,0.1,2,0,2.8-0.1c4.9,0,9.7,0,14.5-0.1c4.8-0.1,9.6-0.2,14.4-0.3c0.1,0.1,0.5,0.1,1.1,0.2
		c0.6,0.1,0.9,0.2,0.9,0.3c0.1,0.2,0.1,0.4,0.2,0.8c0.1,0.4,0.1,0.7,0.2,1.1c0.1,0.4,0.1,0.8,0.1,1.1v0.6l-0.5,5.7
		c0,0.6-0.1,1-0.3,1.3c-0.2,0.3-0.4,0.4-0.7,0.5c-0.3,0.1-0.7,0.1-1.1,0.1c-0.4,0-0.8,0-1.2,0c-0.2,0-0.6,0-1.1,0
		c-0.5,0-0.8-0.1-0.9-0.1l-1.7-0.6v-4.9l-0.6-0.3c-1.2-0.1-2.5-0.1-4,0c-1.5,0-3.1,0.1-4.7,0.2c-1.6,0.1-3.2,0.1-4.7,0.2
		c-1.5,0.1-2.9,0.1-4.1,0.1h-1.9c-0.6,0.1-1.3,0.1-2.1,0.1s-1.6,0-2.4,0.1c-0.9,0.1-1.9,0.1-2.9,0.2l-0.4,0.3v0.5c0,0.3,0,0.7,0,1.1
		c0,0.4,0,0.8,0,1.1v0.9c0,2.6,0.1,5.2,0.2,7.9c0.1,2.7,0.2,5.4,0.4,7.8c0,0.6,0,1.3-0.1,2.3c-0.1,0.9,0.1,1.7,0.5,2.4
		c0.1,0,0.4,0,0.8,0c0.4,0,0.7,0,0.8,0c0.2,0,0.6,0,0.9,0c0.4,0,0.7,0,1.1,0c0.3-0.1,0.6-0.1,0.9-0.2c0.2-0.1,0.4-0.3,0.4-0.6
		c0-0.4,0-0.6,0-0.6c0,0,0-0.2,0-0.5v-1.1c0-0.4,0.2-0.6,0.7-0.6l3.7-0.2c0.7,0,1.2,0.1,1.5,0.4c0.3,0.3,0.6,0.6,0.7,1
		c0.1,0.4,0.2,0.8,0.2,1.2v0.9c0,0.8,0,1.4,0,1.8c0,0.4,0.1,0.8,0.1,1.2c0.1,0.4,0.1,0.9,0.1,1.4c0,0.6,0,1.4,0,2.5
		c-0.1,0.4-0.2,0.7-0.2,0.9c0,0.3,0,0.5,0,0.7c0,0.2-0.1,0.3-0.3,0.4c-0.2,0.1-0.4,0.1-0.8,0.1c-0.4-0.2-0.9-0.2-1.5-0.1
		c-0.6,0.1-1.1,0.2-1.7,0.2c-0.5,0-1,0-1.4,0c-0.4-0.1-0.6-0.4-0.6-0.9l-0.5-1.3h-1c-0.5,0-1.1,0-1.8,0.1c-0.6,0.1-1.2,0.1-1.7,0.2
		c-0.5,0.1-0.7,0.1-0.7,0.2l0.3,22.8c2.2,0.4,4.3,0.6,6.4,0.7c2.1,0.1,4.2,0.1,6.3,0.1c2.1,0,4.2-0.1,6.4-0.2
		c2.2-0.1,4.3-0.1,6.6-0.1c0.4-0.3,0.7-0.5,0.8-0.7c0.1-0.2,0.1-0.3,0.1-0.5c0-0.2-0.1-0.3-0.2-0.5c-0.1-0.2-0.1-0.3,0-0.5
		c0-0.4,0-0.7-0.1-0.9c-0.1-0.2-0.1-0.5-0.1-1c0-0.7,0.2-1.2,0.5-1.5c0.3-0.3,0.7-0.5,1.2-0.6c0.5-0.1,1-0.2,1.6-0.2h1.6
		c0.6,0,1.2,0,1.6,0.1c0.5,0.1,0.9,0.4,1.3,0.8c0.1,0.9,0.2,1.7,0.4,2.3c0.1,0.7,0.2,1.4,0.2,2.3c0,0.3,0,0.7,0,1.3
		c0,0.5,0,1.1,0,1.7c-0.1,0.6-0.2,1.1-0.3,1.5c-0.1,0.4-0.4,0.7-0.7,0.9l-4,0.5h-1.3c-0.8,0-1.8,0-3,0.1c-4.4,0.1-8.8,0.1-13.1,0
		c-4.3-0.1-8.6,0-13.1,0.1c-0.3,0-1,0-1.9,0c-1,0-2-0.1-3.1-0.1c-1.1-0.1-2.2-0.1-3.1-0.1h-1.9h-1.9h-1.8
		C453,437.9,452.6,437.4,452.5,436.7"/>
	<path class="st0" d="M2.7,358.2c0-0.2,0-0.4-0.1-0.6c-0.1-0.3-0.1-0.5-0.1-0.6c0.1-0.6,0.3-0.9,0.6-1c0.3-0.1,0.7-0.2,1.1-0.2h3.3
		c0-0.2,0.1-0.3,0.1-0.4c0-0.1,0.1-0.3,0.1-0.4c0-0.1,0-0.2,0.1-0.3v-1.2c0-0.5,0-1.2,0.1-2c0-0.9,0.1-1.8,0.1-2.7
		c0-0.9,0.1-1.8,0.1-2.7c0-0.9,0-1.5,0-2c-0.2-2.6-0.3-5.3-0.3-8.1c0-2.8,0-5.5,0.1-8.1c-0.1-0.1-0.1-0.3-0.2-0.7
		c0-0.4-0.1-0.6-0.1-0.7v-0.9v-1.3c0-0.5,0-0.9,0-1.3c0-0.4,0-0.7,0-0.8c-0.1,0-0.2,0-0.4,0c-0.2,0-0.3,0-0.4,0
		c0.2,0.5,0.2,1-0.1,1.4c-0.3,0.4-0.7,0.8-1.2,1c-0.5,0.3-1.1,0.4-1.8,0.5c-0.7,0.1-1.3,0-1.8-0.2c-0.6-0.2-1-0.6-1.4-1.2
		c-0.4-0.6-0.5-1.3-0.4-2.3c0.2-1.1,0.7-1.9,1.4-2.4c0.7-0.5,1.8-0.7,3.4-0.7c1.1-0.1,2.1-0.2,3-0.2s1.8,0,2.6,0.1
		c0.8,0.1,1.5,0.1,2.2,0.1c0.7,0,1.3,0,1.8-0.1c3,0,6,0,9-0.1c3-0.1,6-0.1,9-0.2c0.1,0,0.3,0.1,0.7,0.1c0.4,0.1,0.6,0.1,0.6,0.2
		c0,0.1,0.1,0.3,0.1,0.5c0,0.2,0.1,0.5,0.1,0.7c0,0.2,0.1,0.5,0.1,0.7v0.4l-0.3,3.6c0,0.4-0.1,0.6-0.2,0.8c-0.1,0.2-0.3,0.3-0.5,0.3
		c-0.2,0.1-0.4,0.1-0.7,0.1c-0.2,0-0.5,0-0.8,0c-0.2,0-0.4,0-0.7,0c-0.3,0-0.5,0-0.6-0.1l-1-0.4v-3.1l-0.3-0.2c-0.7,0-1.6,0-2.5,0
		c-0.9,0-1.9,0-2.9,0.1c-1,0-2,0.1-2.9,0.1c-1,0-1.8,0.1-2.5,0.1h-1.2c-0.3,0-0.8,0.1-1.3,0.1c-0.5,0-1,0-1.5,0
		c-0.6,0-1.2,0.1-1.8,0.1L12,322v0.3c0,0.2,0,0.4,0,0.7c0,0.2,0,0.5,0,0.7v0.5c0,1.6,0,3.2,0.1,4.9c0.1,1.7,0.2,3.3,0.2,4.9
		c0,0.4,0,0.8-0.1,1.4c0,0.6,0.1,1.1,0.3,1.5c0.1,0,0.2,0,0.5,0c0.3,0,0.5,0,0.5,0c0.2,0,0.3,0,0.6,0c0.2,0,0.5,0,0.7,0
		c0.2,0,0.4-0.1,0.5-0.1c0.1-0.1,0.2-0.2,0.2-0.4c0-0.3,0-0.4,0-0.4c0,0,0-0.1,0-0.3v-0.7c0-0.2,0.2-0.4,0.5-0.4l2.3-0.1
		c0.4,0,0.7,0.1,1,0.2c0.2,0.2,0.4,0.4,0.4,0.6c0.1,0.2,0.1,0.5,0.1,0.7v0.6c0,0.5,0,0.9,0,1.1c0,0.3,0,0.5,0.1,0.8
		c0,0.2,0.1,0.5,0.1,0.9c0,0.4,0,0.9,0,1.6c-0.1,0.2-0.1,0.4-0.1,0.6c0,0.2,0,0.3,0,0.4c0,0.1-0.1,0.2-0.2,0.2
		c-0.1,0-0.3,0.1-0.5,0.1c-0.3-0.1-0.6-0.1-1,0c-0.4,0.1-0.7,0.1-1,0.1c-0.3,0-0.6,0-0.9,0c-0.2,0-0.4-0.2-0.4-0.6l-0.3-0.8h-0.6
		c-0.3,0-0.7,0-1.1,0c-0.4,0-0.8,0.1-1.1,0.1c-0.3,0-0.5,0.1-0.5,0.1l0.2,14.2c1.4,0.2,2.7,0.4,4,0.4c1.3,0,2.6,0.1,3.9,0
		c1.3,0,2.6,0,4-0.1c1.3-0.1,2.7-0.1,4.1-0.1c0.3-0.2,0.4-0.3,0.5-0.4c0.1-0.1,0.1-0.2,0.1-0.3c0-0.1-0.1-0.2-0.1-0.3
		c-0.1-0.1,0-0.2,0-0.3c0-0.3,0-0.4-0.1-0.6c-0.1-0.1-0.1-0.3-0.1-0.6c0-0.4,0.1-0.7,0.3-0.9c0.2-0.2,0.4-0.3,0.7-0.4
		c0.3-0.1,0.6-0.1,1-0.1h1c0.4,0,0.7,0,1,0.1c0.3,0.1,0.6,0.2,0.8,0.5c0.1,0.6,0.2,1,0.2,1.4c0.1,0.4,0.1,0.9,0.1,1.4
		c0,0.2,0,0.5,0,0.8c0,0.3,0,0.7,0,1c0,0.4-0.1,0.7-0.2,1c-0.1,0.3-0.2,0.5-0.5,0.6l-2.5,0.3h-0.8c-0.5,0-1.1,0-1.9,0.1
		c-2.8,0.1-5.5,0.1-8.2,0c-2.7-0.1-5.4,0-8.2,0.1c-0.2,0-0.6,0-1.2,0c-0.6,0-1.3,0-2-0.1c-0.7,0-1.4-0.1-2-0.1H5.7H4.5H3.3
		C3,358.9,2.7,358.6,2.7,358.2"/>
	<path class="st0" d="M50,359.6h-3.3h-3.3c-0.1,0-0.3,0-0.6,0c-0.3,0-0.6,0-0.9-0.1c-0.3,0-0.6,0-1-0.1c-0.3,0-0.5-0.1-0.6-0.1
		c-0.5-0.1-1-0.2-1.5-0.4c-0.5-0.2-0.8-0.6-0.8-1c0-0.2,0-0.4,0-0.7c0-0.3,0.1-0.6,0.1-0.9c0.1-0.3,0.2-0.6,0.3-0.8
		c0.2-0.2,0.4-0.3,0.6-0.3h3.5l0.5-0.4c0,0,0-0.2,0.1-0.5c0.1-0.3,0.1-0.6,0.1-1c0-0.4,0.1-0.8,0.1-1.2c0.1-0.4,0.1-0.7,0.1-1v-1
		v-1.7v-1.7v-1c0-0.1,0-0.3,0-0.7c0-0.3,0-0.7,0.1-1.1c0-0.4,0-0.8,0.1-1.1c0-0.3,0.1-0.6,0.1-0.7V342v-5.3c0-1.6,0.1-3.1,0.2-4.5
		c0.1-1.4,0.2-2.9,0.2-4.4c0-0.2,0-0.6,0-1.1c0-0.5-0.1-1.1-0.1-1.8c-0.1-0.6-0.1-1.2-0.2-1.8c-0.1-0.6-0.1-1-0.2-1.3
		c-0.7-0.1-1.4-0.1-2,0c-0.7,0.1-1.3,0.1-1.8,0.1c-0.5,0-0.9-0.2-1.3-0.4c-0.3-0.3-0.5-0.8-0.4-1.6c0-0.3,0-0.7,0-1.2
		c0-0.5,0.2-0.8,0.7-1c0.1,0,0.2,0,0.5,0c0.2,0,0.4,0,0.5,0c0.7,0,1.4,0,2.1,0c0.7,0,1.3,0,2,0.1c0.5,0,0.9,0.1,1.2,0.1h0.6h0.6h1.2
		h7.7c1,0,1.5,0.2,1.7,0.6c0.2,0.4,0.2,1,0.2,1.9c-0.1,0.3-0.1,0.5-0.1,0.8c0,0.2,0.1,0.5,0.1,0.6c0,0.2-0.1,0.3-0.2,0.4
		c-0.1,0.1-0.3,0.1-0.7,0.1c-0.4,0-1,0-1.8-0.1c-0.8,0-1.3-0.1-1.8-0.1c-0.3,0-0.8,0-1.4-0.1c-0.6,0-1,0-1.3,0.2c0,0.1,0,0.3,0,0.6
		c0,0.4,0,0.7,0,1.1v1.2v0.6c-0.4,4.8-0.6,9.6-0.6,14.6c0,4.9,0,9.8,0,14.6h2.5c0.2,0.1,0.5,0.1,0.9,0.1c0.4,0,0.7-0.1,0.9-0.1
		c0.4,0,0.6,0,0.5,0c0,0,0.2,0,0.5,0c1.8,0,3.5,0,5.3,0c1.7,0,3.5,0.1,5.3,0.1h3.6c0.3-0.3,0.4-0.5,0.5-0.6c0-0.2,0.1-0.4,0.1-0.6
		c0-0.4,0-0.9,0.1-1.3c0-0.5,0-0.9,0-1.4c0-0.7,0-1.3,0-1.7c0-0.4,0-0.6,0-0.6l-0.2-0.7h-3c-0.1,0-0.3-0.1-0.4-0.3
		c-0.2-0.2-0.3-0.4-0.3-0.5v-2.5c0-0.2,0.1-0.3,0.3-0.4c0.2-0.1,0.4-0.2,0.7-0.3c0.3-0.1,0.5-0.1,0.8-0.2c0.3-0.1,0.5-0.1,0.6-0.1
		c0.5,0,1.1,0,1.7,0c0.6,0.1,1,0.1,1.1,0c0.1,0,0.2,0,0.4-0.1c0.2-0.1,0.3-0.1,0.3-0.1c1.3,0,2.3,0.3,2.9,0.8
		c0.6,0.5,0.9,1.3,0.9,2.3l-0.2,10.8c0,0.6-0.1,1.2-0.3,1.6c-0.2,0.4-0.6,0.7-1.1,0.8c-0.3,0-0.8,0-1.4,0c-0.6,0-1.3,0-1.9,0
		c-0.7,0-1.3,0-1.9,0c-0.6,0-1.1,0-1.4-0.1c-0.1,0-0.4,0-0.7,0c-0.4,0-0.8,0-1.2,0h-1.2h-0.7c-0.9,0-1.7-0.1-2.5-0.1
		c-0.8,0-1.6,0-2.3-0.1c-0.8,0-1.5,0-2.3,0H53H50z"/>
	<rect x="62.1" y="451.3" class="st0" width="441.5" height="5.1"/>
	<polygon class="st0" points="63.9,467.7 77.9,467.7 77.5,469.6 71.7,469.6 68.8,487.4 66.5,487.4 69.3,469.6 63.6,469.6 	"/>
	<path class="st0" d="M84.5,467.7h5.9c2.1,0,3.6,0.2,4.5,0.5c0.9,0.3,1.6,0.9,2.2,1.6c0.6,0.7,0.8,1.6,0.8,2.6c0,1.1-0.3,2-1,3
		c-0.7,0.9-1.6,1.6-2.7,2.1c-1.1,0.5-2.6,0.7-4.5,0.7l7,9.3h-2.6l-7-9.3h-1.8l-1.5,9.3h-2.4L84.5,467.7z M86.6,469.6l-1,6.5h2.7
		c2,0,3.3-0.1,3.9-0.2c1-0.2,1.9-0.6,2.5-1.3c0.6-0.6,0.9-1.4,0.9-2.3c0-1-0.4-1.8-1.3-2.2c-0.7-0.4-1.9-0.5-3.6-0.5H86.6z"/>
	<path class="st0" d="M116.9,467.7l7.8,19.7h-2.4l-2.6-6.4h-9.9l-4.4,6.4H103l13.4-19.7H116.9z M116.2,471.9l-5,7.3h7.8L116.2,471.9
		z"/>
	<polygon class="st0" points="151,467.7 153.3,467.7 150.1,487.4 149.6,487.4 136.5,472.2 134.1,487.4 131.8,487.4 134.9,467.7 
		135.4,467.7 148.5,482.9 	"/>
	<path class="st0" d="M173.2,471.4l-2.2,0.5c-0.3-0.8-0.8-1.5-1.5-2c-0.7-0.5-1.4-0.7-2.2-0.7c-0.9,0-1.6,0.2-2.1,0.7
		c-0.5,0.5-0.8,1.2-0.8,2c0,0.7,0.3,1.5,0.9,2.3c0.4,0.5,1.2,1.3,2.6,2.3c1.4,1.1,2.4,2.1,3,3c0.6,0.9,0.8,1.9,0.8,2.8
		c0,1-0.3,1.9-0.9,2.8c-0.6,0.9-1.4,1.6-2.5,2.1c-1,0.5-2.2,0.8-3.3,0.8c-1.5,0-2.8-0.4-3.9-1.2c-1.1-0.8-1.9-2-2.4-3.5l2.2-0.6
		c0.3,1.2,0.9,2.1,1.6,2.6c0.8,0.6,1.6,0.9,2.6,0.9c1.1,0,2.1-0.3,2.9-1.1c0.8-0.7,1.2-1.6,1.2-2.6c0-0.8-0.2-1.5-0.7-2.2
		c-0.5-0.7-1.4-1.6-2.7-2.6c-1.4-1.1-2.4-2-2.8-2.5c-0.7-1-1.1-2-1.1-3.1c0-1.4,0.5-2.5,1.6-3.3c1-0.9,2.3-1.3,3.9-1.3
		c1.3,0,2.5,0.3,3.5,1C172,469,172.8,470,173.2,471.4"/>
	<path class="st0" d="M182.5,467.7h6.3c2.1,0,3.6,0.2,4.5,0.5c0.9,0.3,1.6,0.9,2.2,1.6c0.5,0.7,0.8,1.6,0.8,2.6
		c0,1.3-0.4,2.4-1.3,3.4c-0.9,1-2,1.6-3.3,2c-1,0.3-2.7,0.4-5.1,0.4h-3.5l-1.5,9.3h-2.4L182.5,467.7z M184.5,469.6l-1.1,6.5h3.2
		c2.2,0,3.7-0.1,4.5-0.4c0.8-0.3,1.5-0.7,2-1.3c0.5-0.6,0.8-1.3,0.8-2.1c0-0.6-0.2-1.2-0.5-1.6c-0.3-0.4-0.8-0.7-1.4-0.9
		c-0.6-0.2-1.7-0.3-3.4-0.3H184.5z"/>
	<path class="st0" d="M216.2,467.2c3.1,0,5.8,0.9,7.8,2.6c2.1,1.7,3.1,3.9,3.1,6.6c0,3.2-1.3,6-4,8.2c-2.6,2.2-5.9,3.3-9.9,3.3
		c-3.4,0-6-0.8-8.1-2.5c-2-1.7-3-3.9-3-6.7c0-2.1,0.6-4.1,1.8-5.8c1.2-1.8,2.9-3.2,5-4.2C211.2,467.7,213.6,467.2,216.2,467.2
		 M216.2,469.1c-2.2,0-4.2,0.4-6,1.2c-1.7,0.8-3.1,2-4.1,3.5c-1,1.5-1.5,3.1-1.5,4.8c0,1.4,0.4,2.7,1.1,3.9c0.7,1.1,1.8,2,3.1,2.6
		c1.3,0.6,2.8,0.9,4.6,0.9c2.1,0,4-0.4,5.8-1.3c1.8-0.9,3.2-2,4.2-3.6c1-1.5,1.5-3.1,1.5-4.9c0-2.3-1-4.2-2.9-5.5
		C220.3,469.7,218.4,469.1,216.2,469.1"/>
	<path class="st0" d="M237.2,467.7h5.9c2.1,0,3.6,0.2,4.5,0.5c0.9,0.3,1.6,0.9,2.2,1.6c0.6,0.7,0.8,1.6,0.8,2.6c0,1.1-0.3,2-1,3
		c-0.7,0.9-1.6,1.6-2.7,2.1c-1.1,0.5-2.6,0.7-4.5,0.7l7,9.3h-2.6l-7-9.3h-1.8l-1.5,9.3h-2.3L237.2,467.7z M239.3,469.6l-1,6.5h2.7
		c2,0,3.3-0.1,3.9-0.2c1-0.2,1.8-0.6,2.5-1.3c0.6-0.6,0.9-1.4,0.9-2.3c0-1-0.4-1.8-1.3-2.2c-0.7-0.4-1.9-0.5-3.6-0.5H239.3z"/>
	<polygon class="st0" points="257.2,467.7 271.2,467.7 270.9,469.6 265,469.6 262.1,487.4 259.8,487.4 262.6,469.6 256.9,469.6 	"/>
	<polygon class="st0" points="290.2,467.7 289.9,469.7 279.4,469.7 278.4,476.1 288.8,476.1 288.5,478 278.1,478 276.9,485.5 
		287.3,485.5 287.1,487.4 274.2,487.4 277.4,467.7 	"/>
	<polygon class="st0" points="323.7,467.7 323.4,469.7 312.9,469.7 311.9,476.1 322.4,476.1 322.1,478 311.6,478 310.4,485.5 
		320.9,485.5 320.6,487.4 307.7,487.4 310.9,467.7 	"/>
	<path class="st0" d="M339.8,467.7h2.3l-2.2,13.7c-0.3,2-0.7,3.4-1.2,4.1c-0.5,0.8-1.1,1.3-2,1.7c-0.9,0.4-1.9,0.6-3,0.6
		c-1.1,0-2.1-0.2-3.1-0.5c-1-0.4-2-1-3-1.8l1.8-1.1c1.5,1.1,3,1.6,4.4,1.6c1.1,0,1.9-0.4,2.6-1.1c0.5-0.6,0.9-1.7,1.2-3.5
		L339.8,467.7z"/>
	<polygon class="st0" points="363.9,467.7 363.6,469.7 353.1,469.7 352.1,476.1 362.5,476.1 362.2,478 351.8,478 350.6,485.5 
		361,485.5 360.8,487.4 347.9,487.4 351.1,467.7 	"/>
	<path class="st0" d="M393.1,470.5l-1.4,1.6c-2.5-2-5.3-2.9-8.4-2.9c-2.1,0-4,0.4-5.8,1.3c-1.8,0.8-3.2,2-4.2,3.4
		c-1,1.4-1.5,3-1.5,4.6c0,1.5,0.4,2.8,1.2,3.9c0.8,1.1,1.9,2,3.4,2.7c1.5,0.6,3.1,1,5,1c2.9,0,5.6-0.8,8.1-2.3l1.3,1.6
		c-1.8,1-3.4,1.7-4.8,2.1c-1.3,0.4-2.9,0.5-4.6,0.5c-3.2,0-5.8-0.7-7.9-2c-2.7-1.8-4-4.3-4-7.3c0-3.1,1.3-5.8,4-8
		c2.7-2.2,6-3.3,10-3.3c1.8,0,3.5,0.2,5,0.7C390,468.5,391.5,469.3,393.1,470.5"/>
	<path class="st0" d="M401.9,467.7h2.3l-1.8,11.3c-0.2,1.5-0.4,2.6-0.4,3.2c0,1.2,0.4,2.2,1.2,2.8c0.8,0.7,2,1,3.5,1
		c1,0,2-0.2,2.8-0.5c0.8-0.3,1.5-0.7,2.1-1.3c0.6-0.6,1-1.2,1.2-2c0.4-1.3,0.8-3,1.1-5l1.5-9.5h2.3l-1.6,9.9l-0.4,2.4
		c-0.2,1.1-0.5,2.1-0.8,2.9c-0.3,0.8-0.7,1.5-1.2,2.1c-0.5,0.6-1.1,1.1-1.7,1.5c-0.6,0.4-1.4,0.7-2.3,0.9c-0.9,0.2-1.9,0.3-3,0.3
		c-2.3,0-4-0.5-5.2-1.5c-1.2-1-1.8-2.3-1.8-3.9c0-0.5,0-1,0.1-1.5l0.4-2.3L401.9,467.7z"/>
	<polygon class="st0" points="424,467.7 438,467.7 437.7,469.6 431.8,469.6 428.9,487.4 426.6,487.4 429.4,469.6 423.7,469.6 	"/>
	<polygon class="st0" points="444,467.7 446.4,467.7 443.2,487.4 440.9,487.4 	"/>
	<polygon class="st0" points="453.1,467.7 455.5,467.7 461.2,483.3 472.1,467.7 474.6,467.7 461,487.4 460.4,487.4 	"/>
	<path class="st0" d="M492.7,467.2c3.1,0,5.7,0.9,7.8,2.6c2.1,1.7,3.1,3.9,3.1,6.6c0,3.2-1.3,6-4,8.2c-2.6,2.2-5.9,3.3-9.9,3.3
		c-3.4,0-6-0.8-8.1-2.5c-2-1.7-3-3.9-3-6.7c0-2.1,0.6-4.1,1.8-5.8c1.2-1.8,2.9-3.2,5-4.2C487.7,467.7,490,467.2,492.7,467.2
		 M492.6,469.1c-2.2,0-4.2,0.4-6,1.2c-1.7,0.8-3.1,2-4.2,3.5c-1,1.5-1.5,3.1-1.5,4.8c0,1.4,0.4,2.7,1.1,3.9c0.7,1.1,1.8,2,3.1,2.6
		c1.3,0.6,2.8,0.9,4.6,0.9c2.1,0,4-0.4,5.8-1.3s3.2-2,4.2-3.6c1-1.5,1.5-3.1,1.5-4.9c0-2.3-1-4.2-2.9-5.5
		C496.8,469.7,494.9,469.1,492.6,469.1"/>
</g>
</svg>
