<svg id="Layer_1" data-name="Layer 1" xmlns="http://www.w3.org/2000/svg" viewBox="0 0 503.61 503.61"><defs><style>.cls-1{fill:#003a5b;fill-rule:evenodd;}</style></defs><path class="cls-1" d="M294.73,390.59v19.63H345V398c-4.56,0-9.11,0-13.66,0-7.27-.08-11.14-3.37-11.21-10.64-.21-20.35-.42-40.71.08-61.05.34-13.34,8.69-20.82,22.11-21,11-.17,21.94,0,32.92,0h5.49V279.63c-6.27,0-12.42,0-18.58,0-11.25-.06-16.65-7.55-12.61-18.13a153.23,153.23,0,0,0,9.34-40.66c.91-9.69,8.15-16.22,17.88-16.38q14.07-.22,28.15,0c9.82.18,16.64,6.7,17.69,16.48,1.46,13.61,4.14,26.91,9.14,39.74,4.53,11.65-.81,18.93-13.4,18.95H400.5v25.58h5.35c10.81,0,21.63-.07,32.44,0,15,.12,23.26,8.46,23.29,23.43q.06,28.14,0,56.28c0,9.74-3.38,13-13.26,13.05H436.64v12.59H442c13.67,0,27.35,0,41,0a20.61,20.61,0,0,1,7,1,8.73,8.73,0,0,1,6,9.33c-.31,4.4-2.72,7.44-7.09,8.47a28.68,28.68,0,0,1-6.62.59q-230.4,0-460.8,0a34.29,34.29,0,0,1-6.16-.5,9.29,9.29,0,0,1-.78-18.13,26,26,0,0,1,6.1-.74c5.22-.09,10.45,0,16,0V390.88C25.6,388.69,24,386.66,24,375.22V341.35c0-16.42,4-22.4,19.73-28.7V307.8c0-18.6-.1-37.2,0-55.81.13-19.55,12.7-32.13,32.32-32.16q89.45-.14,178.89,0c20,0,32.72,12.76,32.84,32.83q.17,27.43,0,54.86c0,3.73.68,5.68,4.69,7.19,9.32,3.49,14.43,10.8,14.62,20.84.26,14,.08,28,.08,42C307.12,386.75,304.49,389.6,294.73,390.59ZM43.54,371.2H166c1.75,0,3.5,0,5.24.1a9.38,9.38,0,0,1,9,8.8,9.49,9.49,0,0,1-7.8,9.95,28.37,28.37,0,0,1-5.22.27H56.4V410.2H274.66V390.31c-9.3,0-18.19.13-27.08,0-6.08-.12-10.18-4.37-10-9.86.15-5.33,4.11-9,10.13-9.16,5.56-.14,11.13-.05,16.69-.05h23.66v-31c0-7.56-.53-8.07-8.13-8.07H51.41c-1.27,0-2.79-.44-3.76.11-1.56.9-3.9,2.41-3.94,3.71C43.41,347.49,43.54,359.06,43.54,371.2Zm224.25-58.45a10.94,10.94,0,0,0,.46-1.81c0-20.19.13-40.38,0-60.57-.06-7.14-4.4-11-12.11-11.05q-90.38-.1-180.76,0c-8.41,0-12.45,4.28-12.47,12.77-.06,19.08,0,38.16,0,57.24,0,1.06.18,2.12.28,3.23h16c0-6.55.18-12.74,0-18.92-.29-7.72,3.27-12.56,10.24-15.43,17.72-7.31,35.45-7.53,53.25-.33,8.51,3.44,11,7,11,16.23,0,6.13,0,12.27,0,18.56h26.83V293.5c0-6.82,2.7-11.93,9.18-14.75,17.24-7.52,34.7-8.28,52.35-1.68,11.2,4.2,13.33,7.48,13.33,19.56v16.12Zm71.86,65.78H441.9v-17H339.65Zm102.23-54.08H375.39c-10.65,0-21.29-.08-31.94.09-1.33,0-3.72,1.26-3.78,2.07-.35,5-.17,10-.17,15H441.88Zm-31.65-64.21C407.81,248,405.42,236,403,224H378.48l-7.15,36.22ZM134.29,295.39c-10.94-4.22-21.81-4.68-32.75-1-1.25.42-3.05,1.71-3.11,2.69-.31,5.15-.14,10.33-.14,15.53h36Zm101.54,17.34c0-5.38.12-10.3-.11-15.2a4.06,4.06,0,0,0-2.24-2.84,44.84,44.84,0,0,0-31.24,0c-.87.31-2.1,1.29-2.13,2-.17,5.3-.09,10.62-.09,16Zm181,85.58H364.72v11.91h52.11Z"/><path class="cls-1" d="M256,73.63q28.13,0,56.25,0c13,0,21.65,7.7,21.82,20.62q.54,40.05,0,80.09c-.19,12.52-9.05,20.36-21.65,20.37q-56.25,0-112.51,0c-13.38,0-22.21-8.53-22.3-21.93q-.24-38.62,0-77.23c.06-13.49,8.71-21.9,22.18-21.92Q227.89,73.6,256,73.63Zm58.63,51.88c-.86,0-1.49-.05-2.1,0a38.57,38.57,0,0,1-40.26-28.76c-.85-3.39-2.14-4.18-5.4-4.16-21.6.14-43.21.2-64.81,0-4.41,0-5.3,1.49-5.24,5.48.19,14.3.07,28.6.07,42.89v8.29c3.25-3.84,5.54-6.61,7.89-9.33,17.94-20.77,37.8-24.94,62-12.53,9.87,5,19.23,11.09,29,16.34,5.7,3.07,11.83,5.17,18.81,4.78Zm.12,43.55c-6.9-1.65-13.52-2.61-19.67-4.86-6.35-2.33-12.33-5.74-18.31-9-6.82-3.7-13.31-8-20.21-11.57-13.25-6.8-23.39-5.53-33.55,5.33-7.21,7.71-13.11,16.65-19.56,25.08-.2.26,0,.86.07,1.56H308.4C315.13,175.6,315.13,175.6,314.76,169.06ZM291,92.67c3,7.48,7.75,12,15,13.35,8.2,1.55,9,.73,9-7.52,0-1,.35-2.14-.09-2.8-.78-1.18-2-2.85-3.1-2.89C305.09,92.54,298.43,92.67,291,92.67Z"/><path class="cls-1" d="M209.1,371.3a9.37,9.37,0,0,1,9.27,9.39,9.49,9.49,0,1,1-19,.05A9.37,9.37,0,0,1,209.1,371.3Z"/></svg>